G75*
%MOIN*%
%OFA0B0*%
%FSLAX25Y25*%
%IPPOS*%
%LPD*%
%AMOC8*
5,1,8,0,0,1.08239X$1,22.5*
%
%ADD10C,0.00394*%
D10*
X0040154Y0032555D02*
X0331493Y0032555D01*
X0331778Y0032558D01*
X0332064Y0032569D01*
X0332349Y0032586D01*
X0332633Y0032610D01*
X0332917Y0032641D01*
X0333200Y0032679D01*
X0333481Y0032724D01*
X0333762Y0032775D01*
X0334042Y0032833D01*
X0334320Y0032898D01*
X0334596Y0032970D01*
X0334870Y0033048D01*
X0335143Y0033133D01*
X0335413Y0033225D01*
X0335681Y0033323D01*
X0335947Y0033427D01*
X0336210Y0033538D01*
X0336470Y0033655D01*
X0336728Y0033778D01*
X0336982Y0033908D01*
X0337233Y0034044D01*
X0337481Y0034185D01*
X0337725Y0034333D01*
X0337966Y0034486D01*
X0338202Y0034646D01*
X0338435Y0034811D01*
X0338664Y0034981D01*
X0338889Y0035157D01*
X0339109Y0035339D01*
X0339325Y0035525D01*
X0339536Y0035717D01*
X0339743Y0035914D01*
X0339945Y0036116D01*
X0340142Y0036323D01*
X0340334Y0036534D01*
X0340520Y0036750D01*
X0340702Y0036970D01*
X0340878Y0037195D01*
X0341048Y0037424D01*
X0341213Y0037657D01*
X0341373Y0037893D01*
X0341526Y0038134D01*
X0341674Y0038378D01*
X0341815Y0038626D01*
X0341951Y0038877D01*
X0342081Y0039131D01*
X0342204Y0039389D01*
X0342321Y0039649D01*
X0342432Y0039912D01*
X0342536Y0040178D01*
X0342634Y0040446D01*
X0342726Y0040716D01*
X0342811Y0040989D01*
X0342889Y0041263D01*
X0342961Y0041539D01*
X0343026Y0041817D01*
X0343084Y0042097D01*
X0343135Y0042378D01*
X0343180Y0042659D01*
X0343218Y0042942D01*
X0343249Y0043226D01*
X0343273Y0043510D01*
X0343290Y0043795D01*
X0343301Y0044081D01*
X0343304Y0044366D01*
X0343304Y0217594D01*
X0343301Y0217879D01*
X0343290Y0218165D01*
X0343273Y0218450D01*
X0343249Y0218734D01*
X0343218Y0219018D01*
X0343180Y0219301D01*
X0343135Y0219582D01*
X0343084Y0219863D01*
X0343026Y0220143D01*
X0342961Y0220421D01*
X0342889Y0220697D01*
X0342811Y0220971D01*
X0342726Y0221244D01*
X0342634Y0221514D01*
X0342536Y0221782D01*
X0342432Y0222048D01*
X0342321Y0222311D01*
X0342204Y0222571D01*
X0342081Y0222829D01*
X0341951Y0223083D01*
X0341815Y0223334D01*
X0341674Y0223582D01*
X0341526Y0223826D01*
X0341373Y0224067D01*
X0341213Y0224303D01*
X0341048Y0224536D01*
X0340878Y0224765D01*
X0340702Y0224990D01*
X0340520Y0225210D01*
X0340334Y0225426D01*
X0340142Y0225637D01*
X0339945Y0225844D01*
X0339743Y0226046D01*
X0339536Y0226243D01*
X0339325Y0226435D01*
X0339109Y0226621D01*
X0338889Y0226803D01*
X0338664Y0226979D01*
X0338435Y0227149D01*
X0338202Y0227314D01*
X0337966Y0227474D01*
X0337725Y0227627D01*
X0337481Y0227775D01*
X0337233Y0227916D01*
X0336982Y0228052D01*
X0336728Y0228182D01*
X0336470Y0228305D01*
X0336210Y0228422D01*
X0335947Y0228533D01*
X0335681Y0228637D01*
X0335413Y0228735D01*
X0335143Y0228827D01*
X0334870Y0228912D01*
X0334596Y0228990D01*
X0334320Y0229062D01*
X0334042Y0229127D01*
X0333762Y0229185D01*
X0333481Y0229236D01*
X0333200Y0229281D01*
X0332917Y0229319D01*
X0332633Y0229350D01*
X0332349Y0229374D01*
X0332064Y0229391D01*
X0331778Y0229402D01*
X0331493Y0229405D01*
X0040154Y0229405D01*
X0039869Y0229402D01*
X0039583Y0229391D01*
X0039298Y0229374D01*
X0039014Y0229350D01*
X0038730Y0229319D01*
X0038447Y0229281D01*
X0038166Y0229236D01*
X0037885Y0229185D01*
X0037605Y0229127D01*
X0037327Y0229062D01*
X0037051Y0228990D01*
X0036777Y0228912D01*
X0036504Y0228827D01*
X0036234Y0228735D01*
X0035966Y0228637D01*
X0035700Y0228533D01*
X0035437Y0228422D01*
X0035177Y0228305D01*
X0034919Y0228182D01*
X0034665Y0228052D01*
X0034414Y0227916D01*
X0034166Y0227775D01*
X0033922Y0227627D01*
X0033681Y0227474D01*
X0033445Y0227314D01*
X0033212Y0227149D01*
X0032983Y0226979D01*
X0032758Y0226803D01*
X0032538Y0226621D01*
X0032322Y0226435D01*
X0032111Y0226243D01*
X0031904Y0226046D01*
X0031702Y0225844D01*
X0031505Y0225637D01*
X0031313Y0225426D01*
X0031127Y0225210D01*
X0030945Y0224990D01*
X0030769Y0224765D01*
X0030599Y0224536D01*
X0030434Y0224303D01*
X0030274Y0224067D01*
X0030121Y0223826D01*
X0029973Y0223582D01*
X0029832Y0223334D01*
X0029696Y0223083D01*
X0029566Y0222829D01*
X0029443Y0222571D01*
X0029326Y0222311D01*
X0029215Y0222048D01*
X0029111Y0221782D01*
X0029013Y0221514D01*
X0028921Y0221244D01*
X0028836Y0220971D01*
X0028758Y0220697D01*
X0028686Y0220421D01*
X0028621Y0220143D01*
X0028563Y0219863D01*
X0028512Y0219582D01*
X0028467Y0219301D01*
X0028429Y0219018D01*
X0028398Y0218734D01*
X0028374Y0218450D01*
X0028357Y0218165D01*
X0028346Y0217879D01*
X0028343Y0217594D01*
X0028343Y0044366D01*
X0028346Y0044081D01*
X0028357Y0043795D01*
X0028374Y0043510D01*
X0028398Y0043226D01*
X0028429Y0042942D01*
X0028467Y0042659D01*
X0028512Y0042378D01*
X0028563Y0042097D01*
X0028621Y0041817D01*
X0028686Y0041539D01*
X0028758Y0041263D01*
X0028836Y0040989D01*
X0028921Y0040716D01*
X0029013Y0040446D01*
X0029111Y0040178D01*
X0029215Y0039912D01*
X0029326Y0039649D01*
X0029443Y0039389D01*
X0029566Y0039131D01*
X0029696Y0038877D01*
X0029832Y0038626D01*
X0029973Y0038378D01*
X0030121Y0038134D01*
X0030274Y0037893D01*
X0030434Y0037657D01*
X0030599Y0037424D01*
X0030769Y0037195D01*
X0030945Y0036970D01*
X0031127Y0036750D01*
X0031313Y0036534D01*
X0031505Y0036323D01*
X0031702Y0036116D01*
X0031904Y0035914D01*
X0032111Y0035717D01*
X0032322Y0035525D01*
X0032538Y0035339D01*
X0032758Y0035157D01*
X0032983Y0034981D01*
X0033212Y0034811D01*
X0033445Y0034646D01*
X0033681Y0034486D01*
X0033922Y0034333D01*
X0034166Y0034185D01*
X0034414Y0034044D01*
X0034665Y0033908D01*
X0034919Y0033778D01*
X0035177Y0033655D01*
X0035437Y0033538D01*
X0035700Y0033427D01*
X0035966Y0033323D01*
X0036234Y0033225D01*
X0036504Y0033133D01*
X0036777Y0033048D01*
X0037051Y0032970D01*
X0037327Y0032898D01*
X0037605Y0032833D01*
X0037885Y0032775D01*
X0038166Y0032724D01*
X0038447Y0032679D01*
X0038730Y0032641D01*
X0039014Y0032610D01*
X0039298Y0032586D01*
X0039583Y0032569D01*
X0039869Y0032558D01*
X0040154Y0032555D01*
M02*
