%
M48
M72
T01C0.0236
T02C0.0394
T03C0.0512
T04C0.1693
%
T01
X7834Y12256
X8459Y12256
X10709Y12256
X11334Y12256
X13834Y12256
X14459Y12256
X16709Y12256
X17334Y12256
X19834Y12256
X20459Y12256
X22709Y12256
X23334Y12256
X25334Y13381
X25084Y14506
X25084Y15006
X25084Y15506
X25084Y16006
X24334Y15131
X23084Y14881
X25084Y17506
X25084Y18256
X27334Y18381
X27334Y18881
X27334Y19381
X27334Y19881
X27959Y19881
X27959Y19381
X27959Y18881
X27334Y17506
X29209Y17506
X32334Y17506
X32334Y17006
X30209Y14506
X30209Y14131
X30209Y13756
X28959Y13881
X28959Y14381
X28459Y14381
X27959Y14381
X27959Y14881
X28459Y14881
X28959Y14881
X31959Y14381
X31959Y13881
X31709Y12506
X32209Y12506
X32709Y12506
X32709Y11756
X32209Y11756
X31709Y11756
X31209Y11756
X31209Y12506
X30209Y10506
X30209Y10131
X30209Y9756
X28709Y9568
X28709Y10506
X31959Y10381
X31959Y9881
X24959Y9506
X24959Y9006
X17084Y14881
X11084Y14881
T02
X8084Y11006
X8084Y13006
X11084Y13006
X11084Y11006
X14084Y11006
X14084Y13006
X17084Y13006
X17084Y11006
X20084Y11006
X20084Y13006
X23084Y13006
X23084Y11006
X23084Y18006
X20084Y18006
X17084Y18006
X14084Y18006
X11084Y18006
X8084Y18006
X24959Y22131
X25959Y22131
X26959Y22131
X27959Y22131
X28959Y22131
T03
X7584Y4818
X9584Y4818
X11584Y4818
X13584Y4818
X15584Y4818
X17584Y4818
X19584Y4818
X21584Y4818
X23584Y4818
X25584Y4818
X27584Y4818
X29584Y4818
T04
X4803Y5224
X4803Y20972
X32362Y20972
X32362Y5224
M30
