G75*
%MOIN*%
%OFA0B0*%
%FSLAX25Y25*%
%IPPOS*%
%LPD*%
%AMOC8*
5,1,8,0,0,1.08239X$1,22.5*
%
%ADD10C,0.00394*%
%ADD11C,0.07874*%
%ADD12C,0.05906*%
%ADD13C,0.07677*%
%ADD14C,0.27559*%
%ADD15C,0.03562*%
%ADD16C,0.00600*%
%ADD17C,0.10000*%
%ADD18C,0.02400*%
%ADD19C,0.01600*%
D10*
X0040154Y0032555D02*
X0331493Y0032555D01*
X0331778Y0032558D01*
X0332064Y0032569D01*
X0332349Y0032586D01*
X0332633Y0032610D01*
X0332917Y0032641D01*
X0333200Y0032679D01*
X0333481Y0032724D01*
X0333762Y0032775D01*
X0334042Y0032833D01*
X0334320Y0032898D01*
X0334596Y0032970D01*
X0334870Y0033048D01*
X0335143Y0033133D01*
X0335413Y0033225D01*
X0335681Y0033323D01*
X0335947Y0033427D01*
X0336210Y0033538D01*
X0336470Y0033655D01*
X0336728Y0033778D01*
X0336982Y0033908D01*
X0337233Y0034044D01*
X0337481Y0034185D01*
X0337725Y0034333D01*
X0337966Y0034486D01*
X0338202Y0034646D01*
X0338435Y0034811D01*
X0338664Y0034981D01*
X0338889Y0035157D01*
X0339109Y0035339D01*
X0339325Y0035525D01*
X0339536Y0035717D01*
X0339743Y0035914D01*
X0339945Y0036116D01*
X0340142Y0036323D01*
X0340334Y0036534D01*
X0340520Y0036750D01*
X0340702Y0036970D01*
X0340878Y0037195D01*
X0341048Y0037424D01*
X0341213Y0037657D01*
X0341373Y0037893D01*
X0341526Y0038134D01*
X0341674Y0038378D01*
X0341815Y0038626D01*
X0341951Y0038877D01*
X0342081Y0039131D01*
X0342204Y0039389D01*
X0342321Y0039649D01*
X0342432Y0039912D01*
X0342536Y0040178D01*
X0342634Y0040446D01*
X0342726Y0040716D01*
X0342811Y0040989D01*
X0342889Y0041263D01*
X0342961Y0041539D01*
X0343026Y0041817D01*
X0343084Y0042097D01*
X0343135Y0042378D01*
X0343180Y0042659D01*
X0343218Y0042942D01*
X0343249Y0043226D01*
X0343273Y0043510D01*
X0343290Y0043795D01*
X0343301Y0044081D01*
X0343304Y0044366D01*
X0343304Y0217594D01*
X0343301Y0217879D01*
X0343290Y0218165D01*
X0343273Y0218450D01*
X0343249Y0218734D01*
X0343218Y0219018D01*
X0343180Y0219301D01*
X0343135Y0219582D01*
X0343084Y0219863D01*
X0343026Y0220143D01*
X0342961Y0220421D01*
X0342889Y0220697D01*
X0342811Y0220971D01*
X0342726Y0221244D01*
X0342634Y0221514D01*
X0342536Y0221782D01*
X0342432Y0222048D01*
X0342321Y0222311D01*
X0342204Y0222571D01*
X0342081Y0222829D01*
X0341951Y0223083D01*
X0341815Y0223334D01*
X0341674Y0223582D01*
X0341526Y0223826D01*
X0341373Y0224067D01*
X0341213Y0224303D01*
X0341048Y0224536D01*
X0340878Y0224765D01*
X0340702Y0224990D01*
X0340520Y0225210D01*
X0340334Y0225426D01*
X0340142Y0225637D01*
X0339945Y0225844D01*
X0339743Y0226046D01*
X0339536Y0226243D01*
X0339325Y0226435D01*
X0339109Y0226621D01*
X0338889Y0226803D01*
X0338664Y0226979D01*
X0338435Y0227149D01*
X0338202Y0227314D01*
X0337966Y0227474D01*
X0337725Y0227627D01*
X0337481Y0227775D01*
X0337233Y0227916D01*
X0336982Y0228052D01*
X0336728Y0228182D01*
X0336470Y0228305D01*
X0336210Y0228422D01*
X0335947Y0228533D01*
X0335681Y0228637D01*
X0335413Y0228735D01*
X0335143Y0228827D01*
X0334870Y0228912D01*
X0334596Y0228990D01*
X0334320Y0229062D01*
X0334042Y0229127D01*
X0333762Y0229185D01*
X0333481Y0229236D01*
X0333200Y0229281D01*
X0332917Y0229319D01*
X0332633Y0229350D01*
X0332349Y0229374D01*
X0332064Y0229391D01*
X0331778Y0229402D01*
X0331493Y0229405D01*
X0040154Y0229405D01*
X0039869Y0229402D01*
X0039583Y0229391D01*
X0039298Y0229374D01*
X0039014Y0229350D01*
X0038730Y0229319D01*
X0038447Y0229281D01*
X0038166Y0229236D01*
X0037885Y0229185D01*
X0037605Y0229127D01*
X0037327Y0229062D01*
X0037051Y0228990D01*
X0036777Y0228912D01*
X0036504Y0228827D01*
X0036234Y0228735D01*
X0035966Y0228637D01*
X0035700Y0228533D01*
X0035437Y0228422D01*
X0035177Y0228305D01*
X0034919Y0228182D01*
X0034665Y0228052D01*
X0034414Y0227916D01*
X0034166Y0227775D01*
X0033922Y0227627D01*
X0033681Y0227474D01*
X0033445Y0227314D01*
X0033212Y0227149D01*
X0032983Y0226979D01*
X0032758Y0226803D01*
X0032538Y0226621D01*
X0032322Y0226435D01*
X0032111Y0226243D01*
X0031904Y0226046D01*
X0031702Y0225844D01*
X0031505Y0225637D01*
X0031313Y0225426D01*
X0031127Y0225210D01*
X0030945Y0224990D01*
X0030769Y0224765D01*
X0030599Y0224536D01*
X0030434Y0224303D01*
X0030274Y0224067D01*
X0030121Y0223826D01*
X0029973Y0223582D01*
X0029832Y0223334D01*
X0029696Y0223083D01*
X0029566Y0222829D01*
X0029443Y0222571D01*
X0029326Y0222311D01*
X0029215Y0222048D01*
X0029111Y0221782D01*
X0029013Y0221514D01*
X0028921Y0221244D01*
X0028836Y0220971D01*
X0028758Y0220697D01*
X0028686Y0220421D01*
X0028621Y0220143D01*
X0028563Y0219863D01*
X0028512Y0219582D01*
X0028467Y0219301D01*
X0028429Y0219018D01*
X0028398Y0218734D01*
X0028374Y0218450D01*
X0028357Y0218165D01*
X0028346Y0217879D01*
X0028343Y0217594D01*
X0028343Y0044366D01*
X0028346Y0044081D01*
X0028357Y0043795D01*
X0028374Y0043510D01*
X0028398Y0043226D01*
X0028429Y0042942D01*
X0028467Y0042659D01*
X0028512Y0042378D01*
X0028563Y0042097D01*
X0028621Y0041817D01*
X0028686Y0041539D01*
X0028758Y0041263D01*
X0028836Y0040989D01*
X0028921Y0040716D01*
X0029013Y0040446D01*
X0029111Y0040178D01*
X0029215Y0039912D01*
X0029326Y0039649D01*
X0029443Y0039389D01*
X0029566Y0039131D01*
X0029696Y0038877D01*
X0029832Y0038626D01*
X0029973Y0038378D01*
X0030121Y0038134D01*
X0030274Y0037893D01*
X0030434Y0037657D01*
X0030599Y0037424D01*
X0030769Y0037195D01*
X0030945Y0036970D01*
X0031127Y0036750D01*
X0031313Y0036534D01*
X0031505Y0036323D01*
X0031702Y0036116D01*
X0031904Y0035914D01*
X0032111Y0035717D01*
X0032322Y0035525D01*
X0032538Y0035339D01*
X0032758Y0035157D01*
X0032983Y0034981D01*
X0033212Y0034811D01*
X0033445Y0034646D01*
X0033681Y0034486D01*
X0033922Y0034333D01*
X0034166Y0034185D01*
X0034414Y0034044D01*
X0034665Y0033908D01*
X0034919Y0033778D01*
X0035177Y0033655D01*
X0035437Y0033538D01*
X0035700Y0033427D01*
X0035966Y0033323D01*
X0036234Y0033225D01*
X0036504Y0033133D01*
X0036777Y0033048D01*
X0037051Y0032970D01*
X0037327Y0032898D01*
X0037605Y0032833D01*
X0037885Y0032775D01*
X0038166Y0032724D01*
X0038447Y0032679D01*
X0038730Y0032641D01*
X0039014Y0032610D01*
X0039298Y0032586D01*
X0039583Y0032569D01*
X0039869Y0032558D01*
X0040154Y0032555D01*
D11*
X0080843Y0110055D03*
X0080843Y0130055D03*
X0110843Y0130055D03*
X0110843Y0110055D03*
X0140843Y0110055D03*
X0140843Y0130055D03*
X0170843Y0130055D03*
X0170843Y0110055D03*
X0200843Y0110055D03*
X0200843Y0130055D03*
X0230843Y0130055D03*
X0230843Y0110055D03*
X0230843Y0180055D03*
X0200843Y0180055D03*
X0170843Y0180055D03*
X0140843Y0180055D03*
X0110843Y0180055D03*
X0080843Y0180055D03*
D12*
X0249593Y0218352D02*
X0249593Y0224258D01*
X0259593Y0224258D02*
X0259593Y0218352D01*
X0269593Y0218352D02*
X0269593Y0224258D01*
X0279593Y0224258D02*
X0279593Y0218352D01*
X0289593Y0218352D02*
X0289593Y0224258D01*
D13*
X0295843Y0052019D02*
X0295843Y0044342D01*
X0275843Y0044342D02*
X0275843Y0052019D01*
X0255843Y0052019D02*
X0255843Y0044342D01*
X0235843Y0044342D02*
X0235843Y0052019D01*
X0215843Y0052019D02*
X0215843Y0044342D01*
X0195843Y0044342D02*
X0195843Y0052019D01*
X0175843Y0052019D02*
X0175843Y0044342D01*
X0155843Y0044342D02*
X0155843Y0052019D01*
X0135843Y0052019D02*
X0135843Y0044342D01*
X0115843Y0044342D02*
X0115843Y0052019D01*
X0095843Y0052019D02*
X0095843Y0044342D01*
X0075843Y0044342D02*
X0075843Y0052019D01*
D14*
X0048028Y0052240D03*
X0048028Y0209720D03*
X0323619Y0209720D03*
X0323619Y0052240D03*
D15*
X0287093Y0095680D03*
X0287093Y0105055D03*
X0302093Y0105055D03*
X0302093Y0101305D03*
X0302093Y0097555D03*
X0319593Y0098805D03*
X0319593Y0103805D03*
X0317093Y0117555D03*
X0322093Y0117555D03*
X0327093Y0117555D03*
X0327093Y0125055D03*
X0322093Y0125055D03*
X0317093Y0125055D03*
X0312093Y0125055D03*
X0312093Y0117555D03*
X0302093Y0137555D03*
X0302093Y0141305D03*
X0302093Y0145055D03*
X0289593Y0143805D03*
X0284593Y0143805D03*
X0279593Y0143805D03*
X0279593Y0148805D03*
X0284593Y0148805D03*
X0289593Y0148805D03*
X0289593Y0138805D03*
X0319593Y0138805D03*
X0319593Y0143805D03*
X0323343Y0170055D03*
X0323343Y0175055D03*
X0292093Y0175055D03*
X0273343Y0175055D03*
X0273343Y0183805D03*
X0273343Y0188805D03*
X0273343Y0193805D03*
X0273343Y0198805D03*
X0279593Y0198805D03*
X0279593Y0193805D03*
X0279593Y0188805D03*
X0250843Y0182555D03*
X0250843Y0175055D03*
X0250843Y0160055D03*
X0250843Y0155055D03*
X0250843Y0150055D03*
X0250843Y0145055D03*
X0243343Y0151305D03*
X0230843Y0148805D03*
X0253343Y0133805D03*
X0233343Y0122555D03*
X0227093Y0122555D03*
X0204593Y0122555D03*
X0198343Y0122555D03*
X0173343Y0122555D03*
X0167093Y0122555D03*
X0144593Y0122555D03*
X0138343Y0122555D03*
X0113343Y0122555D03*
X0107093Y0122555D03*
X0084593Y0122555D03*
X0078343Y0122555D03*
X0110843Y0148805D03*
X0170843Y0148805D03*
X0249593Y0095055D03*
X0249593Y0090055D03*
D16*
X0245143Y0090012D02*
X0341607Y0090012D01*
X0341607Y0089414D02*
X0245143Y0089414D01*
X0245143Y0088815D02*
X0341607Y0088815D01*
X0341607Y0088217D02*
X0245143Y0088217D01*
X0245143Y0087618D02*
X0341607Y0087618D01*
X0341607Y0087020D02*
X0245143Y0087020D01*
X0245143Y0086421D02*
X0341607Y0086421D01*
X0341607Y0085823D02*
X0245143Y0085823D01*
X0245143Y0085224D02*
X0341607Y0085224D01*
X0341607Y0084626D02*
X0245143Y0084626D01*
X0245143Y0084027D02*
X0341607Y0084027D01*
X0341607Y0083429D02*
X0245143Y0083429D01*
X0245143Y0082830D02*
X0341607Y0082830D01*
X0341607Y0082232D02*
X0245143Y0082232D01*
X0245143Y0081633D02*
X0341607Y0081633D01*
X0341607Y0081035D02*
X0245143Y0081035D01*
X0245143Y0080436D02*
X0341607Y0080436D01*
X0341607Y0079838D02*
X0245143Y0079838D01*
X0245143Y0079239D02*
X0341607Y0079239D01*
X0341607Y0078640D02*
X0245143Y0078640D01*
X0245143Y0078042D02*
X0341607Y0078042D01*
X0341607Y0077443D02*
X0245143Y0077443D01*
X0245143Y0076845D02*
X0341607Y0076845D01*
X0341607Y0076246D02*
X0245143Y0076246D01*
X0245143Y0075648D02*
X0341607Y0075648D01*
X0341607Y0075049D02*
X0245143Y0075049D01*
X0245143Y0074451D02*
X0341607Y0074451D01*
X0341607Y0073852D02*
X0245143Y0073852D01*
X0245143Y0073254D02*
X0341607Y0073254D01*
X0341607Y0072655D02*
X0245143Y0072655D01*
X0245143Y0072057D02*
X0341607Y0072057D01*
X0341607Y0071458D02*
X0245143Y0071458D01*
X0245143Y0070860D02*
X0341607Y0070860D01*
X0341607Y0070261D02*
X0245143Y0070261D01*
X0245143Y0069663D02*
X0341607Y0069663D01*
X0341607Y0069064D02*
X0245143Y0069064D01*
X0245143Y0068466D02*
X0341607Y0068466D01*
X0341607Y0067867D02*
X0245143Y0067867D01*
X0245143Y0067269D02*
X0341607Y0067269D01*
X0341607Y0066670D02*
X0245143Y0066670D01*
X0245143Y0066072D02*
X0341607Y0066072D01*
X0341607Y0065473D02*
X0245143Y0065473D01*
X0245143Y0064875D02*
X0341607Y0064875D01*
X0341607Y0064276D02*
X0245143Y0064276D01*
X0245143Y0063678D02*
X0341607Y0063678D01*
X0341607Y0063079D02*
X0245143Y0063079D01*
X0245143Y0062481D02*
X0341607Y0062481D01*
X0341607Y0061882D02*
X0245143Y0061882D01*
X0245143Y0061284D02*
X0341607Y0061284D01*
X0341607Y0060685D02*
X0245143Y0060685D01*
X0245143Y0060087D02*
X0341607Y0060087D01*
X0341607Y0059488D02*
X0245143Y0059488D01*
X0245143Y0058890D02*
X0341607Y0058890D01*
X0341607Y0058291D02*
X0245143Y0058291D01*
X0245143Y0057693D02*
X0341607Y0057693D01*
X0341607Y0057094D02*
X0297540Y0057094D01*
X0296905Y0057357D02*
X0298867Y0056545D01*
X0300369Y0055043D01*
X0301182Y0053081D01*
X0301182Y0043280D01*
X0300369Y0041317D01*
X0298867Y0039816D01*
X0296905Y0039003D01*
X0294781Y0039003D01*
X0292819Y0039816D01*
X0291317Y0041317D01*
X0290505Y0043280D01*
X0290505Y0053081D01*
X0291317Y0055043D01*
X0292819Y0056545D01*
X0294781Y0057357D01*
X0296905Y0057357D01*
X0298916Y0056496D02*
X0341607Y0056496D01*
X0341607Y0055897D02*
X0299515Y0055897D01*
X0300113Y0055299D02*
X0341607Y0055299D01*
X0341607Y0054700D02*
X0300511Y0054700D01*
X0300759Y0054102D02*
X0341607Y0054102D01*
X0341607Y0053503D02*
X0301007Y0053503D01*
X0301182Y0052904D02*
X0341607Y0052904D01*
X0341607Y0052306D02*
X0301182Y0052306D01*
X0301182Y0051707D02*
X0341607Y0051707D01*
X0341607Y0051109D02*
X0301182Y0051109D01*
X0301182Y0050510D02*
X0341607Y0050510D01*
X0341607Y0049912D02*
X0301182Y0049912D01*
X0301182Y0049313D02*
X0341607Y0049313D01*
X0341607Y0048715D02*
X0301182Y0048715D01*
X0301182Y0048116D02*
X0341607Y0048116D01*
X0341607Y0047518D02*
X0301182Y0047518D01*
X0301182Y0046919D02*
X0341607Y0046919D01*
X0341607Y0046321D02*
X0301182Y0046321D01*
X0301182Y0045722D02*
X0341607Y0045722D01*
X0341607Y0045124D02*
X0301182Y0045124D01*
X0301182Y0044525D02*
X0341607Y0044525D01*
X0341607Y0044366D02*
X0341482Y0042784D01*
X0340505Y0039774D01*
X0338645Y0037214D01*
X0336085Y0035354D01*
X0333075Y0034376D01*
X0331493Y0034252D01*
X0040154Y0034252D01*
X0038572Y0034376D01*
X0035562Y0035354D01*
X0033002Y0037214D01*
X0031142Y0039774D01*
X0030165Y0042784D01*
X0030040Y0044366D01*
X0030040Y0217594D01*
X0030165Y0219177D01*
X0031142Y0222186D01*
X0033002Y0224746D01*
X0035562Y0226606D01*
X0038572Y0227584D01*
X0040154Y0227709D01*
X0246747Y0227709D01*
X0245818Y0226780D01*
X0245140Y0225144D01*
X0245140Y0217467D01*
X0245818Y0215830D01*
X0247071Y0214577D01*
X0248707Y0213900D01*
X0250479Y0213900D01*
X0252115Y0214577D01*
X0253368Y0215830D01*
X0254046Y0217467D01*
X0254046Y0225144D01*
X0253368Y0226780D01*
X0252440Y0227709D01*
X0256747Y0227709D01*
X0255818Y0226780D01*
X0255140Y0225144D01*
X0255140Y0217467D01*
X0255818Y0215830D01*
X0257071Y0214577D01*
X0258707Y0213900D01*
X0260479Y0213900D01*
X0262115Y0214577D01*
X0263368Y0215830D01*
X0264046Y0217467D01*
X0264046Y0225144D01*
X0263368Y0226780D01*
X0262440Y0227709D01*
X0276747Y0227709D01*
X0275818Y0226780D01*
X0275140Y0225144D01*
X0275140Y0217467D01*
X0275818Y0215830D01*
X0277071Y0214577D01*
X0278707Y0213900D01*
X0280479Y0213900D01*
X0282115Y0214577D01*
X0283368Y0215830D01*
X0284046Y0217467D01*
X0284046Y0225144D01*
X0283368Y0226780D01*
X0282440Y0227709D01*
X0286747Y0227709D01*
X0285818Y0226780D01*
X0285140Y0225144D01*
X0285140Y0217467D01*
X0285818Y0215830D01*
X0287071Y0214577D01*
X0288707Y0213900D01*
X0290479Y0213900D01*
X0292115Y0214577D01*
X0293368Y0215830D01*
X0294046Y0217467D01*
X0294046Y0225144D01*
X0293368Y0226780D01*
X0292440Y0227709D01*
X0331493Y0227709D01*
X0333075Y0227584D01*
X0336085Y0226606D01*
X0338645Y0224746D01*
X0340505Y0222186D01*
X0341482Y0219177D01*
X0341607Y0217594D01*
X0341607Y0044366D01*
X0341572Y0043927D02*
X0301182Y0043927D01*
X0301182Y0043328D02*
X0341525Y0043328D01*
X0341465Y0042730D02*
X0300954Y0042730D01*
X0300706Y0042131D02*
X0341270Y0042131D01*
X0341076Y0041533D02*
X0300458Y0041533D01*
X0299986Y0040934D02*
X0340881Y0040934D01*
X0340687Y0040336D02*
X0299387Y0040336D01*
X0298678Y0039737D02*
X0340478Y0039737D01*
X0340043Y0039139D02*
X0297233Y0039139D01*
X0294453Y0039139D02*
X0277233Y0039139D01*
X0276905Y0039003D02*
X0278867Y0039816D01*
X0280369Y0041317D01*
X0281182Y0043280D01*
X0281182Y0053081D01*
X0280369Y0055043D01*
X0278867Y0056545D01*
X0276905Y0057357D01*
X0274781Y0057357D01*
X0272819Y0056545D01*
X0271317Y0055043D01*
X0270505Y0053081D01*
X0270505Y0043280D01*
X0271317Y0041317D01*
X0272819Y0039816D01*
X0274781Y0039003D01*
X0276905Y0039003D01*
X0278678Y0039737D02*
X0293008Y0039737D01*
X0292299Y0040336D02*
X0279387Y0040336D01*
X0279986Y0040934D02*
X0291701Y0040934D01*
X0291228Y0041533D02*
X0280458Y0041533D01*
X0280706Y0042131D02*
X0290980Y0042131D01*
X0290732Y0042730D02*
X0280954Y0042730D01*
X0281182Y0043328D02*
X0290505Y0043328D01*
X0290505Y0043927D02*
X0281182Y0043927D01*
X0281182Y0044525D02*
X0290505Y0044525D01*
X0290505Y0045124D02*
X0281182Y0045124D01*
X0281182Y0045722D02*
X0290505Y0045722D01*
X0290505Y0046321D02*
X0281182Y0046321D01*
X0281182Y0046919D02*
X0290505Y0046919D01*
X0290505Y0047518D02*
X0281182Y0047518D01*
X0281182Y0048116D02*
X0290505Y0048116D01*
X0290505Y0048715D02*
X0281182Y0048715D01*
X0281182Y0049313D02*
X0290505Y0049313D01*
X0290505Y0049912D02*
X0281182Y0049912D01*
X0281182Y0050510D02*
X0290505Y0050510D01*
X0290505Y0051109D02*
X0281182Y0051109D01*
X0281182Y0051707D02*
X0290505Y0051707D01*
X0290505Y0052306D02*
X0281182Y0052306D01*
X0281182Y0052904D02*
X0290505Y0052904D01*
X0290680Y0053503D02*
X0281007Y0053503D01*
X0280759Y0054102D02*
X0290927Y0054102D01*
X0291175Y0054700D02*
X0280511Y0054700D01*
X0280113Y0055299D02*
X0291573Y0055299D01*
X0292172Y0055897D02*
X0279515Y0055897D01*
X0278916Y0056496D02*
X0292770Y0056496D01*
X0294146Y0057094D02*
X0277540Y0057094D01*
X0274146Y0057094D02*
X0245143Y0057094D01*
X0245143Y0056496D02*
X0272770Y0056496D01*
X0272172Y0055897D02*
X0245143Y0055897D01*
X0245143Y0055299D02*
X0271573Y0055299D01*
X0271175Y0054700D02*
X0245143Y0054700D01*
X0245143Y0054102D02*
X0270927Y0054102D01*
X0270680Y0053503D02*
X0245143Y0053503D01*
X0245143Y0052904D02*
X0270505Y0052904D01*
X0270505Y0052306D02*
X0245143Y0052306D01*
X0245143Y0051707D02*
X0270505Y0051707D01*
X0270505Y0051109D02*
X0245143Y0051109D01*
X0245143Y0050510D02*
X0270505Y0050510D01*
X0270505Y0049912D02*
X0245143Y0049912D01*
X0245143Y0049313D02*
X0270505Y0049313D01*
X0270505Y0048715D02*
X0245143Y0048715D01*
X0245143Y0048116D02*
X0270505Y0048116D01*
X0270505Y0047518D02*
X0245143Y0047518D01*
X0245143Y0046919D02*
X0270505Y0046919D01*
X0270505Y0046321D02*
X0245139Y0046321D01*
X0245143Y0046330D02*
X0245143Y0106905D01*
X0243727Y0110323D01*
X0241111Y0112939D01*
X0236111Y0117939D01*
X0232693Y0119355D01*
X0228993Y0119355D01*
X0225575Y0117939D01*
X0225143Y0117507D01*
X0225143Y0161203D01*
X0238727Y0174787D01*
X0240143Y0178205D01*
X0240143Y0181905D01*
X0238727Y0185323D01*
X0236111Y0187939D01*
X0232693Y0189355D01*
X0228993Y0189355D01*
X0225575Y0187939D01*
X0210575Y0172939D01*
X0207959Y0170323D01*
X0206543Y0166905D01*
X0206543Y0117507D01*
X0206111Y0117939D01*
X0202693Y0119355D01*
X0198993Y0119355D01*
X0195575Y0117939D01*
X0190575Y0112939D01*
X0187959Y0110323D01*
X0186543Y0106905D01*
X0186543Y0046330D01*
X0187705Y0043526D01*
X0187705Y0042723D01*
X0188944Y0039731D01*
X0191233Y0037442D01*
X0194224Y0036203D01*
X0197462Y0036203D01*
X0200453Y0037442D01*
X0202743Y0039731D01*
X0203982Y0042723D01*
X0203982Y0043526D01*
X0205143Y0046330D01*
X0205143Y0101203D01*
X0206543Y0102603D01*
X0206543Y0046330D01*
X0207705Y0043526D01*
X0207705Y0042723D01*
X0208944Y0039731D01*
X0211233Y0037442D01*
X0214224Y0036203D01*
X0217462Y0036203D01*
X0220453Y0037442D01*
X0222743Y0039731D01*
X0223982Y0042723D01*
X0223982Y0043526D01*
X0225143Y0046330D01*
X0225143Y0102603D01*
X0226543Y0101203D01*
X0226543Y0046330D01*
X0227705Y0043526D01*
X0227705Y0042723D01*
X0228944Y0039731D01*
X0231233Y0037442D01*
X0234224Y0036203D01*
X0237462Y0036203D01*
X0240453Y0037442D01*
X0242743Y0039731D01*
X0243982Y0042723D01*
X0243982Y0043526D01*
X0245143Y0046330D01*
X0244891Y0045722D02*
X0270505Y0045722D01*
X0270505Y0045124D02*
X0244643Y0045124D01*
X0244396Y0044525D02*
X0270505Y0044525D01*
X0270505Y0043927D02*
X0244148Y0043927D01*
X0243982Y0043328D02*
X0270505Y0043328D01*
X0270732Y0042730D02*
X0243982Y0042730D01*
X0243737Y0042131D02*
X0270980Y0042131D01*
X0271228Y0041533D02*
X0243489Y0041533D01*
X0243241Y0040934D02*
X0271701Y0040934D01*
X0272299Y0040336D02*
X0242993Y0040336D01*
X0242745Y0039737D02*
X0273008Y0039737D01*
X0274453Y0039139D02*
X0242150Y0039139D01*
X0241552Y0038540D02*
X0339608Y0038540D01*
X0339173Y0037942D02*
X0240953Y0037942D01*
X0240215Y0037343D02*
X0338738Y0037343D01*
X0337998Y0036745D02*
X0238770Y0036745D01*
X0232916Y0036745D02*
X0218770Y0036745D01*
X0220215Y0037343D02*
X0231471Y0037343D01*
X0230733Y0037942D02*
X0220953Y0037942D01*
X0221552Y0038540D02*
X0230135Y0038540D01*
X0229536Y0039139D02*
X0222150Y0039139D01*
X0222745Y0039737D02*
X0228941Y0039737D01*
X0228693Y0040336D02*
X0222993Y0040336D01*
X0223241Y0040934D02*
X0228445Y0040934D01*
X0228197Y0041533D02*
X0223489Y0041533D01*
X0223737Y0042131D02*
X0227950Y0042131D01*
X0227705Y0042730D02*
X0223982Y0042730D01*
X0223982Y0043328D02*
X0227705Y0043328D01*
X0227539Y0043927D02*
X0224148Y0043927D01*
X0224396Y0044525D02*
X0227291Y0044525D01*
X0227043Y0045124D02*
X0224643Y0045124D01*
X0224891Y0045722D02*
X0226795Y0045722D01*
X0226547Y0046321D02*
X0225139Y0046321D01*
X0225143Y0046919D02*
X0226543Y0046919D01*
X0226543Y0047518D02*
X0225143Y0047518D01*
X0225143Y0048116D02*
X0226543Y0048116D01*
X0226543Y0048715D02*
X0225143Y0048715D01*
X0225143Y0049313D02*
X0226543Y0049313D01*
X0226543Y0049912D02*
X0225143Y0049912D01*
X0225143Y0050510D02*
X0226543Y0050510D01*
X0226543Y0051109D02*
X0225143Y0051109D01*
X0225143Y0051707D02*
X0226543Y0051707D01*
X0226543Y0052306D02*
X0225143Y0052306D01*
X0225143Y0052904D02*
X0226543Y0052904D01*
X0226543Y0053503D02*
X0225143Y0053503D01*
X0225143Y0054102D02*
X0226543Y0054102D01*
X0226543Y0054700D02*
X0225143Y0054700D01*
X0225143Y0055299D02*
X0226543Y0055299D01*
X0226543Y0055897D02*
X0225143Y0055897D01*
X0225143Y0056496D02*
X0226543Y0056496D01*
X0226543Y0057094D02*
X0225143Y0057094D01*
X0225143Y0057693D02*
X0226543Y0057693D01*
X0226543Y0058291D02*
X0225143Y0058291D01*
X0225143Y0058890D02*
X0226543Y0058890D01*
X0226543Y0059488D02*
X0225143Y0059488D01*
X0225143Y0060087D02*
X0226543Y0060087D01*
X0226543Y0060685D02*
X0225143Y0060685D01*
X0225143Y0061284D02*
X0226543Y0061284D01*
X0226543Y0061882D02*
X0225143Y0061882D01*
X0225143Y0062481D02*
X0226543Y0062481D01*
X0226543Y0063079D02*
X0225143Y0063079D01*
X0225143Y0063678D02*
X0226543Y0063678D01*
X0226543Y0064276D02*
X0225143Y0064276D01*
X0225143Y0064875D02*
X0226543Y0064875D01*
X0226543Y0065473D02*
X0225143Y0065473D01*
X0225143Y0066072D02*
X0226543Y0066072D01*
X0226543Y0066670D02*
X0225143Y0066670D01*
X0225143Y0067269D02*
X0226543Y0067269D01*
X0226543Y0067867D02*
X0225143Y0067867D01*
X0225143Y0068466D02*
X0226543Y0068466D01*
X0226543Y0069064D02*
X0225143Y0069064D01*
X0225143Y0069663D02*
X0226543Y0069663D01*
X0226543Y0070261D02*
X0225143Y0070261D01*
X0225143Y0070860D02*
X0226543Y0070860D01*
X0226543Y0071458D02*
X0225143Y0071458D01*
X0225143Y0072057D02*
X0226543Y0072057D01*
X0226543Y0072655D02*
X0225143Y0072655D01*
X0225143Y0073254D02*
X0226543Y0073254D01*
X0226543Y0073852D02*
X0225143Y0073852D01*
X0225143Y0074451D02*
X0226543Y0074451D01*
X0226543Y0075049D02*
X0225143Y0075049D01*
X0225143Y0075648D02*
X0226543Y0075648D01*
X0226543Y0076246D02*
X0225143Y0076246D01*
X0225143Y0076845D02*
X0226543Y0076845D01*
X0226543Y0077443D02*
X0225143Y0077443D01*
X0225143Y0078042D02*
X0226543Y0078042D01*
X0226543Y0078640D02*
X0225143Y0078640D01*
X0225143Y0079239D02*
X0226543Y0079239D01*
X0226543Y0079838D02*
X0225143Y0079838D01*
X0225143Y0080436D02*
X0226543Y0080436D01*
X0226543Y0081035D02*
X0225143Y0081035D01*
X0225143Y0081633D02*
X0226543Y0081633D01*
X0226543Y0082232D02*
X0225143Y0082232D01*
X0225143Y0082830D02*
X0226543Y0082830D01*
X0226543Y0083429D02*
X0225143Y0083429D01*
X0225143Y0084027D02*
X0226543Y0084027D01*
X0226543Y0084626D02*
X0225143Y0084626D01*
X0225143Y0085224D02*
X0226543Y0085224D01*
X0226543Y0085823D02*
X0225143Y0085823D01*
X0225143Y0086421D02*
X0226543Y0086421D01*
X0226543Y0087020D02*
X0225143Y0087020D01*
X0225143Y0087618D02*
X0226543Y0087618D01*
X0226543Y0088217D02*
X0225143Y0088217D01*
X0225143Y0088815D02*
X0226543Y0088815D01*
X0226543Y0089414D02*
X0225143Y0089414D01*
X0225143Y0090012D02*
X0226543Y0090012D01*
X0226543Y0090611D02*
X0225143Y0090611D01*
X0225143Y0091209D02*
X0226543Y0091209D01*
X0226543Y0091808D02*
X0225143Y0091808D01*
X0225143Y0092406D02*
X0226543Y0092406D01*
X0226543Y0093005D02*
X0225143Y0093005D01*
X0225143Y0093603D02*
X0226543Y0093603D01*
X0226543Y0094202D02*
X0225143Y0094202D01*
X0225143Y0094800D02*
X0226543Y0094800D01*
X0226543Y0095399D02*
X0225143Y0095399D01*
X0225143Y0095997D02*
X0226543Y0095997D01*
X0226543Y0096596D02*
X0225143Y0096596D01*
X0225143Y0097194D02*
X0226543Y0097194D01*
X0226543Y0097793D02*
X0225143Y0097793D01*
X0225143Y0098391D02*
X0226543Y0098391D01*
X0226543Y0098990D02*
X0225143Y0098990D01*
X0225143Y0099588D02*
X0226543Y0099588D01*
X0226543Y0100187D02*
X0225143Y0100187D01*
X0225143Y0100785D02*
X0226543Y0100785D01*
X0226362Y0101384D02*
X0225143Y0101384D01*
X0225143Y0101982D02*
X0225764Y0101982D01*
X0225165Y0102581D02*
X0225143Y0102581D01*
X0239499Y0114551D02*
X0341607Y0114551D01*
X0341607Y0113953D02*
X0240098Y0113953D01*
X0240696Y0113354D02*
X0341607Y0113354D01*
X0341607Y0112756D02*
X0241295Y0112756D01*
X0241893Y0112157D02*
X0341607Y0112157D01*
X0341607Y0111559D02*
X0242492Y0111559D01*
X0243090Y0110960D02*
X0341607Y0110960D01*
X0341607Y0110362D02*
X0243689Y0110362D01*
X0243959Y0109763D02*
X0341607Y0109763D01*
X0341607Y0109165D02*
X0244207Y0109165D01*
X0244455Y0108566D02*
X0341607Y0108566D01*
X0341607Y0107968D02*
X0288636Y0107968D01*
X0288952Y0107837D02*
X0287746Y0108336D01*
X0286441Y0108336D01*
X0285235Y0107837D01*
X0284312Y0106914D01*
X0283812Y0105708D01*
X0283812Y0104402D01*
X0284312Y0103197D01*
X0284793Y0102715D01*
X0284793Y0098020D01*
X0284312Y0097539D01*
X0283812Y0096333D01*
X0283812Y0095027D01*
X0284312Y0093822D01*
X0285235Y0092899D01*
X0286441Y0092399D01*
X0287746Y0092399D01*
X0288952Y0092899D01*
X0289875Y0093822D01*
X0290374Y0095027D01*
X0290374Y0096333D01*
X0289875Y0097539D01*
X0289393Y0098020D01*
X0289393Y0102715D01*
X0289875Y0103197D01*
X0290374Y0104402D01*
X0290374Y0105708D01*
X0289875Y0106914D01*
X0288952Y0107837D01*
X0289419Y0107369D02*
X0341607Y0107369D01*
X0341607Y0106771D02*
X0289934Y0106771D01*
X0290182Y0106172D02*
X0341607Y0106172D01*
X0341607Y0105573D02*
X0290374Y0105573D01*
X0290374Y0104975D02*
X0341607Y0104975D01*
X0341607Y0104376D02*
X0290363Y0104376D01*
X0290116Y0103778D02*
X0341607Y0103778D01*
X0341607Y0103179D02*
X0289858Y0103179D01*
X0289393Y0102581D02*
X0341607Y0102581D01*
X0341607Y0101982D02*
X0289393Y0101982D01*
X0289393Y0101384D02*
X0341607Y0101384D01*
X0341607Y0100785D02*
X0289393Y0100785D01*
X0289393Y0100187D02*
X0341607Y0100187D01*
X0341607Y0099588D02*
X0289393Y0099588D01*
X0289393Y0098990D02*
X0341607Y0098990D01*
X0341607Y0098391D02*
X0289393Y0098391D01*
X0289621Y0097793D02*
X0341607Y0097793D01*
X0341607Y0097194D02*
X0290017Y0097194D01*
X0290265Y0096596D02*
X0341607Y0096596D01*
X0341607Y0095997D02*
X0290374Y0095997D01*
X0290374Y0095399D02*
X0341607Y0095399D01*
X0341607Y0094800D02*
X0290280Y0094800D01*
X0290032Y0094202D02*
X0341607Y0094202D01*
X0341607Y0093603D02*
X0289656Y0093603D01*
X0289058Y0093005D02*
X0341607Y0093005D01*
X0341607Y0092406D02*
X0287763Y0092406D01*
X0286423Y0092406D02*
X0245143Y0092406D01*
X0245143Y0091808D02*
X0341607Y0091808D01*
X0341607Y0091209D02*
X0245143Y0091209D01*
X0245143Y0090611D02*
X0341607Y0090611D01*
X0341607Y0115150D02*
X0238901Y0115150D01*
X0238302Y0115748D02*
X0341607Y0115748D01*
X0341607Y0116347D02*
X0237704Y0116347D01*
X0237105Y0116945D02*
X0341607Y0116945D01*
X0341607Y0117544D02*
X0236507Y0117544D01*
X0235621Y0118142D02*
X0341607Y0118142D01*
X0341607Y0118741D02*
X0234176Y0118741D01*
X0232731Y0119339D02*
X0341607Y0119339D01*
X0341607Y0119938D02*
X0225143Y0119938D01*
X0225143Y0120536D02*
X0341607Y0120536D01*
X0341607Y0121135D02*
X0225143Y0121135D01*
X0225143Y0121733D02*
X0341607Y0121733D01*
X0341607Y0122332D02*
X0225143Y0122332D01*
X0225143Y0122930D02*
X0341607Y0122930D01*
X0341607Y0123529D02*
X0225143Y0123529D01*
X0225143Y0124127D02*
X0341607Y0124127D01*
X0341607Y0124726D02*
X0232185Y0124726D01*
X0231925Y0124618D02*
X0233923Y0125446D01*
X0235452Y0126975D01*
X0236280Y0128974D01*
X0236280Y0131137D01*
X0235452Y0133135D01*
X0233923Y0134664D01*
X0233543Y0134822D01*
X0233543Y0146865D01*
X0233625Y0146947D01*
X0234124Y0148152D01*
X0234124Y0149458D01*
X0233625Y0150664D01*
X0232702Y0151587D01*
X0231496Y0152086D01*
X0230191Y0152086D01*
X0228985Y0151587D01*
X0228062Y0150664D01*
X0227562Y0149458D01*
X0227562Y0148152D01*
X0228062Y0146947D01*
X0228143Y0146865D01*
X0228143Y0134822D01*
X0227763Y0134664D01*
X0226234Y0133135D01*
X0225406Y0131137D01*
X0225406Y0128974D01*
X0226234Y0126975D01*
X0227763Y0125446D01*
X0229762Y0124618D01*
X0231925Y0124618D01*
X0233630Y0125324D02*
X0341607Y0125324D01*
X0341607Y0125923D02*
X0234400Y0125923D01*
X0234999Y0126521D02*
X0341607Y0126521D01*
X0341607Y0127120D02*
X0235512Y0127120D01*
X0235760Y0127718D02*
X0341607Y0127718D01*
X0341607Y0128317D02*
X0236008Y0128317D01*
X0236256Y0128915D02*
X0341607Y0128915D01*
X0341607Y0129514D02*
X0236280Y0129514D01*
X0236280Y0130112D02*
X0341607Y0130112D01*
X0341607Y0130711D02*
X0254447Y0130711D01*
X0253996Y0130524D02*
X0255202Y0131024D01*
X0256125Y0131947D01*
X0256624Y0133152D01*
X0256624Y0134458D01*
X0256125Y0135664D01*
X0255202Y0136587D01*
X0253996Y0137086D01*
X0253315Y0137086D01*
X0245643Y0144758D01*
X0245643Y0148965D01*
X0246125Y0149447D01*
X0246624Y0150652D01*
X0246624Y0151958D01*
X0246125Y0153164D01*
X0245202Y0154087D01*
X0243996Y0154586D01*
X0242691Y0154586D01*
X0241485Y0154087D01*
X0240562Y0153164D01*
X0240062Y0151958D01*
X0240062Y0150652D01*
X0240562Y0149447D01*
X0241043Y0148965D01*
X0241043Y0142852D01*
X0250062Y0133834D01*
X0250062Y0133152D01*
X0250562Y0131947D01*
X0251485Y0131024D01*
X0252691Y0130524D01*
X0253996Y0130524D01*
X0255488Y0131309D02*
X0341607Y0131309D01*
X0341607Y0131908D02*
X0256086Y0131908D01*
X0256357Y0132506D02*
X0341607Y0132506D01*
X0341607Y0133105D02*
X0256605Y0133105D01*
X0256624Y0133704D02*
X0341607Y0133704D01*
X0341607Y0134302D02*
X0256624Y0134302D01*
X0256441Y0134901D02*
X0341607Y0134901D01*
X0341607Y0135499D02*
X0256193Y0135499D01*
X0255691Y0136098D02*
X0341607Y0136098D01*
X0341607Y0136696D02*
X0254938Y0136696D01*
X0253106Y0137295D02*
X0341607Y0137295D01*
X0341607Y0137893D02*
X0252508Y0137893D01*
X0251909Y0138492D02*
X0341607Y0138492D01*
X0341607Y0139090D02*
X0251311Y0139090D01*
X0250712Y0139689D02*
X0341607Y0139689D01*
X0341607Y0140287D02*
X0250114Y0140287D01*
X0249515Y0140886D02*
X0341607Y0140886D01*
X0341607Y0141484D02*
X0248917Y0141484D01*
X0248318Y0142083D02*
X0341607Y0142083D01*
X0341607Y0142681D02*
X0247720Y0142681D01*
X0247121Y0143280D02*
X0341607Y0143280D01*
X0341607Y0143878D02*
X0246523Y0143878D01*
X0245924Y0144477D02*
X0341607Y0144477D01*
X0341607Y0145075D02*
X0245643Y0145075D01*
X0245643Y0145674D02*
X0341607Y0145674D01*
X0341607Y0146272D02*
X0245643Y0146272D01*
X0245643Y0146871D02*
X0341607Y0146871D01*
X0341607Y0147469D02*
X0245643Y0147469D01*
X0245643Y0148068D02*
X0341607Y0148068D01*
X0341607Y0148666D02*
X0245643Y0148666D01*
X0245943Y0149265D02*
X0341607Y0149265D01*
X0341607Y0149863D02*
X0246297Y0149863D01*
X0246545Y0150462D02*
X0341607Y0150462D01*
X0341607Y0151060D02*
X0246624Y0151060D01*
X0246624Y0151659D02*
X0341607Y0151659D01*
X0341607Y0152257D02*
X0246500Y0152257D01*
X0246252Y0152856D02*
X0341607Y0152856D01*
X0341607Y0153454D02*
X0245834Y0153454D01*
X0245236Y0154053D02*
X0341607Y0154053D01*
X0341607Y0154651D02*
X0225143Y0154651D01*
X0225143Y0154053D02*
X0241451Y0154053D01*
X0240852Y0153454D02*
X0225143Y0153454D01*
X0225143Y0152856D02*
X0240434Y0152856D01*
X0240186Y0152257D02*
X0225143Y0152257D01*
X0225143Y0151659D02*
X0229159Y0151659D01*
X0228458Y0151060D02*
X0225143Y0151060D01*
X0225143Y0150462D02*
X0227978Y0150462D01*
X0227730Y0149863D02*
X0225143Y0149863D01*
X0225143Y0149265D02*
X0227562Y0149265D01*
X0227562Y0148666D02*
X0225143Y0148666D01*
X0225143Y0148068D02*
X0227597Y0148068D01*
X0227845Y0147469D02*
X0225143Y0147469D01*
X0225143Y0146871D02*
X0228137Y0146871D01*
X0228143Y0146272D02*
X0225143Y0146272D01*
X0225143Y0145674D02*
X0228143Y0145674D01*
X0228143Y0145075D02*
X0225143Y0145075D01*
X0225143Y0144477D02*
X0228143Y0144477D01*
X0228143Y0143878D02*
X0225143Y0143878D01*
X0225143Y0143280D02*
X0228143Y0143280D01*
X0228143Y0142681D02*
X0225143Y0142681D01*
X0225143Y0142083D02*
X0228143Y0142083D01*
X0228143Y0141484D02*
X0225143Y0141484D01*
X0225143Y0140886D02*
X0228143Y0140886D01*
X0228143Y0140287D02*
X0225143Y0140287D01*
X0225143Y0139689D02*
X0228143Y0139689D01*
X0228143Y0139090D02*
X0225143Y0139090D01*
X0225143Y0138492D02*
X0228143Y0138492D01*
X0228143Y0137893D02*
X0225143Y0137893D01*
X0225143Y0137295D02*
X0228143Y0137295D01*
X0228143Y0136696D02*
X0225143Y0136696D01*
X0225143Y0136098D02*
X0228143Y0136098D01*
X0228143Y0135499D02*
X0225143Y0135499D01*
X0225143Y0134901D02*
X0228143Y0134901D01*
X0227401Y0134302D02*
X0225143Y0134302D01*
X0225143Y0133704D02*
X0226802Y0133704D01*
X0226222Y0133105D02*
X0225143Y0133105D01*
X0225143Y0132506D02*
X0225974Y0132506D01*
X0225726Y0131908D02*
X0225143Y0131908D01*
X0225143Y0131309D02*
X0225478Y0131309D01*
X0225406Y0130711D02*
X0225143Y0130711D01*
X0225143Y0130112D02*
X0225406Y0130112D01*
X0225406Y0129514D02*
X0225143Y0129514D01*
X0225143Y0128915D02*
X0225430Y0128915D01*
X0225678Y0128317D02*
X0225143Y0128317D01*
X0225143Y0127718D02*
X0225926Y0127718D01*
X0226174Y0127120D02*
X0225143Y0127120D01*
X0225143Y0126521D02*
X0226688Y0126521D01*
X0227286Y0125923D02*
X0225143Y0125923D01*
X0225143Y0125324D02*
X0228057Y0125324D01*
X0229502Y0124726D02*
X0225143Y0124726D01*
X0225143Y0119339D02*
X0228955Y0119339D01*
X0227510Y0118741D02*
X0225143Y0118741D01*
X0225143Y0118142D02*
X0226065Y0118142D01*
X0225180Y0117544D02*
X0225143Y0117544D01*
X0236280Y0130711D02*
X0252239Y0130711D01*
X0251199Y0131309D02*
X0236209Y0131309D01*
X0235961Y0131908D02*
X0250600Y0131908D01*
X0250330Y0132506D02*
X0235713Y0132506D01*
X0235465Y0133105D02*
X0250082Y0133105D01*
X0250062Y0133704D02*
X0234884Y0133704D01*
X0234285Y0134302D02*
X0249594Y0134302D01*
X0248995Y0134901D02*
X0233543Y0134901D01*
X0233543Y0135499D02*
X0248397Y0135499D01*
X0247798Y0136098D02*
X0233543Y0136098D01*
X0233543Y0136696D02*
X0247200Y0136696D01*
X0246601Y0137295D02*
X0233543Y0137295D01*
X0233543Y0137893D02*
X0246002Y0137893D01*
X0245404Y0138492D02*
X0233543Y0138492D01*
X0233543Y0139090D02*
X0244805Y0139090D01*
X0244207Y0139689D02*
X0233543Y0139689D01*
X0233543Y0140287D02*
X0243608Y0140287D01*
X0243010Y0140886D02*
X0233543Y0140886D01*
X0233543Y0141484D02*
X0242411Y0141484D01*
X0241813Y0142083D02*
X0233543Y0142083D01*
X0233543Y0142681D02*
X0241214Y0142681D01*
X0241043Y0143280D02*
X0233543Y0143280D01*
X0233543Y0143878D02*
X0241043Y0143878D01*
X0241043Y0144477D02*
X0233543Y0144477D01*
X0233543Y0145075D02*
X0241043Y0145075D01*
X0241043Y0145674D02*
X0233543Y0145674D01*
X0233543Y0146272D02*
X0241043Y0146272D01*
X0241043Y0146871D02*
X0233549Y0146871D01*
X0233841Y0147469D02*
X0241043Y0147469D01*
X0241043Y0148068D02*
X0234089Y0148068D01*
X0234124Y0148666D02*
X0241043Y0148666D01*
X0240743Y0149265D02*
X0234124Y0149265D01*
X0233956Y0149863D02*
X0240389Y0149863D01*
X0240141Y0150462D02*
X0233708Y0150462D01*
X0233228Y0151060D02*
X0240062Y0151060D01*
X0240062Y0151659D02*
X0232527Y0151659D01*
X0225143Y0155250D02*
X0341607Y0155250D01*
X0341607Y0155848D02*
X0225143Y0155848D01*
X0225143Y0156447D02*
X0341607Y0156447D01*
X0341607Y0157045D02*
X0225143Y0157045D01*
X0225143Y0157644D02*
X0341607Y0157644D01*
X0341607Y0158242D02*
X0225143Y0158242D01*
X0225143Y0158841D02*
X0341607Y0158841D01*
X0341607Y0159440D02*
X0225143Y0159440D01*
X0225143Y0160038D02*
X0341607Y0160038D01*
X0341607Y0160637D02*
X0225143Y0160637D01*
X0225175Y0161235D02*
X0341607Y0161235D01*
X0341607Y0161834D02*
X0225774Y0161834D01*
X0226372Y0162432D02*
X0341607Y0162432D01*
X0341607Y0163031D02*
X0226971Y0163031D01*
X0227569Y0163629D02*
X0341607Y0163629D01*
X0341607Y0164228D02*
X0228168Y0164228D01*
X0228766Y0164826D02*
X0341607Y0164826D01*
X0341607Y0165425D02*
X0229365Y0165425D01*
X0229963Y0166023D02*
X0341607Y0166023D01*
X0341607Y0166622D02*
X0230562Y0166622D01*
X0231160Y0167220D02*
X0341607Y0167220D01*
X0341607Y0167819D02*
X0231759Y0167819D01*
X0232357Y0168417D02*
X0341607Y0168417D01*
X0341607Y0169016D02*
X0232956Y0169016D01*
X0233554Y0169614D02*
X0341607Y0169614D01*
X0341607Y0170213D02*
X0234153Y0170213D01*
X0234751Y0170811D02*
X0341607Y0170811D01*
X0341607Y0171410D02*
X0235350Y0171410D01*
X0235948Y0172008D02*
X0249625Y0172008D01*
X0250191Y0171774D02*
X0251496Y0171774D01*
X0252702Y0172274D01*
X0253625Y0173197D01*
X0254124Y0174402D01*
X0270062Y0174402D01*
X0270562Y0173197D01*
X0271485Y0172274D01*
X0272691Y0171774D01*
X0273996Y0171774D01*
X0275202Y0172274D01*
X0275683Y0172755D01*
X0289753Y0172755D01*
X0290235Y0172274D01*
X0291441Y0171774D01*
X0292746Y0171774D01*
X0293952Y0172274D01*
X0294875Y0173197D01*
X0295374Y0174402D01*
X0341607Y0174402D01*
X0341607Y0173804D02*
X0295126Y0173804D01*
X0295374Y0174402D02*
X0295374Y0175708D01*
X0294875Y0176914D01*
X0293952Y0177837D01*
X0292746Y0178336D01*
X0291441Y0178336D01*
X0290235Y0177837D01*
X0289753Y0177355D01*
X0275683Y0177355D01*
X0275202Y0177837D01*
X0273996Y0178336D01*
X0272691Y0178336D01*
X0271485Y0177837D01*
X0270562Y0176914D01*
X0270062Y0175708D01*
X0270062Y0174402D01*
X0270062Y0175001D02*
X0254124Y0175001D01*
X0254124Y0175599D02*
X0270062Y0175599D01*
X0270265Y0176198D02*
X0253921Y0176198D01*
X0254124Y0175708D02*
X0253625Y0176914D01*
X0253143Y0177395D01*
X0253143Y0180215D01*
X0253625Y0180697D01*
X0254124Y0181902D01*
X0254124Y0183208D01*
X0253625Y0184414D01*
X0252702Y0185337D01*
X0251496Y0185836D01*
X0250191Y0185836D01*
X0248985Y0185337D01*
X0248062Y0184414D01*
X0247562Y0183208D01*
X0247562Y0181902D01*
X0248062Y0180697D01*
X0248543Y0180215D01*
X0248543Y0177395D01*
X0239807Y0177395D01*
X0239560Y0176796D02*
X0248013Y0176796D01*
X0248062Y0176914D02*
X0247562Y0175708D01*
X0247562Y0174402D01*
X0238343Y0174402D01*
X0238816Y0175001D02*
X0247562Y0175001D01*
X0247562Y0175599D02*
X0239064Y0175599D01*
X0239312Y0176198D02*
X0247765Y0176198D01*
X0248062Y0176914D02*
X0248543Y0177395D01*
X0248543Y0177993D02*
X0240055Y0177993D01*
X0240143Y0178592D02*
X0248543Y0178592D01*
X0248543Y0179190D02*
X0240143Y0179190D01*
X0240143Y0179789D02*
X0248543Y0179789D01*
X0248371Y0180387D02*
X0240143Y0180387D01*
X0240143Y0180986D02*
X0247942Y0180986D01*
X0247694Y0181584D02*
X0240143Y0181584D01*
X0240028Y0182183D02*
X0247562Y0182183D01*
X0247562Y0182781D02*
X0239780Y0182781D01*
X0239532Y0183380D02*
X0247633Y0183380D01*
X0247881Y0183978D02*
X0239284Y0183978D01*
X0239036Y0184577D02*
X0248225Y0184577D01*
X0248823Y0185175D02*
X0238788Y0185175D01*
X0238276Y0185774D02*
X0250040Y0185774D01*
X0251646Y0185774D02*
X0341607Y0185774D01*
X0341607Y0185175D02*
X0252863Y0185175D01*
X0253461Y0184577D02*
X0341607Y0184577D01*
X0341607Y0183978D02*
X0253805Y0183978D01*
X0254053Y0183380D02*
X0341607Y0183380D01*
X0341607Y0182781D02*
X0254124Y0182781D01*
X0254124Y0182183D02*
X0341607Y0182183D01*
X0341607Y0181584D02*
X0253993Y0181584D01*
X0253745Y0180986D02*
X0341607Y0180986D01*
X0341607Y0180387D02*
X0253316Y0180387D01*
X0253143Y0179789D02*
X0341607Y0179789D01*
X0341607Y0179190D02*
X0253143Y0179190D01*
X0253143Y0178592D02*
X0341607Y0178592D01*
X0341607Y0177993D02*
X0293574Y0177993D01*
X0294394Y0177395D02*
X0341607Y0177395D01*
X0341607Y0176796D02*
X0294923Y0176796D01*
X0295171Y0176198D02*
X0341607Y0176198D01*
X0341607Y0175599D02*
X0295374Y0175599D01*
X0295374Y0175001D02*
X0341607Y0175001D01*
X0341607Y0173205D02*
X0294878Y0173205D01*
X0294285Y0172607D02*
X0341607Y0172607D01*
X0341607Y0172008D02*
X0293311Y0172008D01*
X0290875Y0172008D02*
X0274561Y0172008D01*
X0275535Y0172607D02*
X0289901Y0172607D01*
X0289793Y0177395D02*
X0275644Y0177395D01*
X0274824Y0177993D02*
X0290613Y0177993D01*
X0271863Y0177993D02*
X0253143Y0177993D01*
X0253144Y0177395D02*
X0271043Y0177395D01*
X0270513Y0176796D02*
X0253673Y0176796D01*
X0254124Y0175708D02*
X0254124Y0174402D01*
X0253876Y0173804D02*
X0270310Y0173804D01*
X0270558Y0173205D02*
X0253628Y0173205D01*
X0253035Y0172607D02*
X0271151Y0172607D01*
X0272125Y0172008D02*
X0252061Y0172008D01*
X0250191Y0171774D02*
X0248985Y0172274D01*
X0248062Y0173197D01*
X0247562Y0174402D01*
X0247810Y0173804D02*
X0237744Y0173804D01*
X0237146Y0173205D02*
X0248058Y0173205D01*
X0248651Y0172607D02*
X0236547Y0172607D01*
X0220417Y0182781D02*
X0179780Y0182781D01*
X0180028Y0182183D02*
X0219819Y0182183D01*
X0219220Y0181584D02*
X0180143Y0181584D01*
X0180143Y0181905D02*
X0178727Y0185323D01*
X0176111Y0187939D01*
X0172693Y0189355D01*
X0168993Y0189355D01*
X0165575Y0187939D01*
X0150575Y0172939D01*
X0147959Y0170323D01*
X0146543Y0166905D01*
X0146543Y0117507D01*
X0146111Y0117939D01*
X0142693Y0119355D01*
X0138993Y0119355D01*
X0135575Y0117939D01*
X0130575Y0112939D01*
X0127959Y0110323D01*
X0126543Y0106905D01*
X0126543Y0046330D01*
X0127705Y0043526D01*
X0127705Y0042723D01*
X0128944Y0039731D01*
X0131233Y0037442D01*
X0134224Y0036203D01*
X0137462Y0036203D01*
X0140453Y0037442D01*
X0142743Y0039731D01*
X0143982Y0042723D01*
X0143982Y0043526D01*
X0145143Y0046330D01*
X0145143Y0101203D01*
X0146543Y0102603D01*
X0146543Y0046330D01*
X0147705Y0043526D01*
X0147705Y0042723D01*
X0148944Y0039731D01*
X0151233Y0037442D01*
X0154224Y0036203D01*
X0157462Y0036203D01*
X0160453Y0037442D01*
X0162743Y0039731D01*
X0163982Y0042723D01*
X0163982Y0043526D01*
X0165143Y0046330D01*
X0165143Y0102603D01*
X0166543Y0101203D01*
X0166543Y0046330D01*
X0167705Y0043526D01*
X0167705Y0042723D01*
X0168944Y0039731D01*
X0171233Y0037442D01*
X0174224Y0036203D01*
X0177462Y0036203D01*
X0180453Y0037442D01*
X0182743Y0039731D01*
X0183982Y0042723D01*
X0183982Y0043526D01*
X0185143Y0046330D01*
X0185143Y0106905D01*
X0183727Y0110323D01*
X0181111Y0112939D01*
X0176111Y0117939D01*
X0172693Y0119355D01*
X0168993Y0119355D01*
X0165575Y0117939D01*
X0165143Y0117507D01*
X0165143Y0161203D01*
X0178727Y0174787D01*
X0180143Y0178205D01*
X0180143Y0181905D01*
X0180143Y0180986D02*
X0218622Y0180986D01*
X0218023Y0180387D02*
X0180143Y0180387D01*
X0180143Y0179789D02*
X0217425Y0179789D01*
X0216826Y0179190D02*
X0180143Y0179190D01*
X0180143Y0178592D02*
X0216228Y0178592D01*
X0215629Y0177993D02*
X0180055Y0177993D01*
X0179807Y0177395D02*
X0215031Y0177395D01*
X0214432Y0176796D02*
X0179560Y0176796D01*
X0179312Y0176198D02*
X0213834Y0176198D01*
X0213235Y0175599D02*
X0179064Y0175599D01*
X0178816Y0175001D02*
X0212637Y0175001D01*
X0212038Y0174402D02*
X0178343Y0174402D01*
X0177744Y0173804D02*
X0211440Y0173804D01*
X0210841Y0173205D02*
X0177146Y0173205D01*
X0176547Y0172607D02*
X0210243Y0172607D01*
X0209644Y0172008D02*
X0175948Y0172008D01*
X0175350Y0171410D02*
X0209046Y0171410D01*
X0208447Y0170811D02*
X0174751Y0170811D01*
X0174153Y0170213D02*
X0207913Y0170213D01*
X0207665Y0169614D02*
X0173554Y0169614D01*
X0172956Y0169016D02*
X0207417Y0169016D01*
X0207170Y0168417D02*
X0172357Y0168417D01*
X0171759Y0167819D02*
X0206922Y0167819D01*
X0206674Y0167220D02*
X0171160Y0167220D01*
X0170562Y0166622D02*
X0206543Y0166622D01*
X0206543Y0166023D02*
X0169963Y0166023D01*
X0169365Y0165425D02*
X0206543Y0165425D01*
X0206543Y0164826D02*
X0168766Y0164826D01*
X0168168Y0164228D02*
X0206543Y0164228D01*
X0206543Y0163629D02*
X0167569Y0163629D01*
X0166971Y0163031D02*
X0206543Y0163031D01*
X0206543Y0162432D02*
X0166372Y0162432D01*
X0165774Y0161834D02*
X0206543Y0161834D01*
X0206543Y0161235D02*
X0165175Y0161235D01*
X0165143Y0160637D02*
X0206543Y0160637D01*
X0206543Y0160038D02*
X0165143Y0160038D01*
X0165143Y0159440D02*
X0206543Y0159440D01*
X0206543Y0158841D02*
X0165143Y0158841D01*
X0165143Y0158242D02*
X0206543Y0158242D01*
X0206543Y0157644D02*
X0165143Y0157644D01*
X0165143Y0157045D02*
X0206543Y0157045D01*
X0206543Y0156447D02*
X0165143Y0156447D01*
X0165143Y0155848D02*
X0206543Y0155848D01*
X0206543Y0155250D02*
X0165143Y0155250D01*
X0165143Y0154651D02*
X0206543Y0154651D01*
X0206543Y0154053D02*
X0165143Y0154053D01*
X0165143Y0153454D02*
X0206543Y0153454D01*
X0206543Y0152856D02*
X0165143Y0152856D01*
X0165143Y0152257D02*
X0206543Y0152257D01*
X0206543Y0151659D02*
X0172527Y0151659D01*
X0172702Y0151587D02*
X0171496Y0152086D01*
X0170191Y0152086D01*
X0168985Y0151587D01*
X0168062Y0150664D01*
X0167562Y0149458D01*
X0167562Y0148152D01*
X0168062Y0146947D01*
X0168143Y0146865D01*
X0168143Y0134822D01*
X0167763Y0134664D01*
X0166234Y0133135D01*
X0165406Y0131137D01*
X0165406Y0128974D01*
X0166234Y0126975D01*
X0167763Y0125446D01*
X0169762Y0124618D01*
X0171925Y0124618D01*
X0173923Y0125446D01*
X0175452Y0126975D01*
X0176280Y0128974D01*
X0176280Y0131137D01*
X0175452Y0133135D01*
X0173923Y0134664D01*
X0173543Y0134822D01*
X0173543Y0146865D01*
X0173625Y0146947D01*
X0174124Y0148152D01*
X0174124Y0149458D01*
X0173625Y0150664D01*
X0172702Y0151587D01*
X0173228Y0151060D02*
X0206543Y0151060D01*
X0206543Y0150462D02*
X0173708Y0150462D01*
X0173956Y0149863D02*
X0206543Y0149863D01*
X0206543Y0149265D02*
X0174124Y0149265D01*
X0174124Y0148666D02*
X0206543Y0148666D01*
X0206543Y0148068D02*
X0174089Y0148068D01*
X0173841Y0147469D02*
X0206543Y0147469D01*
X0206543Y0146871D02*
X0173549Y0146871D01*
X0173543Y0146272D02*
X0206543Y0146272D01*
X0206543Y0145674D02*
X0173543Y0145674D01*
X0173543Y0145075D02*
X0206543Y0145075D01*
X0206543Y0144477D02*
X0173543Y0144477D01*
X0173543Y0143878D02*
X0206543Y0143878D01*
X0206543Y0143280D02*
X0173543Y0143280D01*
X0173543Y0142681D02*
X0206543Y0142681D01*
X0206543Y0142083D02*
X0173543Y0142083D01*
X0173543Y0141484D02*
X0206543Y0141484D01*
X0206543Y0140886D02*
X0173543Y0140886D01*
X0173543Y0140287D02*
X0206543Y0140287D01*
X0206543Y0139689D02*
X0173543Y0139689D01*
X0173543Y0139090D02*
X0206543Y0139090D01*
X0206543Y0138492D02*
X0173543Y0138492D01*
X0173543Y0137893D02*
X0206543Y0137893D01*
X0206543Y0137295D02*
X0173543Y0137295D01*
X0173543Y0136696D02*
X0206543Y0136696D01*
X0206543Y0136098D02*
X0173543Y0136098D01*
X0173543Y0135499D02*
X0206543Y0135499D01*
X0206543Y0134901D02*
X0203353Y0134901D01*
X0203923Y0134664D02*
X0201925Y0135492D01*
X0199762Y0135492D01*
X0197763Y0134664D01*
X0196234Y0133135D01*
X0195406Y0131137D01*
X0195406Y0128974D01*
X0196234Y0126975D01*
X0197763Y0125446D01*
X0199762Y0124618D01*
X0201925Y0124618D01*
X0203923Y0125446D01*
X0205452Y0126975D01*
X0206280Y0128974D01*
X0206280Y0131137D01*
X0205452Y0133135D01*
X0203923Y0134664D01*
X0204285Y0134302D02*
X0206543Y0134302D01*
X0206543Y0133704D02*
X0204884Y0133704D01*
X0205465Y0133105D02*
X0206543Y0133105D01*
X0206543Y0132506D02*
X0205713Y0132506D01*
X0205961Y0131908D02*
X0206543Y0131908D01*
X0206543Y0131309D02*
X0206209Y0131309D01*
X0206280Y0130711D02*
X0206543Y0130711D01*
X0206543Y0130112D02*
X0206280Y0130112D01*
X0206280Y0129514D02*
X0206543Y0129514D01*
X0206543Y0128915D02*
X0206256Y0128915D01*
X0206008Y0128317D02*
X0206543Y0128317D01*
X0206543Y0127718D02*
X0205760Y0127718D01*
X0205512Y0127120D02*
X0206543Y0127120D01*
X0206543Y0126521D02*
X0204999Y0126521D01*
X0204400Y0125923D02*
X0206543Y0125923D01*
X0206543Y0125324D02*
X0203630Y0125324D01*
X0202185Y0124726D02*
X0206543Y0124726D01*
X0206543Y0124127D02*
X0165143Y0124127D01*
X0165143Y0123529D02*
X0206543Y0123529D01*
X0206543Y0122930D02*
X0165143Y0122930D01*
X0165143Y0122332D02*
X0206543Y0122332D01*
X0206543Y0121733D02*
X0165143Y0121733D01*
X0165143Y0121135D02*
X0206543Y0121135D01*
X0206543Y0120536D02*
X0165143Y0120536D01*
X0165143Y0119938D02*
X0206543Y0119938D01*
X0206543Y0119339D02*
X0202731Y0119339D01*
X0204176Y0118741D02*
X0206543Y0118741D01*
X0206543Y0118142D02*
X0205621Y0118142D01*
X0206507Y0117544D02*
X0206543Y0117544D01*
X0198955Y0119339D02*
X0172731Y0119339D01*
X0174176Y0118741D02*
X0197510Y0118741D01*
X0196065Y0118142D02*
X0175621Y0118142D01*
X0176507Y0117544D02*
X0195180Y0117544D01*
X0194581Y0116945D02*
X0177105Y0116945D01*
X0177704Y0116347D02*
X0193983Y0116347D01*
X0193384Y0115748D02*
X0178302Y0115748D01*
X0178901Y0115150D02*
X0192786Y0115150D01*
X0192187Y0114551D02*
X0179499Y0114551D01*
X0180098Y0113953D02*
X0191589Y0113953D01*
X0190990Y0113354D02*
X0180696Y0113354D01*
X0181295Y0112756D02*
X0190391Y0112756D01*
X0189793Y0112157D02*
X0181893Y0112157D01*
X0182492Y0111559D02*
X0189194Y0111559D01*
X0188596Y0110960D02*
X0183090Y0110960D01*
X0183689Y0110362D02*
X0187997Y0110362D01*
X0187727Y0109763D02*
X0183959Y0109763D01*
X0184207Y0109165D02*
X0187479Y0109165D01*
X0187231Y0108566D02*
X0184455Y0108566D01*
X0184703Y0107968D02*
X0186983Y0107968D01*
X0186735Y0107369D02*
X0184951Y0107369D01*
X0185143Y0106771D02*
X0186543Y0106771D01*
X0186543Y0106172D02*
X0185143Y0106172D01*
X0185143Y0105573D02*
X0186543Y0105573D01*
X0186543Y0104975D02*
X0185143Y0104975D01*
X0185143Y0104376D02*
X0186543Y0104376D01*
X0186543Y0103778D02*
X0185143Y0103778D01*
X0185143Y0103179D02*
X0186543Y0103179D01*
X0186543Y0102581D02*
X0185143Y0102581D01*
X0185143Y0101982D02*
X0186543Y0101982D01*
X0186543Y0101384D02*
X0185143Y0101384D01*
X0185143Y0100785D02*
X0186543Y0100785D01*
X0186543Y0100187D02*
X0185143Y0100187D01*
X0185143Y0099588D02*
X0186543Y0099588D01*
X0186543Y0098990D02*
X0185143Y0098990D01*
X0185143Y0098391D02*
X0186543Y0098391D01*
X0186543Y0097793D02*
X0185143Y0097793D01*
X0185143Y0097194D02*
X0186543Y0097194D01*
X0186543Y0096596D02*
X0185143Y0096596D01*
X0185143Y0095997D02*
X0186543Y0095997D01*
X0186543Y0095399D02*
X0185143Y0095399D01*
X0185143Y0094800D02*
X0186543Y0094800D01*
X0186543Y0094202D02*
X0185143Y0094202D01*
X0185143Y0093603D02*
X0186543Y0093603D01*
X0186543Y0093005D02*
X0185143Y0093005D01*
X0185143Y0092406D02*
X0186543Y0092406D01*
X0186543Y0091808D02*
X0185143Y0091808D01*
X0185143Y0091209D02*
X0186543Y0091209D01*
X0186543Y0090611D02*
X0185143Y0090611D01*
X0185143Y0090012D02*
X0186543Y0090012D01*
X0186543Y0089414D02*
X0185143Y0089414D01*
X0185143Y0088815D02*
X0186543Y0088815D01*
X0186543Y0088217D02*
X0185143Y0088217D01*
X0185143Y0087618D02*
X0186543Y0087618D01*
X0186543Y0087020D02*
X0185143Y0087020D01*
X0185143Y0086421D02*
X0186543Y0086421D01*
X0186543Y0085823D02*
X0185143Y0085823D01*
X0185143Y0085224D02*
X0186543Y0085224D01*
X0186543Y0084626D02*
X0185143Y0084626D01*
X0185143Y0084027D02*
X0186543Y0084027D01*
X0186543Y0083429D02*
X0185143Y0083429D01*
X0185143Y0082830D02*
X0186543Y0082830D01*
X0186543Y0082232D02*
X0185143Y0082232D01*
X0185143Y0081633D02*
X0186543Y0081633D01*
X0186543Y0081035D02*
X0185143Y0081035D01*
X0185143Y0080436D02*
X0186543Y0080436D01*
X0186543Y0079838D02*
X0185143Y0079838D01*
X0185143Y0079239D02*
X0186543Y0079239D01*
X0186543Y0078640D02*
X0185143Y0078640D01*
X0185143Y0078042D02*
X0186543Y0078042D01*
X0186543Y0077443D02*
X0185143Y0077443D01*
X0185143Y0076845D02*
X0186543Y0076845D01*
X0186543Y0076246D02*
X0185143Y0076246D01*
X0185143Y0075648D02*
X0186543Y0075648D01*
X0186543Y0075049D02*
X0185143Y0075049D01*
X0185143Y0074451D02*
X0186543Y0074451D01*
X0186543Y0073852D02*
X0185143Y0073852D01*
X0185143Y0073254D02*
X0186543Y0073254D01*
X0186543Y0072655D02*
X0185143Y0072655D01*
X0185143Y0072057D02*
X0186543Y0072057D01*
X0186543Y0071458D02*
X0185143Y0071458D01*
X0185143Y0070860D02*
X0186543Y0070860D01*
X0186543Y0070261D02*
X0185143Y0070261D01*
X0185143Y0069663D02*
X0186543Y0069663D01*
X0186543Y0069064D02*
X0185143Y0069064D01*
X0185143Y0068466D02*
X0186543Y0068466D01*
X0186543Y0067867D02*
X0185143Y0067867D01*
X0185143Y0067269D02*
X0186543Y0067269D01*
X0186543Y0066670D02*
X0185143Y0066670D01*
X0185143Y0066072D02*
X0186543Y0066072D01*
X0186543Y0065473D02*
X0185143Y0065473D01*
X0185143Y0064875D02*
X0186543Y0064875D01*
X0186543Y0064276D02*
X0185143Y0064276D01*
X0185143Y0063678D02*
X0186543Y0063678D01*
X0186543Y0063079D02*
X0185143Y0063079D01*
X0185143Y0062481D02*
X0186543Y0062481D01*
X0186543Y0061882D02*
X0185143Y0061882D01*
X0185143Y0061284D02*
X0186543Y0061284D01*
X0186543Y0060685D02*
X0185143Y0060685D01*
X0185143Y0060087D02*
X0186543Y0060087D01*
X0186543Y0059488D02*
X0185143Y0059488D01*
X0185143Y0058890D02*
X0186543Y0058890D01*
X0186543Y0058291D02*
X0185143Y0058291D01*
X0185143Y0057693D02*
X0186543Y0057693D01*
X0186543Y0057094D02*
X0185143Y0057094D01*
X0185143Y0056496D02*
X0186543Y0056496D01*
X0186543Y0055897D02*
X0185143Y0055897D01*
X0185143Y0055299D02*
X0186543Y0055299D01*
X0186543Y0054700D02*
X0185143Y0054700D01*
X0185143Y0054102D02*
X0186543Y0054102D01*
X0186543Y0053503D02*
X0185143Y0053503D01*
X0185143Y0052904D02*
X0186543Y0052904D01*
X0186543Y0052306D02*
X0185143Y0052306D01*
X0185143Y0051707D02*
X0186543Y0051707D01*
X0186543Y0051109D02*
X0185143Y0051109D01*
X0185143Y0050510D02*
X0186543Y0050510D01*
X0186543Y0049912D02*
X0185143Y0049912D01*
X0185143Y0049313D02*
X0186543Y0049313D01*
X0186543Y0048715D02*
X0185143Y0048715D01*
X0185143Y0048116D02*
X0186543Y0048116D01*
X0186543Y0047518D02*
X0185143Y0047518D01*
X0185143Y0046919D02*
X0186543Y0046919D01*
X0186547Y0046321D02*
X0185139Y0046321D01*
X0184891Y0045722D02*
X0186795Y0045722D01*
X0187043Y0045124D02*
X0184643Y0045124D01*
X0184396Y0044525D02*
X0187291Y0044525D01*
X0187539Y0043927D02*
X0184148Y0043927D01*
X0183982Y0043328D02*
X0187705Y0043328D01*
X0187705Y0042730D02*
X0183982Y0042730D01*
X0183737Y0042131D02*
X0187950Y0042131D01*
X0188197Y0041533D02*
X0183489Y0041533D01*
X0183241Y0040934D02*
X0188445Y0040934D01*
X0188693Y0040336D02*
X0182993Y0040336D01*
X0182745Y0039737D02*
X0188941Y0039737D01*
X0189536Y0039139D02*
X0182150Y0039139D01*
X0181552Y0038540D02*
X0190135Y0038540D01*
X0190733Y0037942D02*
X0180953Y0037942D01*
X0180215Y0037343D02*
X0191471Y0037343D01*
X0192916Y0036745D02*
X0178770Y0036745D01*
X0172916Y0036745D02*
X0158770Y0036745D01*
X0160215Y0037343D02*
X0171471Y0037343D01*
X0170733Y0037942D02*
X0160953Y0037942D01*
X0161552Y0038540D02*
X0170135Y0038540D01*
X0169536Y0039139D02*
X0162150Y0039139D01*
X0162745Y0039737D02*
X0168941Y0039737D01*
X0168693Y0040336D02*
X0162993Y0040336D01*
X0163241Y0040934D02*
X0168445Y0040934D01*
X0168197Y0041533D02*
X0163489Y0041533D01*
X0163737Y0042131D02*
X0167950Y0042131D01*
X0167705Y0042730D02*
X0163982Y0042730D01*
X0163982Y0043328D02*
X0167705Y0043328D01*
X0167539Y0043927D02*
X0164148Y0043927D01*
X0164396Y0044525D02*
X0167291Y0044525D01*
X0167043Y0045124D02*
X0164643Y0045124D01*
X0164891Y0045722D02*
X0166795Y0045722D01*
X0166547Y0046321D02*
X0165139Y0046321D01*
X0165143Y0046919D02*
X0166543Y0046919D01*
X0166543Y0047518D02*
X0165143Y0047518D01*
X0165143Y0048116D02*
X0166543Y0048116D01*
X0166543Y0048715D02*
X0165143Y0048715D01*
X0165143Y0049313D02*
X0166543Y0049313D01*
X0166543Y0049912D02*
X0165143Y0049912D01*
X0165143Y0050510D02*
X0166543Y0050510D01*
X0166543Y0051109D02*
X0165143Y0051109D01*
X0165143Y0051707D02*
X0166543Y0051707D01*
X0166543Y0052306D02*
X0165143Y0052306D01*
X0165143Y0052904D02*
X0166543Y0052904D01*
X0166543Y0053503D02*
X0165143Y0053503D01*
X0165143Y0054102D02*
X0166543Y0054102D01*
X0166543Y0054700D02*
X0165143Y0054700D01*
X0165143Y0055299D02*
X0166543Y0055299D01*
X0166543Y0055897D02*
X0165143Y0055897D01*
X0165143Y0056496D02*
X0166543Y0056496D01*
X0166543Y0057094D02*
X0165143Y0057094D01*
X0165143Y0057693D02*
X0166543Y0057693D01*
X0166543Y0058291D02*
X0165143Y0058291D01*
X0165143Y0058890D02*
X0166543Y0058890D01*
X0166543Y0059488D02*
X0165143Y0059488D01*
X0165143Y0060087D02*
X0166543Y0060087D01*
X0166543Y0060685D02*
X0165143Y0060685D01*
X0165143Y0061284D02*
X0166543Y0061284D01*
X0166543Y0061882D02*
X0165143Y0061882D01*
X0165143Y0062481D02*
X0166543Y0062481D01*
X0166543Y0063079D02*
X0165143Y0063079D01*
X0165143Y0063678D02*
X0166543Y0063678D01*
X0166543Y0064276D02*
X0165143Y0064276D01*
X0165143Y0064875D02*
X0166543Y0064875D01*
X0166543Y0065473D02*
X0165143Y0065473D01*
X0165143Y0066072D02*
X0166543Y0066072D01*
X0166543Y0066670D02*
X0165143Y0066670D01*
X0165143Y0067269D02*
X0166543Y0067269D01*
X0166543Y0067867D02*
X0165143Y0067867D01*
X0165143Y0068466D02*
X0166543Y0068466D01*
X0166543Y0069064D02*
X0165143Y0069064D01*
X0165143Y0069663D02*
X0166543Y0069663D01*
X0166543Y0070261D02*
X0165143Y0070261D01*
X0165143Y0070860D02*
X0166543Y0070860D01*
X0166543Y0071458D02*
X0165143Y0071458D01*
X0165143Y0072057D02*
X0166543Y0072057D01*
X0166543Y0072655D02*
X0165143Y0072655D01*
X0165143Y0073254D02*
X0166543Y0073254D01*
X0166543Y0073852D02*
X0165143Y0073852D01*
X0165143Y0074451D02*
X0166543Y0074451D01*
X0166543Y0075049D02*
X0165143Y0075049D01*
X0165143Y0075648D02*
X0166543Y0075648D01*
X0166543Y0076246D02*
X0165143Y0076246D01*
X0165143Y0076845D02*
X0166543Y0076845D01*
X0166543Y0077443D02*
X0165143Y0077443D01*
X0165143Y0078042D02*
X0166543Y0078042D01*
X0166543Y0078640D02*
X0165143Y0078640D01*
X0165143Y0079239D02*
X0166543Y0079239D01*
X0166543Y0079838D02*
X0165143Y0079838D01*
X0165143Y0080436D02*
X0166543Y0080436D01*
X0166543Y0081035D02*
X0165143Y0081035D01*
X0165143Y0081633D02*
X0166543Y0081633D01*
X0166543Y0082232D02*
X0165143Y0082232D01*
X0165143Y0082830D02*
X0166543Y0082830D01*
X0166543Y0083429D02*
X0165143Y0083429D01*
X0165143Y0084027D02*
X0166543Y0084027D01*
X0166543Y0084626D02*
X0165143Y0084626D01*
X0165143Y0085224D02*
X0166543Y0085224D01*
X0166543Y0085823D02*
X0165143Y0085823D01*
X0165143Y0086421D02*
X0166543Y0086421D01*
X0166543Y0087020D02*
X0165143Y0087020D01*
X0165143Y0087618D02*
X0166543Y0087618D01*
X0166543Y0088217D02*
X0165143Y0088217D01*
X0165143Y0088815D02*
X0166543Y0088815D01*
X0166543Y0089414D02*
X0165143Y0089414D01*
X0165143Y0090012D02*
X0166543Y0090012D01*
X0166543Y0090611D02*
X0165143Y0090611D01*
X0165143Y0091209D02*
X0166543Y0091209D01*
X0166543Y0091808D02*
X0165143Y0091808D01*
X0165143Y0092406D02*
X0166543Y0092406D01*
X0166543Y0093005D02*
X0165143Y0093005D01*
X0165143Y0093603D02*
X0166543Y0093603D01*
X0166543Y0094202D02*
X0165143Y0094202D01*
X0165143Y0094800D02*
X0166543Y0094800D01*
X0166543Y0095399D02*
X0165143Y0095399D01*
X0165143Y0095997D02*
X0166543Y0095997D01*
X0166543Y0096596D02*
X0165143Y0096596D01*
X0165143Y0097194D02*
X0166543Y0097194D01*
X0166543Y0097793D02*
X0165143Y0097793D01*
X0165143Y0098391D02*
X0166543Y0098391D01*
X0166543Y0098990D02*
X0165143Y0098990D01*
X0165143Y0099588D02*
X0166543Y0099588D01*
X0166543Y0100187D02*
X0165143Y0100187D01*
X0165143Y0100785D02*
X0166543Y0100785D01*
X0166362Y0101384D02*
X0165143Y0101384D01*
X0165143Y0101982D02*
X0165764Y0101982D01*
X0165165Y0102581D02*
X0165143Y0102581D01*
X0165143Y0117544D02*
X0165180Y0117544D01*
X0165143Y0118142D02*
X0166065Y0118142D01*
X0165143Y0118741D02*
X0167510Y0118741D01*
X0168955Y0119339D02*
X0165143Y0119339D01*
X0165143Y0124726D02*
X0169502Y0124726D01*
X0168057Y0125324D02*
X0165143Y0125324D01*
X0165143Y0125923D02*
X0167286Y0125923D01*
X0166688Y0126521D02*
X0165143Y0126521D01*
X0165143Y0127120D02*
X0166174Y0127120D01*
X0165926Y0127718D02*
X0165143Y0127718D01*
X0165143Y0128317D02*
X0165678Y0128317D01*
X0165430Y0128915D02*
X0165143Y0128915D01*
X0165143Y0129514D02*
X0165406Y0129514D01*
X0165406Y0130112D02*
X0165143Y0130112D01*
X0165143Y0130711D02*
X0165406Y0130711D01*
X0165478Y0131309D02*
X0165143Y0131309D01*
X0165143Y0131908D02*
X0165726Y0131908D01*
X0165974Y0132506D02*
X0165143Y0132506D01*
X0165143Y0133105D02*
X0166222Y0133105D01*
X0166802Y0133704D02*
X0165143Y0133704D01*
X0165143Y0134302D02*
X0167401Y0134302D01*
X0168143Y0134901D02*
X0165143Y0134901D01*
X0165143Y0135499D02*
X0168143Y0135499D01*
X0168143Y0136098D02*
X0165143Y0136098D01*
X0165143Y0136696D02*
X0168143Y0136696D01*
X0168143Y0137295D02*
X0165143Y0137295D01*
X0165143Y0137893D02*
X0168143Y0137893D01*
X0168143Y0138492D02*
X0165143Y0138492D01*
X0165143Y0139090D02*
X0168143Y0139090D01*
X0168143Y0139689D02*
X0165143Y0139689D01*
X0165143Y0140287D02*
X0168143Y0140287D01*
X0168143Y0140886D02*
X0165143Y0140886D01*
X0165143Y0141484D02*
X0168143Y0141484D01*
X0168143Y0142083D02*
X0165143Y0142083D01*
X0165143Y0142681D02*
X0168143Y0142681D01*
X0168143Y0143280D02*
X0165143Y0143280D01*
X0165143Y0143878D02*
X0168143Y0143878D01*
X0168143Y0144477D02*
X0165143Y0144477D01*
X0165143Y0145075D02*
X0168143Y0145075D01*
X0168143Y0145674D02*
X0165143Y0145674D01*
X0165143Y0146272D02*
X0168143Y0146272D01*
X0168137Y0146871D02*
X0165143Y0146871D01*
X0165143Y0147469D02*
X0167845Y0147469D01*
X0167597Y0148068D02*
X0165143Y0148068D01*
X0165143Y0148666D02*
X0167562Y0148666D01*
X0167562Y0149265D02*
X0165143Y0149265D01*
X0165143Y0149863D02*
X0167730Y0149863D01*
X0167978Y0150462D02*
X0165143Y0150462D01*
X0165143Y0151060D02*
X0168458Y0151060D01*
X0169159Y0151659D02*
X0165143Y0151659D01*
X0146543Y0151659D02*
X0112527Y0151659D01*
X0112702Y0151587D02*
X0111496Y0152086D01*
X0110191Y0152086D01*
X0108985Y0151587D01*
X0108062Y0150664D01*
X0107562Y0149458D01*
X0107562Y0148152D01*
X0108062Y0146947D01*
X0108143Y0146865D01*
X0108143Y0134822D01*
X0107763Y0134664D01*
X0106234Y0133135D01*
X0105406Y0131137D01*
X0105406Y0128974D01*
X0106234Y0126975D01*
X0107763Y0125446D01*
X0109762Y0124618D01*
X0111925Y0124618D01*
X0113923Y0125446D01*
X0115452Y0126975D01*
X0116280Y0128974D01*
X0116280Y0131137D01*
X0115452Y0133135D01*
X0113923Y0134664D01*
X0113543Y0134822D01*
X0113543Y0146865D01*
X0113625Y0146947D01*
X0114124Y0148152D01*
X0114124Y0149458D01*
X0113625Y0150664D01*
X0112702Y0151587D01*
X0113228Y0151060D02*
X0146543Y0151060D01*
X0146543Y0150462D02*
X0113708Y0150462D01*
X0113956Y0149863D02*
X0146543Y0149863D01*
X0146543Y0149265D02*
X0114124Y0149265D01*
X0114124Y0148666D02*
X0146543Y0148666D01*
X0146543Y0148068D02*
X0114089Y0148068D01*
X0113841Y0147469D02*
X0146543Y0147469D01*
X0146543Y0146871D02*
X0113549Y0146871D01*
X0113543Y0146272D02*
X0146543Y0146272D01*
X0146543Y0145674D02*
X0113543Y0145674D01*
X0113543Y0145075D02*
X0146543Y0145075D01*
X0146543Y0144477D02*
X0113543Y0144477D01*
X0113543Y0143878D02*
X0146543Y0143878D01*
X0146543Y0143280D02*
X0113543Y0143280D01*
X0113543Y0142681D02*
X0146543Y0142681D01*
X0146543Y0142083D02*
X0113543Y0142083D01*
X0113543Y0141484D02*
X0146543Y0141484D01*
X0146543Y0140886D02*
X0113543Y0140886D01*
X0113543Y0140287D02*
X0146543Y0140287D01*
X0146543Y0139689D02*
X0113543Y0139689D01*
X0113543Y0139090D02*
X0146543Y0139090D01*
X0146543Y0138492D02*
X0113543Y0138492D01*
X0113543Y0137893D02*
X0146543Y0137893D01*
X0146543Y0137295D02*
X0113543Y0137295D01*
X0113543Y0136696D02*
X0146543Y0136696D01*
X0146543Y0136098D02*
X0113543Y0136098D01*
X0113543Y0135499D02*
X0146543Y0135499D01*
X0146543Y0134901D02*
X0143353Y0134901D01*
X0143923Y0134664D02*
X0141925Y0135492D01*
X0139762Y0135492D01*
X0137763Y0134664D01*
X0136234Y0133135D01*
X0135406Y0131137D01*
X0135406Y0128974D01*
X0136234Y0126975D01*
X0137763Y0125446D01*
X0139762Y0124618D01*
X0141925Y0124618D01*
X0143923Y0125446D01*
X0145452Y0126975D01*
X0146280Y0128974D01*
X0146280Y0131137D01*
X0145452Y0133135D01*
X0143923Y0134664D01*
X0144285Y0134302D02*
X0146543Y0134302D01*
X0146543Y0133704D02*
X0144884Y0133704D01*
X0145465Y0133105D02*
X0146543Y0133105D01*
X0146543Y0132506D02*
X0145713Y0132506D01*
X0145961Y0131908D02*
X0146543Y0131908D01*
X0146543Y0131309D02*
X0146209Y0131309D01*
X0146280Y0130711D02*
X0146543Y0130711D01*
X0146543Y0130112D02*
X0146280Y0130112D01*
X0146280Y0129514D02*
X0146543Y0129514D01*
X0146543Y0128915D02*
X0146256Y0128915D01*
X0146008Y0128317D02*
X0146543Y0128317D01*
X0146543Y0127718D02*
X0145760Y0127718D01*
X0145512Y0127120D02*
X0146543Y0127120D01*
X0146543Y0126521D02*
X0144999Y0126521D01*
X0144400Y0125923D02*
X0146543Y0125923D01*
X0146543Y0125324D02*
X0143630Y0125324D01*
X0142185Y0124726D02*
X0146543Y0124726D01*
X0146543Y0124127D02*
X0105143Y0124127D01*
X0105143Y0123529D02*
X0146543Y0123529D01*
X0146543Y0122930D02*
X0105143Y0122930D01*
X0105143Y0122332D02*
X0146543Y0122332D01*
X0146543Y0121733D02*
X0105143Y0121733D01*
X0105143Y0121135D02*
X0146543Y0121135D01*
X0146543Y0120536D02*
X0105143Y0120536D01*
X0105143Y0119938D02*
X0146543Y0119938D01*
X0146543Y0119339D02*
X0142731Y0119339D01*
X0144176Y0118741D02*
X0146543Y0118741D01*
X0146543Y0118142D02*
X0145621Y0118142D01*
X0146507Y0117544D02*
X0146543Y0117544D01*
X0138955Y0119339D02*
X0112731Y0119339D01*
X0112693Y0119355D02*
X0108993Y0119355D01*
X0105575Y0117939D01*
X0105143Y0117507D01*
X0105143Y0161203D01*
X0118727Y0174787D01*
X0120143Y0178205D01*
X0120143Y0181905D01*
X0118727Y0185323D01*
X0116111Y0187939D01*
X0112693Y0189355D01*
X0108993Y0189355D01*
X0105575Y0187939D01*
X0090575Y0172939D01*
X0087959Y0170323D01*
X0086543Y0166905D01*
X0086543Y0117507D01*
X0086111Y0117939D01*
X0082693Y0119355D01*
X0078993Y0119355D01*
X0075575Y0117939D01*
X0070575Y0112939D01*
X0067959Y0110323D01*
X0066543Y0106905D01*
X0066543Y0046330D01*
X0067705Y0043526D01*
X0067705Y0042723D01*
X0068944Y0039731D01*
X0071233Y0037442D01*
X0074224Y0036203D01*
X0077462Y0036203D01*
X0080453Y0037442D01*
X0082743Y0039731D01*
X0083982Y0042723D01*
X0083982Y0043526D01*
X0085143Y0046330D01*
X0085143Y0101203D01*
X0086543Y0102603D01*
X0086543Y0046330D01*
X0087705Y0043526D01*
X0087705Y0042723D01*
X0088944Y0039731D01*
X0091233Y0037442D01*
X0094224Y0036203D01*
X0097462Y0036203D01*
X0100453Y0037442D01*
X0102743Y0039731D01*
X0103982Y0042723D01*
X0103982Y0043526D01*
X0105143Y0046330D01*
X0105143Y0102603D01*
X0106543Y0101203D01*
X0106543Y0046330D01*
X0107705Y0043526D01*
X0107705Y0042723D01*
X0108944Y0039731D01*
X0111233Y0037442D01*
X0114224Y0036203D01*
X0117462Y0036203D01*
X0120453Y0037442D01*
X0122743Y0039731D01*
X0123982Y0042723D01*
X0123982Y0043526D01*
X0125143Y0046330D01*
X0125143Y0106905D01*
X0123727Y0110323D01*
X0121111Y0112939D01*
X0116111Y0117939D01*
X0112693Y0119355D01*
X0114176Y0118741D02*
X0137510Y0118741D01*
X0136065Y0118142D02*
X0115621Y0118142D01*
X0116507Y0117544D02*
X0135180Y0117544D01*
X0134581Y0116945D02*
X0117105Y0116945D01*
X0117704Y0116347D02*
X0133983Y0116347D01*
X0133384Y0115748D02*
X0118302Y0115748D01*
X0118901Y0115150D02*
X0132786Y0115150D01*
X0132187Y0114551D02*
X0119499Y0114551D01*
X0120098Y0113953D02*
X0131589Y0113953D01*
X0130990Y0113354D02*
X0120696Y0113354D01*
X0121295Y0112756D02*
X0130391Y0112756D01*
X0129793Y0112157D02*
X0121893Y0112157D01*
X0122492Y0111559D02*
X0129194Y0111559D01*
X0128596Y0110960D02*
X0123090Y0110960D01*
X0123689Y0110362D02*
X0127997Y0110362D01*
X0127727Y0109763D02*
X0123959Y0109763D01*
X0124207Y0109165D02*
X0127479Y0109165D01*
X0127231Y0108566D02*
X0124455Y0108566D01*
X0124703Y0107968D02*
X0126983Y0107968D01*
X0126735Y0107369D02*
X0124951Y0107369D01*
X0125143Y0106771D02*
X0126543Y0106771D01*
X0126543Y0106172D02*
X0125143Y0106172D01*
X0125143Y0105573D02*
X0126543Y0105573D01*
X0126543Y0104975D02*
X0125143Y0104975D01*
X0125143Y0104376D02*
X0126543Y0104376D01*
X0126543Y0103778D02*
X0125143Y0103778D01*
X0125143Y0103179D02*
X0126543Y0103179D01*
X0126543Y0102581D02*
X0125143Y0102581D01*
X0125143Y0101982D02*
X0126543Y0101982D01*
X0126543Y0101384D02*
X0125143Y0101384D01*
X0125143Y0100785D02*
X0126543Y0100785D01*
X0126543Y0100187D02*
X0125143Y0100187D01*
X0125143Y0099588D02*
X0126543Y0099588D01*
X0126543Y0098990D02*
X0125143Y0098990D01*
X0125143Y0098391D02*
X0126543Y0098391D01*
X0126543Y0097793D02*
X0125143Y0097793D01*
X0125143Y0097194D02*
X0126543Y0097194D01*
X0126543Y0096596D02*
X0125143Y0096596D01*
X0125143Y0095997D02*
X0126543Y0095997D01*
X0126543Y0095399D02*
X0125143Y0095399D01*
X0125143Y0094800D02*
X0126543Y0094800D01*
X0126543Y0094202D02*
X0125143Y0094202D01*
X0125143Y0093603D02*
X0126543Y0093603D01*
X0126543Y0093005D02*
X0125143Y0093005D01*
X0125143Y0092406D02*
X0126543Y0092406D01*
X0126543Y0091808D02*
X0125143Y0091808D01*
X0125143Y0091209D02*
X0126543Y0091209D01*
X0126543Y0090611D02*
X0125143Y0090611D01*
X0125143Y0090012D02*
X0126543Y0090012D01*
X0126543Y0089414D02*
X0125143Y0089414D01*
X0125143Y0088815D02*
X0126543Y0088815D01*
X0126543Y0088217D02*
X0125143Y0088217D01*
X0125143Y0087618D02*
X0126543Y0087618D01*
X0126543Y0087020D02*
X0125143Y0087020D01*
X0125143Y0086421D02*
X0126543Y0086421D01*
X0126543Y0085823D02*
X0125143Y0085823D01*
X0125143Y0085224D02*
X0126543Y0085224D01*
X0126543Y0084626D02*
X0125143Y0084626D01*
X0125143Y0084027D02*
X0126543Y0084027D01*
X0126543Y0083429D02*
X0125143Y0083429D01*
X0125143Y0082830D02*
X0126543Y0082830D01*
X0126543Y0082232D02*
X0125143Y0082232D01*
X0125143Y0081633D02*
X0126543Y0081633D01*
X0126543Y0081035D02*
X0125143Y0081035D01*
X0125143Y0080436D02*
X0126543Y0080436D01*
X0126543Y0079838D02*
X0125143Y0079838D01*
X0125143Y0079239D02*
X0126543Y0079239D01*
X0126543Y0078640D02*
X0125143Y0078640D01*
X0125143Y0078042D02*
X0126543Y0078042D01*
X0126543Y0077443D02*
X0125143Y0077443D01*
X0125143Y0076845D02*
X0126543Y0076845D01*
X0126543Y0076246D02*
X0125143Y0076246D01*
X0125143Y0075648D02*
X0126543Y0075648D01*
X0126543Y0075049D02*
X0125143Y0075049D01*
X0125143Y0074451D02*
X0126543Y0074451D01*
X0126543Y0073852D02*
X0125143Y0073852D01*
X0125143Y0073254D02*
X0126543Y0073254D01*
X0126543Y0072655D02*
X0125143Y0072655D01*
X0125143Y0072057D02*
X0126543Y0072057D01*
X0126543Y0071458D02*
X0125143Y0071458D01*
X0125143Y0070860D02*
X0126543Y0070860D01*
X0126543Y0070261D02*
X0125143Y0070261D01*
X0125143Y0069663D02*
X0126543Y0069663D01*
X0126543Y0069064D02*
X0125143Y0069064D01*
X0125143Y0068466D02*
X0126543Y0068466D01*
X0126543Y0067867D02*
X0125143Y0067867D01*
X0125143Y0067269D02*
X0126543Y0067269D01*
X0126543Y0066670D02*
X0125143Y0066670D01*
X0125143Y0066072D02*
X0126543Y0066072D01*
X0126543Y0065473D02*
X0125143Y0065473D01*
X0125143Y0064875D02*
X0126543Y0064875D01*
X0126543Y0064276D02*
X0125143Y0064276D01*
X0125143Y0063678D02*
X0126543Y0063678D01*
X0126543Y0063079D02*
X0125143Y0063079D01*
X0125143Y0062481D02*
X0126543Y0062481D01*
X0126543Y0061882D02*
X0125143Y0061882D01*
X0125143Y0061284D02*
X0126543Y0061284D01*
X0126543Y0060685D02*
X0125143Y0060685D01*
X0125143Y0060087D02*
X0126543Y0060087D01*
X0126543Y0059488D02*
X0125143Y0059488D01*
X0125143Y0058890D02*
X0126543Y0058890D01*
X0126543Y0058291D02*
X0125143Y0058291D01*
X0125143Y0057693D02*
X0126543Y0057693D01*
X0126543Y0057094D02*
X0125143Y0057094D01*
X0125143Y0056496D02*
X0126543Y0056496D01*
X0126543Y0055897D02*
X0125143Y0055897D01*
X0125143Y0055299D02*
X0126543Y0055299D01*
X0126543Y0054700D02*
X0125143Y0054700D01*
X0125143Y0054102D02*
X0126543Y0054102D01*
X0126543Y0053503D02*
X0125143Y0053503D01*
X0125143Y0052904D02*
X0126543Y0052904D01*
X0126543Y0052306D02*
X0125143Y0052306D01*
X0125143Y0051707D02*
X0126543Y0051707D01*
X0126543Y0051109D02*
X0125143Y0051109D01*
X0125143Y0050510D02*
X0126543Y0050510D01*
X0126543Y0049912D02*
X0125143Y0049912D01*
X0125143Y0049313D02*
X0126543Y0049313D01*
X0126543Y0048715D02*
X0125143Y0048715D01*
X0125143Y0048116D02*
X0126543Y0048116D01*
X0126543Y0047518D02*
X0125143Y0047518D01*
X0125143Y0046919D02*
X0126543Y0046919D01*
X0126547Y0046321D02*
X0125139Y0046321D01*
X0124891Y0045722D02*
X0126795Y0045722D01*
X0127043Y0045124D02*
X0124643Y0045124D01*
X0124396Y0044525D02*
X0127291Y0044525D01*
X0127539Y0043927D02*
X0124148Y0043927D01*
X0123982Y0043328D02*
X0127705Y0043328D01*
X0127705Y0042730D02*
X0123982Y0042730D01*
X0123737Y0042131D02*
X0127950Y0042131D01*
X0128197Y0041533D02*
X0123489Y0041533D01*
X0123241Y0040934D02*
X0128445Y0040934D01*
X0128693Y0040336D02*
X0122993Y0040336D01*
X0122745Y0039737D02*
X0128941Y0039737D01*
X0129536Y0039139D02*
X0122150Y0039139D01*
X0121552Y0038540D02*
X0130135Y0038540D01*
X0130733Y0037942D02*
X0120953Y0037942D01*
X0120215Y0037343D02*
X0131471Y0037343D01*
X0132916Y0036745D02*
X0118770Y0036745D01*
X0112916Y0036745D02*
X0098770Y0036745D01*
X0100215Y0037343D02*
X0111471Y0037343D01*
X0110733Y0037942D02*
X0100953Y0037942D01*
X0101552Y0038540D02*
X0110135Y0038540D01*
X0109536Y0039139D02*
X0102150Y0039139D01*
X0102745Y0039737D02*
X0108941Y0039737D01*
X0108693Y0040336D02*
X0102993Y0040336D01*
X0103241Y0040934D02*
X0108445Y0040934D01*
X0108197Y0041533D02*
X0103489Y0041533D01*
X0103737Y0042131D02*
X0107950Y0042131D01*
X0107705Y0042730D02*
X0103982Y0042730D01*
X0103982Y0043328D02*
X0107705Y0043328D01*
X0107539Y0043927D02*
X0104148Y0043927D01*
X0104396Y0044525D02*
X0107291Y0044525D01*
X0107043Y0045124D02*
X0104643Y0045124D01*
X0104891Y0045722D02*
X0106795Y0045722D01*
X0106547Y0046321D02*
X0105139Y0046321D01*
X0105143Y0046919D02*
X0106543Y0046919D01*
X0106543Y0047518D02*
X0105143Y0047518D01*
X0105143Y0048116D02*
X0106543Y0048116D01*
X0106543Y0048715D02*
X0105143Y0048715D01*
X0105143Y0049313D02*
X0106543Y0049313D01*
X0106543Y0049912D02*
X0105143Y0049912D01*
X0105143Y0050510D02*
X0106543Y0050510D01*
X0106543Y0051109D02*
X0105143Y0051109D01*
X0105143Y0051707D02*
X0106543Y0051707D01*
X0106543Y0052306D02*
X0105143Y0052306D01*
X0105143Y0052904D02*
X0106543Y0052904D01*
X0106543Y0053503D02*
X0105143Y0053503D01*
X0105143Y0054102D02*
X0106543Y0054102D01*
X0106543Y0054700D02*
X0105143Y0054700D01*
X0105143Y0055299D02*
X0106543Y0055299D01*
X0106543Y0055897D02*
X0105143Y0055897D01*
X0105143Y0056496D02*
X0106543Y0056496D01*
X0106543Y0057094D02*
X0105143Y0057094D01*
X0105143Y0057693D02*
X0106543Y0057693D01*
X0106543Y0058291D02*
X0105143Y0058291D01*
X0105143Y0058890D02*
X0106543Y0058890D01*
X0106543Y0059488D02*
X0105143Y0059488D01*
X0105143Y0060087D02*
X0106543Y0060087D01*
X0106543Y0060685D02*
X0105143Y0060685D01*
X0105143Y0061284D02*
X0106543Y0061284D01*
X0106543Y0061882D02*
X0105143Y0061882D01*
X0105143Y0062481D02*
X0106543Y0062481D01*
X0106543Y0063079D02*
X0105143Y0063079D01*
X0105143Y0063678D02*
X0106543Y0063678D01*
X0106543Y0064276D02*
X0105143Y0064276D01*
X0105143Y0064875D02*
X0106543Y0064875D01*
X0106543Y0065473D02*
X0105143Y0065473D01*
X0105143Y0066072D02*
X0106543Y0066072D01*
X0106543Y0066670D02*
X0105143Y0066670D01*
X0105143Y0067269D02*
X0106543Y0067269D01*
X0106543Y0067867D02*
X0105143Y0067867D01*
X0105143Y0068466D02*
X0106543Y0068466D01*
X0106543Y0069064D02*
X0105143Y0069064D01*
X0105143Y0069663D02*
X0106543Y0069663D01*
X0106543Y0070261D02*
X0105143Y0070261D01*
X0105143Y0070860D02*
X0106543Y0070860D01*
X0106543Y0071458D02*
X0105143Y0071458D01*
X0105143Y0072057D02*
X0106543Y0072057D01*
X0106543Y0072655D02*
X0105143Y0072655D01*
X0105143Y0073254D02*
X0106543Y0073254D01*
X0106543Y0073852D02*
X0105143Y0073852D01*
X0105143Y0074451D02*
X0106543Y0074451D01*
X0106543Y0075049D02*
X0105143Y0075049D01*
X0105143Y0075648D02*
X0106543Y0075648D01*
X0106543Y0076246D02*
X0105143Y0076246D01*
X0105143Y0076845D02*
X0106543Y0076845D01*
X0106543Y0077443D02*
X0105143Y0077443D01*
X0105143Y0078042D02*
X0106543Y0078042D01*
X0106543Y0078640D02*
X0105143Y0078640D01*
X0105143Y0079239D02*
X0106543Y0079239D01*
X0106543Y0079838D02*
X0105143Y0079838D01*
X0105143Y0080436D02*
X0106543Y0080436D01*
X0106543Y0081035D02*
X0105143Y0081035D01*
X0105143Y0081633D02*
X0106543Y0081633D01*
X0106543Y0082232D02*
X0105143Y0082232D01*
X0105143Y0082830D02*
X0106543Y0082830D01*
X0106543Y0083429D02*
X0105143Y0083429D01*
X0105143Y0084027D02*
X0106543Y0084027D01*
X0106543Y0084626D02*
X0105143Y0084626D01*
X0105143Y0085224D02*
X0106543Y0085224D01*
X0106543Y0085823D02*
X0105143Y0085823D01*
X0105143Y0086421D02*
X0106543Y0086421D01*
X0106543Y0087020D02*
X0105143Y0087020D01*
X0105143Y0087618D02*
X0106543Y0087618D01*
X0106543Y0088217D02*
X0105143Y0088217D01*
X0105143Y0088815D02*
X0106543Y0088815D01*
X0106543Y0089414D02*
X0105143Y0089414D01*
X0105143Y0090012D02*
X0106543Y0090012D01*
X0106543Y0090611D02*
X0105143Y0090611D01*
X0105143Y0091209D02*
X0106543Y0091209D01*
X0106543Y0091808D02*
X0105143Y0091808D01*
X0105143Y0092406D02*
X0106543Y0092406D01*
X0106543Y0093005D02*
X0105143Y0093005D01*
X0105143Y0093603D02*
X0106543Y0093603D01*
X0106543Y0094202D02*
X0105143Y0094202D01*
X0105143Y0094800D02*
X0106543Y0094800D01*
X0106543Y0095399D02*
X0105143Y0095399D01*
X0105143Y0095997D02*
X0106543Y0095997D01*
X0106543Y0096596D02*
X0105143Y0096596D01*
X0105143Y0097194D02*
X0106543Y0097194D01*
X0106543Y0097793D02*
X0105143Y0097793D01*
X0105143Y0098391D02*
X0106543Y0098391D01*
X0106543Y0098990D02*
X0105143Y0098990D01*
X0105143Y0099588D02*
X0106543Y0099588D01*
X0106543Y0100187D02*
X0105143Y0100187D01*
X0105143Y0100785D02*
X0106543Y0100785D01*
X0106362Y0101384D02*
X0105143Y0101384D01*
X0105143Y0101982D02*
X0105764Y0101982D01*
X0105165Y0102581D02*
X0105143Y0102581D01*
X0105143Y0117544D02*
X0105180Y0117544D01*
X0105143Y0118142D02*
X0106065Y0118142D01*
X0105143Y0118741D02*
X0107510Y0118741D01*
X0108955Y0119339D02*
X0105143Y0119339D01*
X0105143Y0124726D02*
X0109502Y0124726D01*
X0108057Y0125324D02*
X0105143Y0125324D01*
X0105143Y0125923D02*
X0107286Y0125923D01*
X0106688Y0126521D02*
X0105143Y0126521D01*
X0105143Y0127120D02*
X0106174Y0127120D01*
X0105926Y0127718D02*
X0105143Y0127718D01*
X0105143Y0128317D02*
X0105678Y0128317D01*
X0105430Y0128915D02*
X0105143Y0128915D01*
X0105143Y0129514D02*
X0105406Y0129514D01*
X0105406Y0130112D02*
X0105143Y0130112D01*
X0105143Y0130711D02*
X0105406Y0130711D01*
X0105478Y0131309D02*
X0105143Y0131309D01*
X0105143Y0131908D02*
X0105726Y0131908D01*
X0105974Y0132506D02*
X0105143Y0132506D01*
X0105143Y0133105D02*
X0106222Y0133105D01*
X0106802Y0133704D02*
X0105143Y0133704D01*
X0105143Y0134302D02*
X0107401Y0134302D01*
X0108143Y0134901D02*
X0105143Y0134901D01*
X0105143Y0135499D02*
X0108143Y0135499D01*
X0108143Y0136098D02*
X0105143Y0136098D01*
X0105143Y0136696D02*
X0108143Y0136696D01*
X0108143Y0137295D02*
X0105143Y0137295D01*
X0105143Y0137893D02*
X0108143Y0137893D01*
X0108143Y0138492D02*
X0105143Y0138492D01*
X0105143Y0139090D02*
X0108143Y0139090D01*
X0108143Y0139689D02*
X0105143Y0139689D01*
X0105143Y0140287D02*
X0108143Y0140287D01*
X0108143Y0140886D02*
X0105143Y0140886D01*
X0105143Y0141484D02*
X0108143Y0141484D01*
X0108143Y0142083D02*
X0105143Y0142083D01*
X0105143Y0142681D02*
X0108143Y0142681D01*
X0108143Y0143280D02*
X0105143Y0143280D01*
X0105143Y0143878D02*
X0108143Y0143878D01*
X0108143Y0144477D02*
X0105143Y0144477D01*
X0105143Y0145075D02*
X0108143Y0145075D01*
X0108143Y0145674D02*
X0105143Y0145674D01*
X0105143Y0146272D02*
X0108143Y0146272D01*
X0108137Y0146871D02*
X0105143Y0146871D01*
X0105143Y0147469D02*
X0107845Y0147469D01*
X0107597Y0148068D02*
X0105143Y0148068D01*
X0105143Y0148666D02*
X0107562Y0148666D01*
X0107562Y0149265D02*
X0105143Y0149265D01*
X0105143Y0149863D02*
X0107730Y0149863D01*
X0107978Y0150462D02*
X0105143Y0150462D01*
X0105143Y0151060D02*
X0108458Y0151060D01*
X0109159Y0151659D02*
X0105143Y0151659D01*
X0105143Y0152257D02*
X0146543Y0152257D01*
X0146543Y0152856D02*
X0105143Y0152856D01*
X0105143Y0153454D02*
X0146543Y0153454D01*
X0146543Y0154053D02*
X0105143Y0154053D01*
X0105143Y0154651D02*
X0146543Y0154651D01*
X0146543Y0155250D02*
X0105143Y0155250D01*
X0105143Y0155848D02*
X0146543Y0155848D01*
X0146543Y0156447D02*
X0105143Y0156447D01*
X0105143Y0157045D02*
X0146543Y0157045D01*
X0146543Y0157644D02*
X0105143Y0157644D01*
X0105143Y0158242D02*
X0146543Y0158242D01*
X0146543Y0158841D02*
X0105143Y0158841D01*
X0105143Y0159440D02*
X0146543Y0159440D01*
X0146543Y0160038D02*
X0105143Y0160038D01*
X0105143Y0160637D02*
X0146543Y0160637D01*
X0146543Y0161235D02*
X0105175Y0161235D01*
X0105774Y0161834D02*
X0146543Y0161834D01*
X0146543Y0162432D02*
X0106372Y0162432D01*
X0106971Y0163031D02*
X0146543Y0163031D01*
X0146543Y0163629D02*
X0107569Y0163629D01*
X0108168Y0164228D02*
X0146543Y0164228D01*
X0146543Y0164826D02*
X0108766Y0164826D01*
X0109365Y0165425D02*
X0146543Y0165425D01*
X0146543Y0166023D02*
X0109963Y0166023D01*
X0110562Y0166622D02*
X0146543Y0166622D01*
X0146674Y0167220D02*
X0111160Y0167220D01*
X0111759Y0167819D02*
X0146922Y0167819D01*
X0147170Y0168417D02*
X0112357Y0168417D01*
X0112956Y0169016D02*
X0147417Y0169016D01*
X0147665Y0169614D02*
X0113554Y0169614D01*
X0114153Y0170213D02*
X0147913Y0170213D01*
X0148447Y0170811D02*
X0114751Y0170811D01*
X0115350Y0171410D02*
X0149046Y0171410D01*
X0149644Y0172008D02*
X0115948Y0172008D01*
X0116547Y0172607D02*
X0150243Y0172607D01*
X0150841Y0173205D02*
X0117146Y0173205D01*
X0117744Y0173804D02*
X0151440Y0173804D01*
X0152038Y0174402D02*
X0118343Y0174402D01*
X0118816Y0175001D02*
X0152637Y0175001D01*
X0153235Y0175599D02*
X0119064Y0175599D01*
X0119312Y0176198D02*
X0153834Y0176198D01*
X0154432Y0176796D02*
X0119560Y0176796D01*
X0119807Y0177395D02*
X0155031Y0177395D01*
X0155629Y0177993D02*
X0120055Y0177993D01*
X0120143Y0178592D02*
X0156228Y0178592D01*
X0156826Y0179190D02*
X0120143Y0179190D01*
X0120143Y0179789D02*
X0157425Y0179789D01*
X0158023Y0180387D02*
X0120143Y0180387D01*
X0120143Y0180986D02*
X0158622Y0180986D01*
X0159220Y0181584D02*
X0120143Y0181584D01*
X0120028Y0182183D02*
X0159819Y0182183D01*
X0160417Y0182781D02*
X0119780Y0182781D01*
X0119532Y0183380D02*
X0161016Y0183380D01*
X0161614Y0183978D02*
X0119284Y0183978D01*
X0119036Y0184577D02*
X0162213Y0184577D01*
X0162811Y0185175D02*
X0118788Y0185175D01*
X0118276Y0185774D02*
X0163410Y0185774D01*
X0164008Y0186373D02*
X0117678Y0186373D01*
X0117079Y0186971D02*
X0164607Y0186971D01*
X0165205Y0187570D02*
X0116481Y0187570D01*
X0115559Y0188168D02*
X0166127Y0188168D01*
X0167572Y0188767D02*
X0114114Y0188767D01*
X0107572Y0188767D02*
X0030040Y0188767D01*
X0030040Y0189365D02*
X0341607Y0189365D01*
X0341607Y0188767D02*
X0234114Y0188767D01*
X0235559Y0188168D02*
X0341607Y0188168D01*
X0341607Y0187570D02*
X0236481Y0187570D01*
X0237079Y0186971D02*
X0341607Y0186971D01*
X0341607Y0186373D02*
X0237678Y0186373D01*
X0227572Y0188767D02*
X0174114Y0188767D01*
X0175559Y0188168D02*
X0226127Y0188168D01*
X0225205Y0187570D02*
X0176481Y0187570D01*
X0177079Y0186971D02*
X0224607Y0186971D01*
X0224008Y0186373D02*
X0177678Y0186373D01*
X0178276Y0185774D02*
X0223410Y0185774D01*
X0222811Y0185175D02*
X0178788Y0185175D01*
X0179036Y0184577D02*
X0222213Y0184577D01*
X0221614Y0183978D02*
X0179284Y0183978D01*
X0179532Y0183380D02*
X0221016Y0183380D01*
X0247252Y0214503D02*
X0030040Y0214503D01*
X0030040Y0215101D02*
X0246547Y0215101D01*
X0245949Y0215700D02*
X0030040Y0215700D01*
X0030040Y0216298D02*
X0245624Y0216298D01*
X0245377Y0216897D02*
X0030040Y0216897D01*
X0030040Y0217495D02*
X0245140Y0217495D01*
X0245140Y0218094D02*
X0030079Y0218094D01*
X0030126Y0218692D02*
X0245140Y0218692D01*
X0245140Y0219291D02*
X0030202Y0219291D01*
X0030396Y0219889D02*
X0245140Y0219889D01*
X0245140Y0220488D02*
X0030590Y0220488D01*
X0030785Y0221086D02*
X0245140Y0221086D01*
X0245140Y0221685D02*
X0030979Y0221685D01*
X0031213Y0222283D02*
X0245140Y0222283D01*
X0245140Y0222882D02*
X0031648Y0222882D01*
X0032083Y0223480D02*
X0245140Y0223480D01*
X0245140Y0224079D02*
X0032517Y0224079D01*
X0032952Y0224677D02*
X0245140Y0224677D01*
X0245195Y0225276D02*
X0033731Y0225276D01*
X0034555Y0225874D02*
X0245443Y0225874D01*
X0245691Y0226473D02*
X0035379Y0226473D01*
X0036994Y0227071D02*
X0246109Y0227071D01*
X0246708Y0227670D02*
X0039660Y0227670D01*
X0030040Y0213904D02*
X0248697Y0213904D01*
X0250490Y0213904D02*
X0258697Y0213904D01*
X0257252Y0214503D02*
X0251935Y0214503D01*
X0252639Y0215101D02*
X0256547Y0215101D01*
X0255949Y0215700D02*
X0253238Y0215700D01*
X0253562Y0216298D02*
X0255624Y0216298D01*
X0255377Y0216897D02*
X0253810Y0216897D01*
X0254046Y0217495D02*
X0255140Y0217495D01*
X0255140Y0218094D02*
X0254046Y0218094D01*
X0254046Y0218692D02*
X0255140Y0218692D01*
X0255140Y0219291D02*
X0254046Y0219291D01*
X0254046Y0219889D02*
X0255140Y0219889D01*
X0255140Y0220488D02*
X0254046Y0220488D01*
X0254046Y0221086D02*
X0255140Y0221086D01*
X0255140Y0221685D02*
X0254046Y0221685D01*
X0254046Y0222283D02*
X0255140Y0222283D01*
X0255140Y0222882D02*
X0254046Y0222882D01*
X0254046Y0223480D02*
X0255140Y0223480D01*
X0255140Y0224079D02*
X0254046Y0224079D01*
X0254046Y0224677D02*
X0255140Y0224677D01*
X0255195Y0225276D02*
X0253991Y0225276D01*
X0253743Y0225874D02*
X0255443Y0225874D01*
X0255691Y0226473D02*
X0253495Y0226473D01*
X0253077Y0227071D02*
X0256109Y0227071D01*
X0256708Y0227670D02*
X0252478Y0227670D01*
X0262478Y0227670D02*
X0276708Y0227670D01*
X0276109Y0227071D02*
X0263077Y0227071D01*
X0263495Y0226473D02*
X0275691Y0226473D01*
X0275443Y0225874D02*
X0263743Y0225874D01*
X0263991Y0225276D02*
X0275195Y0225276D01*
X0275140Y0224677D02*
X0264046Y0224677D01*
X0264046Y0224079D02*
X0275140Y0224079D01*
X0275140Y0223480D02*
X0264046Y0223480D01*
X0264046Y0222882D02*
X0275140Y0222882D01*
X0275140Y0222283D02*
X0264046Y0222283D01*
X0264046Y0221685D02*
X0275140Y0221685D01*
X0275140Y0221086D02*
X0264046Y0221086D01*
X0264046Y0220488D02*
X0275140Y0220488D01*
X0275140Y0219889D02*
X0264046Y0219889D01*
X0264046Y0219291D02*
X0275140Y0219291D01*
X0275140Y0218692D02*
X0264046Y0218692D01*
X0264046Y0218094D02*
X0275140Y0218094D01*
X0275140Y0217495D02*
X0264046Y0217495D01*
X0263810Y0216897D02*
X0275377Y0216897D01*
X0275624Y0216298D02*
X0263562Y0216298D01*
X0263238Y0215700D02*
X0275949Y0215700D01*
X0276547Y0215101D02*
X0262639Y0215101D01*
X0261935Y0214503D02*
X0277252Y0214503D01*
X0278697Y0213904D02*
X0260490Y0213904D01*
X0280490Y0213904D02*
X0288697Y0213904D01*
X0287252Y0214503D02*
X0281935Y0214503D01*
X0282639Y0215101D02*
X0286547Y0215101D01*
X0285949Y0215700D02*
X0283238Y0215700D01*
X0283562Y0216298D02*
X0285624Y0216298D01*
X0285377Y0216897D02*
X0283810Y0216897D01*
X0284046Y0217495D02*
X0285140Y0217495D01*
X0285140Y0218094D02*
X0284046Y0218094D01*
X0284046Y0218692D02*
X0285140Y0218692D01*
X0285140Y0219291D02*
X0284046Y0219291D01*
X0284046Y0219889D02*
X0285140Y0219889D01*
X0285140Y0220488D02*
X0284046Y0220488D01*
X0284046Y0221086D02*
X0285140Y0221086D01*
X0285140Y0221685D02*
X0284046Y0221685D01*
X0284046Y0222283D02*
X0285140Y0222283D01*
X0285140Y0222882D02*
X0284046Y0222882D01*
X0284046Y0223480D02*
X0285140Y0223480D01*
X0285140Y0224079D02*
X0284046Y0224079D01*
X0284046Y0224677D02*
X0285140Y0224677D01*
X0285195Y0225276D02*
X0283991Y0225276D01*
X0283743Y0225874D02*
X0285443Y0225874D01*
X0285691Y0226473D02*
X0283495Y0226473D01*
X0283077Y0227071D02*
X0286109Y0227071D01*
X0286708Y0227670D02*
X0282478Y0227670D01*
X0292478Y0227670D02*
X0331986Y0227670D01*
X0334653Y0227071D02*
X0293077Y0227071D01*
X0293495Y0226473D02*
X0336268Y0226473D01*
X0337092Y0225874D02*
X0293743Y0225874D01*
X0293991Y0225276D02*
X0337916Y0225276D01*
X0338695Y0224677D02*
X0294046Y0224677D01*
X0294046Y0224079D02*
X0339130Y0224079D01*
X0339564Y0223480D02*
X0294046Y0223480D01*
X0294046Y0222882D02*
X0339999Y0222882D01*
X0340434Y0222283D02*
X0294046Y0222283D01*
X0294046Y0221685D02*
X0340668Y0221685D01*
X0340862Y0221086D02*
X0294046Y0221086D01*
X0294046Y0220488D02*
X0341056Y0220488D01*
X0341251Y0219889D02*
X0294046Y0219889D01*
X0294046Y0219291D02*
X0341445Y0219291D01*
X0341521Y0218692D02*
X0294046Y0218692D01*
X0294046Y0218094D02*
X0341568Y0218094D01*
X0341607Y0217495D02*
X0294046Y0217495D01*
X0293810Y0216897D02*
X0341607Y0216897D01*
X0341607Y0216298D02*
X0293562Y0216298D01*
X0293238Y0215700D02*
X0341607Y0215700D01*
X0341607Y0215101D02*
X0292639Y0215101D01*
X0291935Y0214503D02*
X0341607Y0214503D01*
X0341607Y0213904D02*
X0290490Y0213904D01*
X0341607Y0213306D02*
X0030040Y0213306D01*
X0030040Y0212707D02*
X0341607Y0212707D01*
X0341607Y0212109D02*
X0030040Y0212109D01*
X0030040Y0211510D02*
X0341607Y0211510D01*
X0341607Y0210911D02*
X0030040Y0210911D01*
X0030040Y0210313D02*
X0341607Y0210313D01*
X0341607Y0209714D02*
X0030040Y0209714D01*
X0030040Y0209116D02*
X0341607Y0209116D01*
X0341607Y0208517D02*
X0030040Y0208517D01*
X0030040Y0207919D02*
X0341607Y0207919D01*
X0341607Y0207320D02*
X0030040Y0207320D01*
X0030040Y0206722D02*
X0341607Y0206722D01*
X0341607Y0206123D02*
X0030040Y0206123D01*
X0030040Y0205525D02*
X0341607Y0205525D01*
X0341607Y0204926D02*
X0030040Y0204926D01*
X0030040Y0204328D02*
X0341607Y0204328D01*
X0341607Y0203729D02*
X0030040Y0203729D01*
X0030040Y0203131D02*
X0341607Y0203131D01*
X0341607Y0202532D02*
X0030040Y0202532D01*
X0030040Y0201934D02*
X0341607Y0201934D01*
X0341607Y0201335D02*
X0030040Y0201335D01*
X0030040Y0200737D02*
X0341607Y0200737D01*
X0341607Y0200138D02*
X0030040Y0200138D01*
X0030040Y0199540D02*
X0341607Y0199540D01*
X0341607Y0198941D02*
X0030040Y0198941D01*
X0030040Y0198343D02*
X0341607Y0198343D01*
X0341607Y0197744D02*
X0030040Y0197744D01*
X0030040Y0197146D02*
X0341607Y0197146D01*
X0341607Y0196547D02*
X0030040Y0196547D01*
X0030040Y0195949D02*
X0341607Y0195949D01*
X0341607Y0195350D02*
X0030040Y0195350D01*
X0030040Y0194752D02*
X0341607Y0194752D01*
X0341607Y0194153D02*
X0030040Y0194153D01*
X0030040Y0193555D02*
X0341607Y0193555D01*
X0341607Y0192956D02*
X0030040Y0192956D01*
X0030040Y0192358D02*
X0341607Y0192358D01*
X0341607Y0191759D02*
X0030040Y0191759D01*
X0030040Y0191161D02*
X0341607Y0191161D01*
X0341607Y0190562D02*
X0030040Y0190562D01*
X0030040Y0189964D02*
X0341607Y0189964D01*
X0285550Y0107968D02*
X0244703Y0107968D01*
X0244951Y0107369D02*
X0284767Y0107369D01*
X0284252Y0106771D02*
X0245143Y0106771D01*
X0245143Y0106172D02*
X0284004Y0106172D01*
X0283812Y0105573D02*
X0245143Y0105573D01*
X0245143Y0104975D02*
X0283812Y0104975D01*
X0283823Y0104376D02*
X0245143Y0104376D01*
X0245143Y0103778D02*
X0284071Y0103778D01*
X0284329Y0103179D02*
X0245143Y0103179D01*
X0245143Y0102581D02*
X0284793Y0102581D01*
X0284793Y0101982D02*
X0245143Y0101982D01*
X0245143Y0101384D02*
X0284793Y0101384D01*
X0284793Y0100785D02*
X0245143Y0100785D01*
X0245143Y0100187D02*
X0284793Y0100187D01*
X0284793Y0099588D02*
X0245143Y0099588D01*
X0245143Y0098990D02*
X0284793Y0098990D01*
X0284793Y0098391D02*
X0245143Y0098391D01*
X0245143Y0097793D02*
X0284566Y0097793D01*
X0284169Y0097194D02*
X0245143Y0097194D01*
X0245143Y0096596D02*
X0283921Y0096596D01*
X0283812Y0095997D02*
X0245143Y0095997D01*
X0245143Y0095399D02*
X0283812Y0095399D01*
X0283906Y0094800D02*
X0245143Y0094800D01*
X0245143Y0094202D02*
X0284154Y0094202D01*
X0284530Y0093603D02*
X0245143Y0093603D01*
X0245143Y0093005D02*
X0285128Y0093005D01*
X0208445Y0040934D02*
X0203241Y0040934D01*
X0202993Y0040336D02*
X0208693Y0040336D01*
X0208941Y0039737D02*
X0202745Y0039737D01*
X0202150Y0039139D02*
X0209536Y0039139D01*
X0210135Y0038540D02*
X0201552Y0038540D01*
X0200953Y0037942D02*
X0210733Y0037942D01*
X0211471Y0037343D02*
X0200215Y0037343D01*
X0198770Y0036745D02*
X0212916Y0036745D01*
X0208197Y0041533D02*
X0203489Y0041533D01*
X0203737Y0042131D02*
X0207950Y0042131D01*
X0207705Y0042730D02*
X0203982Y0042730D01*
X0203982Y0043328D02*
X0207705Y0043328D01*
X0207539Y0043927D02*
X0204148Y0043927D01*
X0204396Y0044525D02*
X0207291Y0044525D01*
X0207043Y0045124D02*
X0204643Y0045124D01*
X0204891Y0045722D02*
X0206795Y0045722D01*
X0206547Y0046321D02*
X0205139Y0046321D01*
X0205143Y0046919D02*
X0206543Y0046919D01*
X0206543Y0047518D02*
X0205143Y0047518D01*
X0205143Y0048116D02*
X0206543Y0048116D01*
X0206543Y0048715D02*
X0205143Y0048715D01*
X0205143Y0049313D02*
X0206543Y0049313D01*
X0206543Y0049912D02*
X0205143Y0049912D01*
X0205143Y0050510D02*
X0206543Y0050510D01*
X0206543Y0051109D02*
X0205143Y0051109D01*
X0205143Y0051707D02*
X0206543Y0051707D01*
X0206543Y0052306D02*
X0205143Y0052306D01*
X0205143Y0052904D02*
X0206543Y0052904D01*
X0206543Y0053503D02*
X0205143Y0053503D01*
X0205143Y0054102D02*
X0206543Y0054102D01*
X0206543Y0054700D02*
X0205143Y0054700D01*
X0205143Y0055299D02*
X0206543Y0055299D01*
X0206543Y0055897D02*
X0205143Y0055897D01*
X0205143Y0056496D02*
X0206543Y0056496D01*
X0206543Y0057094D02*
X0205143Y0057094D01*
X0205143Y0057693D02*
X0206543Y0057693D01*
X0206543Y0058291D02*
X0205143Y0058291D01*
X0205143Y0058890D02*
X0206543Y0058890D01*
X0206543Y0059488D02*
X0205143Y0059488D01*
X0205143Y0060087D02*
X0206543Y0060087D01*
X0206543Y0060685D02*
X0205143Y0060685D01*
X0205143Y0061284D02*
X0206543Y0061284D01*
X0206543Y0061882D02*
X0205143Y0061882D01*
X0205143Y0062481D02*
X0206543Y0062481D01*
X0206543Y0063079D02*
X0205143Y0063079D01*
X0205143Y0063678D02*
X0206543Y0063678D01*
X0206543Y0064276D02*
X0205143Y0064276D01*
X0205143Y0064875D02*
X0206543Y0064875D01*
X0206543Y0065473D02*
X0205143Y0065473D01*
X0205143Y0066072D02*
X0206543Y0066072D01*
X0206543Y0066670D02*
X0205143Y0066670D01*
X0205143Y0067269D02*
X0206543Y0067269D01*
X0206543Y0067867D02*
X0205143Y0067867D01*
X0205143Y0068466D02*
X0206543Y0068466D01*
X0206543Y0069064D02*
X0205143Y0069064D01*
X0205143Y0069663D02*
X0206543Y0069663D01*
X0206543Y0070261D02*
X0205143Y0070261D01*
X0205143Y0070860D02*
X0206543Y0070860D01*
X0206543Y0071458D02*
X0205143Y0071458D01*
X0205143Y0072057D02*
X0206543Y0072057D01*
X0206543Y0072655D02*
X0205143Y0072655D01*
X0205143Y0073254D02*
X0206543Y0073254D01*
X0206543Y0073852D02*
X0205143Y0073852D01*
X0205143Y0074451D02*
X0206543Y0074451D01*
X0206543Y0075049D02*
X0205143Y0075049D01*
X0205143Y0075648D02*
X0206543Y0075648D01*
X0206543Y0076246D02*
X0205143Y0076246D01*
X0205143Y0076845D02*
X0206543Y0076845D01*
X0206543Y0077443D02*
X0205143Y0077443D01*
X0205143Y0078042D02*
X0206543Y0078042D01*
X0206543Y0078640D02*
X0205143Y0078640D01*
X0205143Y0079239D02*
X0206543Y0079239D01*
X0206543Y0079838D02*
X0205143Y0079838D01*
X0205143Y0080436D02*
X0206543Y0080436D01*
X0206543Y0081035D02*
X0205143Y0081035D01*
X0205143Y0081633D02*
X0206543Y0081633D01*
X0206543Y0082232D02*
X0205143Y0082232D01*
X0205143Y0082830D02*
X0206543Y0082830D01*
X0206543Y0083429D02*
X0205143Y0083429D01*
X0205143Y0084027D02*
X0206543Y0084027D01*
X0206543Y0084626D02*
X0205143Y0084626D01*
X0205143Y0085224D02*
X0206543Y0085224D01*
X0206543Y0085823D02*
X0205143Y0085823D01*
X0205143Y0086421D02*
X0206543Y0086421D01*
X0206543Y0087020D02*
X0205143Y0087020D01*
X0205143Y0087618D02*
X0206543Y0087618D01*
X0206543Y0088217D02*
X0205143Y0088217D01*
X0205143Y0088815D02*
X0206543Y0088815D01*
X0206543Y0089414D02*
X0205143Y0089414D01*
X0205143Y0090012D02*
X0206543Y0090012D01*
X0206543Y0090611D02*
X0205143Y0090611D01*
X0205143Y0091209D02*
X0206543Y0091209D01*
X0206543Y0091808D02*
X0205143Y0091808D01*
X0205143Y0092406D02*
X0206543Y0092406D01*
X0206543Y0093005D02*
X0205143Y0093005D01*
X0205143Y0093603D02*
X0206543Y0093603D01*
X0206543Y0094202D02*
X0205143Y0094202D01*
X0205143Y0094800D02*
X0206543Y0094800D01*
X0206543Y0095399D02*
X0205143Y0095399D01*
X0205143Y0095997D02*
X0206543Y0095997D01*
X0206543Y0096596D02*
X0205143Y0096596D01*
X0205143Y0097194D02*
X0206543Y0097194D01*
X0206543Y0097793D02*
X0205143Y0097793D01*
X0205143Y0098391D02*
X0206543Y0098391D01*
X0206543Y0098990D02*
X0205143Y0098990D01*
X0205143Y0099588D02*
X0206543Y0099588D01*
X0206543Y0100187D02*
X0205143Y0100187D01*
X0205143Y0100785D02*
X0206543Y0100785D01*
X0206543Y0101384D02*
X0205324Y0101384D01*
X0205923Y0101982D02*
X0206543Y0101982D01*
X0206521Y0102581D02*
X0206543Y0102581D01*
X0199502Y0124726D02*
X0172185Y0124726D01*
X0173630Y0125324D02*
X0198057Y0125324D01*
X0197286Y0125923D02*
X0174400Y0125923D01*
X0174999Y0126521D02*
X0196688Y0126521D01*
X0196174Y0127120D02*
X0175512Y0127120D01*
X0175760Y0127718D02*
X0195926Y0127718D01*
X0195678Y0128317D02*
X0176008Y0128317D01*
X0176256Y0128915D02*
X0195430Y0128915D01*
X0195406Y0129514D02*
X0176280Y0129514D01*
X0176280Y0130112D02*
X0195406Y0130112D01*
X0195406Y0130711D02*
X0176280Y0130711D01*
X0176209Y0131309D02*
X0195478Y0131309D01*
X0195726Y0131908D02*
X0175961Y0131908D01*
X0175713Y0132506D02*
X0195974Y0132506D01*
X0196222Y0133105D02*
X0175465Y0133105D01*
X0174884Y0133704D02*
X0196802Y0133704D01*
X0197401Y0134302D02*
X0174285Y0134302D01*
X0173543Y0134901D02*
X0198334Y0134901D01*
X0146543Y0102581D02*
X0146521Y0102581D01*
X0146543Y0101982D02*
X0145923Y0101982D01*
X0145324Y0101384D02*
X0146543Y0101384D01*
X0146543Y0100785D02*
X0145143Y0100785D01*
X0145143Y0100187D02*
X0146543Y0100187D01*
X0146543Y0099588D02*
X0145143Y0099588D01*
X0145143Y0098990D02*
X0146543Y0098990D01*
X0146543Y0098391D02*
X0145143Y0098391D01*
X0145143Y0097793D02*
X0146543Y0097793D01*
X0146543Y0097194D02*
X0145143Y0097194D01*
X0145143Y0096596D02*
X0146543Y0096596D01*
X0146543Y0095997D02*
X0145143Y0095997D01*
X0145143Y0095399D02*
X0146543Y0095399D01*
X0146543Y0094800D02*
X0145143Y0094800D01*
X0145143Y0094202D02*
X0146543Y0094202D01*
X0146543Y0093603D02*
X0145143Y0093603D01*
X0145143Y0093005D02*
X0146543Y0093005D01*
X0146543Y0092406D02*
X0145143Y0092406D01*
X0145143Y0091808D02*
X0146543Y0091808D01*
X0146543Y0091209D02*
X0145143Y0091209D01*
X0145143Y0090611D02*
X0146543Y0090611D01*
X0146543Y0090012D02*
X0145143Y0090012D01*
X0145143Y0089414D02*
X0146543Y0089414D01*
X0146543Y0088815D02*
X0145143Y0088815D01*
X0145143Y0088217D02*
X0146543Y0088217D01*
X0146543Y0087618D02*
X0145143Y0087618D01*
X0145143Y0087020D02*
X0146543Y0087020D01*
X0146543Y0086421D02*
X0145143Y0086421D01*
X0145143Y0085823D02*
X0146543Y0085823D01*
X0146543Y0085224D02*
X0145143Y0085224D01*
X0145143Y0084626D02*
X0146543Y0084626D01*
X0146543Y0084027D02*
X0145143Y0084027D01*
X0145143Y0083429D02*
X0146543Y0083429D01*
X0146543Y0082830D02*
X0145143Y0082830D01*
X0145143Y0082232D02*
X0146543Y0082232D01*
X0146543Y0081633D02*
X0145143Y0081633D01*
X0145143Y0081035D02*
X0146543Y0081035D01*
X0146543Y0080436D02*
X0145143Y0080436D01*
X0145143Y0079838D02*
X0146543Y0079838D01*
X0146543Y0079239D02*
X0145143Y0079239D01*
X0145143Y0078640D02*
X0146543Y0078640D01*
X0146543Y0078042D02*
X0145143Y0078042D01*
X0145143Y0077443D02*
X0146543Y0077443D01*
X0146543Y0076845D02*
X0145143Y0076845D01*
X0145143Y0076246D02*
X0146543Y0076246D01*
X0146543Y0075648D02*
X0145143Y0075648D01*
X0145143Y0075049D02*
X0146543Y0075049D01*
X0146543Y0074451D02*
X0145143Y0074451D01*
X0145143Y0073852D02*
X0146543Y0073852D01*
X0146543Y0073254D02*
X0145143Y0073254D01*
X0145143Y0072655D02*
X0146543Y0072655D01*
X0146543Y0072057D02*
X0145143Y0072057D01*
X0145143Y0071458D02*
X0146543Y0071458D01*
X0146543Y0070860D02*
X0145143Y0070860D01*
X0145143Y0070261D02*
X0146543Y0070261D01*
X0146543Y0069663D02*
X0145143Y0069663D01*
X0145143Y0069064D02*
X0146543Y0069064D01*
X0146543Y0068466D02*
X0145143Y0068466D01*
X0145143Y0067867D02*
X0146543Y0067867D01*
X0146543Y0067269D02*
X0145143Y0067269D01*
X0145143Y0066670D02*
X0146543Y0066670D01*
X0146543Y0066072D02*
X0145143Y0066072D01*
X0145143Y0065473D02*
X0146543Y0065473D01*
X0146543Y0064875D02*
X0145143Y0064875D01*
X0145143Y0064276D02*
X0146543Y0064276D01*
X0146543Y0063678D02*
X0145143Y0063678D01*
X0145143Y0063079D02*
X0146543Y0063079D01*
X0146543Y0062481D02*
X0145143Y0062481D01*
X0145143Y0061882D02*
X0146543Y0061882D01*
X0146543Y0061284D02*
X0145143Y0061284D01*
X0145143Y0060685D02*
X0146543Y0060685D01*
X0146543Y0060087D02*
X0145143Y0060087D01*
X0145143Y0059488D02*
X0146543Y0059488D01*
X0146543Y0058890D02*
X0145143Y0058890D01*
X0145143Y0058291D02*
X0146543Y0058291D01*
X0146543Y0057693D02*
X0145143Y0057693D01*
X0145143Y0057094D02*
X0146543Y0057094D01*
X0146543Y0056496D02*
X0145143Y0056496D01*
X0145143Y0055897D02*
X0146543Y0055897D01*
X0146543Y0055299D02*
X0145143Y0055299D01*
X0145143Y0054700D02*
X0146543Y0054700D01*
X0146543Y0054102D02*
X0145143Y0054102D01*
X0145143Y0053503D02*
X0146543Y0053503D01*
X0146543Y0052904D02*
X0145143Y0052904D01*
X0145143Y0052306D02*
X0146543Y0052306D01*
X0146543Y0051707D02*
X0145143Y0051707D01*
X0145143Y0051109D02*
X0146543Y0051109D01*
X0146543Y0050510D02*
X0145143Y0050510D01*
X0145143Y0049912D02*
X0146543Y0049912D01*
X0146543Y0049313D02*
X0145143Y0049313D01*
X0145143Y0048715D02*
X0146543Y0048715D01*
X0146543Y0048116D02*
X0145143Y0048116D01*
X0145143Y0047518D02*
X0146543Y0047518D01*
X0146543Y0046919D02*
X0145143Y0046919D01*
X0145139Y0046321D02*
X0146547Y0046321D01*
X0146795Y0045722D02*
X0144891Y0045722D01*
X0144643Y0045124D02*
X0147043Y0045124D01*
X0147291Y0044525D02*
X0144396Y0044525D01*
X0144148Y0043927D02*
X0147539Y0043927D01*
X0147705Y0043328D02*
X0143982Y0043328D01*
X0143982Y0042730D02*
X0147705Y0042730D01*
X0147950Y0042131D02*
X0143737Y0042131D01*
X0143489Y0041533D02*
X0148197Y0041533D01*
X0148445Y0040934D02*
X0143241Y0040934D01*
X0142993Y0040336D02*
X0148693Y0040336D01*
X0148941Y0039737D02*
X0142745Y0039737D01*
X0142150Y0039139D02*
X0149536Y0039139D01*
X0150135Y0038540D02*
X0141552Y0038540D01*
X0140953Y0037942D02*
X0150733Y0037942D01*
X0151471Y0037343D02*
X0140215Y0037343D01*
X0138770Y0036745D02*
X0152916Y0036745D01*
X0092916Y0036745D02*
X0078770Y0036745D01*
X0080215Y0037343D02*
X0091471Y0037343D01*
X0090733Y0037942D02*
X0080953Y0037942D01*
X0081552Y0038540D02*
X0090135Y0038540D01*
X0089536Y0039139D02*
X0082150Y0039139D01*
X0082745Y0039737D02*
X0088941Y0039737D01*
X0088693Y0040336D02*
X0082993Y0040336D01*
X0083241Y0040934D02*
X0088445Y0040934D01*
X0088197Y0041533D02*
X0083489Y0041533D01*
X0083737Y0042131D02*
X0087950Y0042131D01*
X0087705Y0042730D02*
X0083982Y0042730D01*
X0083982Y0043328D02*
X0087705Y0043328D01*
X0087539Y0043927D02*
X0084148Y0043927D01*
X0084396Y0044525D02*
X0087291Y0044525D01*
X0087043Y0045124D02*
X0084643Y0045124D01*
X0084891Y0045722D02*
X0086795Y0045722D01*
X0086547Y0046321D02*
X0085139Y0046321D01*
X0085143Y0046919D02*
X0086543Y0046919D01*
X0086543Y0047518D02*
X0085143Y0047518D01*
X0085143Y0048116D02*
X0086543Y0048116D01*
X0086543Y0048715D02*
X0085143Y0048715D01*
X0085143Y0049313D02*
X0086543Y0049313D01*
X0086543Y0049912D02*
X0085143Y0049912D01*
X0085143Y0050510D02*
X0086543Y0050510D01*
X0086543Y0051109D02*
X0085143Y0051109D01*
X0085143Y0051707D02*
X0086543Y0051707D01*
X0086543Y0052306D02*
X0085143Y0052306D01*
X0085143Y0052904D02*
X0086543Y0052904D01*
X0086543Y0053503D02*
X0085143Y0053503D01*
X0085143Y0054102D02*
X0086543Y0054102D01*
X0086543Y0054700D02*
X0085143Y0054700D01*
X0085143Y0055299D02*
X0086543Y0055299D01*
X0086543Y0055897D02*
X0085143Y0055897D01*
X0085143Y0056496D02*
X0086543Y0056496D01*
X0086543Y0057094D02*
X0085143Y0057094D01*
X0085143Y0057693D02*
X0086543Y0057693D01*
X0086543Y0058291D02*
X0085143Y0058291D01*
X0085143Y0058890D02*
X0086543Y0058890D01*
X0086543Y0059488D02*
X0085143Y0059488D01*
X0085143Y0060087D02*
X0086543Y0060087D01*
X0086543Y0060685D02*
X0085143Y0060685D01*
X0085143Y0061284D02*
X0086543Y0061284D01*
X0086543Y0061882D02*
X0085143Y0061882D01*
X0085143Y0062481D02*
X0086543Y0062481D01*
X0086543Y0063079D02*
X0085143Y0063079D01*
X0085143Y0063678D02*
X0086543Y0063678D01*
X0086543Y0064276D02*
X0085143Y0064276D01*
X0085143Y0064875D02*
X0086543Y0064875D01*
X0086543Y0065473D02*
X0085143Y0065473D01*
X0085143Y0066072D02*
X0086543Y0066072D01*
X0086543Y0066670D02*
X0085143Y0066670D01*
X0085143Y0067269D02*
X0086543Y0067269D01*
X0086543Y0067867D02*
X0085143Y0067867D01*
X0085143Y0068466D02*
X0086543Y0068466D01*
X0086543Y0069064D02*
X0085143Y0069064D01*
X0085143Y0069663D02*
X0086543Y0069663D01*
X0086543Y0070261D02*
X0085143Y0070261D01*
X0085143Y0070860D02*
X0086543Y0070860D01*
X0086543Y0071458D02*
X0085143Y0071458D01*
X0085143Y0072057D02*
X0086543Y0072057D01*
X0086543Y0072655D02*
X0085143Y0072655D01*
X0085143Y0073254D02*
X0086543Y0073254D01*
X0086543Y0073852D02*
X0085143Y0073852D01*
X0085143Y0074451D02*
X0086543Y0074451D01*
X0086543Y0075049D02*
X0085143Y0075049D01*
X0085143Y0075648D02*
X0086543Y0075648D01*
X0086543Y0076246D02*
X0085143Y0076246D01*
X0085143Y0076845D02*
X0086543Y0076845D01*
X0086543Y0077443D02*
X0085143Y0077443D01*
X0085143Y0078042D02*
X0086543Y0078042D01*
X0086543Y0078640D02*
X0085143Y0078640D01*
X0085143Y0079239D02*
X0086543Y0079239D01*
X0086543Y0079838D02*
X0085143Y0079838D01*
X0085143Y0080436D02*
X0086543Y0080436D01*
X0086543Y0081035D02*
X0085143Y0081035D01*
X0085143Y0081633D02*
X0086543Y0081633D01*
X0086543Y0082232D02*
X0085143Y0082232D01*
X0085143Y0082830D02*
X0086543Y0082830D01*
X0086543Y0083429D02*
X0085143Y0083429D01*
X0085143Y0084027D02*
X0086543Y0084027D01*
X0086543Y0084626D02*
X0085143Y0084626D01*
X0085143Y0085224D02*
X0086543Y0085224D01*
X0086543Y0085823D02*
X0085143Y0085823D01*
X0085143Y0086421D02*
X0086543Y0086421D01*
X0086543Y0087020D02*
X0085143Y0087020D01*
X0085143Y0087618D02*
X0086543Y0087618D01*
X0086543Y0088217D02*
X0085143Y0088217D01*
X0085143Y0088815D02*
X0086543Y0088815D01*
X0086543Y0089414D02*
X0085143Y0089414D01*
X0085143Y0090012D02*
X0086543Y0090012D01*
X0086543Y0090611D02*
X0085143Y0090611D01*
X0085143Y0091209D02*
X0086543Y0091209D01*
X0086543Y0091808D02*
X0085143Y0091808D01*
X0085143Y0092406D02*
X0086543Y0092406D01*
X0086543Y0093005D02*
X0085143Y0093005D01*
X0085143Y0093603D02*
X0086543Y0093603D01*
X0086543Y0094202D02*
X0085143Y0094202D01*
X0085143Y0094800D02*
X0086543Y0094800D01*
X0086543Y0095399D02*
X0085143Y0095399D01*
X0085143Y0095997D02*
X0086543Y0095997D01*
X0086543Y0096596D02*
X0085143Y0096596D01*
X0085143Y0097194D02*
X0086543Y0097194D01*
X0086543Y0097793D02*
X0085143Y0097793D01*
X0085143Y0098391D02*
X0086543Y0098391D01*
X0086543Y0098990D02*
X0085143Y0098990D01*
X0085143Y0099588D02*
X0086543Y0099588D01*
X0086543Y0100187D02*
X0085143Y0100187D01*
X0085143Y0100785D02*
X0086543Y0100785D01*
X0086543Y0101384D02*
X0085324Y0101384D01*
X0085923Y0101982D02*
X0086543Y0101982D01*
X0086521Y0102581D02*
X0086543Y0102581D01*
X0072187Y0114551D02*
X0030040Y0114551D01*
X0030040Y0113953D02*
X0071589Y0113953D01*
X0070990Y0113354D02*
X0030040Y0113354D01*
X0030040Y0112756D02*
X0070391Y0112756D01*
X0069793Y0112157D02*
X0030040Y0112157D01*
X0030040Y0111559D02*
X0069194Y0111559D01*
X0068596Y0110960D02*
X0030040Y0110960D01*
X0030040Y0110362D02*
X0067997Y0110362D01*
X0067727Y0109763D02*
X0030040Y0109763D01*
X0030040Y0109165D02*
X0067479Y0109165D01*
X0067231Y0108566D02*
X0030040Y0108566D01*
X0030040Y0107968D02*
X0066983Y0107968D01*
X0066735Y0107369D02*
X0030040Y0107369D01*
X0030040Y0106771D02*
X0066543Y0106771D01*
X0066543Y0106172D02*
X0030040Y0106172D01*
X0030040Y0105573D02*
X0066543Y0105573D01*
X0066543Y0104975D02*
X0030040Y0104975D01*
X0030040Y0104376D02*
X0066543Y0104376D01*
X0066543Y0103778D02*
X0030040Y0103778D01*
X0030040Y0103179D02*
X0066543Y0103179D01*
X0066543Y0102581D02*
X0030040Y0102581D01*
X0030040Y0101982D02*
X0066543Y0101982D01*
X0066543Y0101384D02*
X0030040Y0101384D01*
X0030040Y0100785D02*
X0066543Y0100785D01*
X0066543Y0100187D02*
X0030040Y0100187D01*
X0030040Y0099588D02*
X0066543Y0099588D01*
X0066543Y0098990D02*
X0030040Y0098990D01*
X0030040Y0098391D02*
X0066543Y0098391D01*
X0066543Y0097793D02*
X0030040Y0097793D01*
X0030040Y0097194D02*
X0066543Y0097194D01*
X0066543Y0096596D02*
X0030040Y0096596D01*
X0030040Y0095997D02*
X0066543Y0095997D01*
X0066543Y0095399D02*
X0030040Y0095399D01*
X0030040Y0094800D02*
X0066543Y0094800D01*
X0066543Y0094202D02*
X0030040Y0094202D01*
X0030040Y0093603D02*
X0066543Y0093603D01*
X0066543Y0093005D02*
X0030040Y0093005D01*
X0030040Y0092406D02*
X0066543Y0092406D01*
X0066543Y0091808D02*
X0030040Y0091808D01*
X0030040Y0091209D02*
X0066543Y0091209D01*
X0066543Y0090611D02*
X0030040Y0090611D01*
X0030040Y0090012D02*
X0066543Y0090012D01*
X0066543Y0089414D02*
X0030040Y0089414D01*
X0030040Y0088815D02*
X0066543Y0088815D01*
X0066543Y0088217D02*
X0030040Y0088217D01*
X0030040Y0087618D02*
X0066543Y0087618D01*
X0066543Y0087020D02*
X0030040Y0087020D01*
X0030040Y0086421D02*
X0066543Y0086421D01*
X0066543Y0085823D02*
X0030040Y0085823D01*
X0030040Y0085224D02*
X0066543Y0085224D01*
X0066543Y0084626D02*
X0030040Y0084626D01*
X0030040Y0084027D02*
X0066543Y0084027D01*
X0066543Y0083429D02*
X0030040Y0083429D01*
X0030040Y0082830D02*
X0066543Y0082830D01*
X0066543Y0082232D02*
X0030040Y0082232D01*
X0030040Y0081633D02*
X0066543Y0081633D01*
X0066543Y0081035D02*
X0030040Y0081035D01*
X0030040Y0080436D02*
X0066543Y0080436D01*
X0066543Y0079838D02*
X0030040Y0079838D01*
X0030040Y0079239D02*
X0066543Y0079239D01*
X0066543Y0078640D02*
X0030040Y0078640D01*
X0030040Y0078042D02*
X0066543Y0078042D01*
X0066543Y0077443D02*
X0030040Y0077443D01*
X0030040Y0076845D02*
X0066543Y0076845D01*
X0066543Y0076246D02*
X0030040Y0076246D01*
X0030040Y0075648D02*
X0066543Y0075648D01*
X0066543Y0075049D02*
X0030040Y0075049D01*
X0030040Y0074451D02*
X0066543Y0074451D01*
X0066543Y0073852D02*
X0030040Y0073852D01*
X0030040Y0073254D02*
X0066543Y0073254D01*
X0066543Y0072655D02*
X0030040Y0072655D01*
X0030040Y0072057D02*
X0066543Y0072057D01*
X0066543Y0071458D02*
X0030040Y0071458D01*
X0030040Y0070860D02*
X0066543Y0070860D01*
X0066543Y0070261D02*
X0030040Y0070261D01*
X0030040Y0069663D02*
X0066543Y0069663D01*
X0066543Y0069064D02*
X0030040Y0069064D01*
X0030040Y0068466D02*
X0066543Y0068466D01*
X0066543Y0067867D02*
X0030040Y0067867D01*
X0030040Y0067269D02*
X0066543Y0067269D01*
X0066543Y0066670D02*
X0030040Y0066670D01*
X0030040Y0066072D02*
X0066543Y0066072D01*
X0066543Y0065473D02*
X0030040Y0065473D01*
X0030040Y0064875D02*
X0066543Y0064875D01*
X0066543Y0064276D02*
X0030040Y0064276D01*
X0030040Y0063678D02*
X0066543Y0063678D01*
X0066543Y0063079D02*
X0030040Y0063079D01*
X0030040Y0062481D02*
X0066543Y0062481D01*
X0066543Y0061882D02*
X0030040Y0061882D01*
X0030040Y0061284D02*
X0066543Y0061284D01*
X0066543Y0060685D02*
X0030040Y0060685D01*
X0030040Y0060087D02*
X0066543Y0060087D01*
X0066543Y0059488D02*
X0030040Y0059488D01*
X0030040Y0058890D02*
X0066543Y0058890D01*
X0066543Y0058291D02*
X0030040Y0058291D01*
X0030040Y0057693D02*
X0066543Y0057693D01*
X0066543Y0057094D02*
X0030040Y0057094D01*
X0030040Y0056496D02*
X0066543Y0056496D01*
X0066543Y0055897D02*
X0030040Y0055897D01*
X0030040Y0055299D02*
X0066543Y0055299D01*
X0066543Y0054700D02*
X0030040Y0054700D01*
X0030040Y0054102D02*
X0066543Y0054102D01*
X0066543Y0053503D02*
X0030040Y0053503D01*
X0030040Y0052904D02*
X0066543Y0052904D01*
X0066543Y0052306D02*
X0030040Y0052306D01*
X0030040Y0051707D02*
X0066543Y0051707D01*
X0066543Y0051109D02*
X0030040Y0051109D01*
X0030040Y0050510D02*
X0066543Y0050510D01*
X0066543Y0049912D02*
X0030040Y0049912D01*
X0030040Y0049313D02*
X0066543Y0049313D01*
X0066543Y0048715D02*
X0030040Y0048715D01*
X0030040Y0048116D02*
X0066543Y0048116D01*
X0066543Y0047518D02*
X0030040Y0047518D01*
X0030040Y0046919D02*
X0066543Y0046919D01*
X0066547Y0046321D02*
X0030040Y0046321D01*
X0030040Y0045722D02*
X0066795Y0045722D01*
X0067043Y0045124D02*
X0030040Y0045124D01*
X0030040Y0044525D02*
X0067291Y0044525D01*
X0067539Y0043927D02*
X0030075Y0043927D01*
X0030122Y0043328D02*
X0067705Y0043328D01*
X0067705Y0042730D02*
X0030182Y0042730D01*
X0030377Y0042131D02*
X0067950Y0042131D01*
X0068197Y0041533D02*
X0030571Y0041533D01*
X0030766Y0040934D02*
X0068445Y0040934D01*
X0068693Y0040336D02*
X0030960Y0040336D01*
X0031169Y0039737D02*
X0068941Y0039737D01*
X0069536Y0039139D02*
X0031604Y0039139D01*
X0032039Y0038540D02*
X0070135Y0038540D01*
X0070733Y0037942D02*
X0032474Y0037942D01*
X0032909Y0037343D02*
X0071471Y0037343D01*
X0072916Y0036745D02*
X0033649Y0036745D01*
X0034473Y0036146D02*
X0337174Y0036146D01*
X0336351Y0035548D02*
X0035296Y0035548D01*
X0036809Y0034949D02*
X0334838Y0034949D01*
X0332747Y0034351D02*
X0038900Y0034351D01*
X0030040Y0115150D02*
X0072786Y0115150D01*
X0073384Y0115748D02*
X0030040Y0115748D01*
X0030040Y0116347D02*
X0073983Y0116347D01*
X0074581Y0116945D02*
X0030040Y0116945D01*
X0030040Y0117544D02*
X0075180Y0117544D01*
X0076065Y0118142D02*
X0030040Y0118142D01*
X0030040Y0118741D02*
X0077510Y0118741D01*
X0078955Y0119339D02*
X0030040Y0119339D01*
X0030040Y0119938D02*
X0086543Y0119938D01*
X0086543Y0120536D02*
X0030040Y0120536D01*
X0030040Y0121135D02*
X0086543Y0121135D01*
X0086543Y0121733D02*
X0030040Y0121733D01*
X0030040Y0122332D02*
X0086543Y0122332D01*
X0086543Y0122930D02*
X0030040Y0122930D01*
X0030040Y0123529D02*
X0086543Y0123529D01*
X0086543Y0124127D02*
X0030040Y0124127D01*
X0030040Y0124726D02*
X0079502Y0124726D01*
X0079762Y0124618D02*
X0081925Y0124618D01*
X0083923Y0125446D01*
X0085452Y0126975D01*
X0086280Y0128974D01*
X0086280Y0131137D01*
X0085452Y0133135D01*
X0083923Y0134664D01*
X0081925Y0135492D01*
X0079762Y0135492D01*
X0077763Y0134664D01*
X0076234Y0133135D01*
X0075406Y0131137D01*
X0075406Y0128974D01*
X0076234Y0126975D01*
X0077763Y0125446D01*
X0079762Y0124618D01*
X0078057Y0125324D02*
X0030040Y0125324D01*
X0030040Y0125923D02*
X0077286Y0125923D01*
X0076688Y0126521D02*
X0030040Y0126521D01*
X0030040Y0127120D02*
X0076174Y0127120D01*
X0075926Y0127718D02*
X0030040Y0127718D01*
X0030040Y0128317D02*
X0075678Y0128317D01*
X0075430Y0128915D02*
X0030040Y0128915D01*
X0030040Y0129514D02*
X0075406Y0129514D01*
X0075406Y0130112D02*
X0030040Y0130112D01*
X0030040Y0130711D02*
X0075406Y0130711D01*
X0075478Y0131309D02*
X0030040Y0131309D01*
X0030040Y0131908D02*
X0075726Y0131908D01*
X0075974Y0132506D02*
X0030040Y0132506D01*
X0030040Y0133105D02*
X0076222Y0133105D01*
X0076802Y0133704D02*
X0030040Y0133704D01*
X0030040Y0134302D02*
X0077401Y0134302D01*
X0078334Y0134901D02*
X0030040Y0134901D01*
X0030040Y0135499D02*
X0086543Y0135499D01*
X0086543Y0134901D02*
X0083353Y0134901D01*
X0084285Y0134302D02*
X0086543Y0134302D01*
X0086543Y0133704D02*
X0084884Y0133704D01*
X0085465Y0133105D02*
X0086543Y0133105D01*
X0086543Y0132506D02*
X0085713Y0132506D01*
X0085961Y0131908D02*
X0086543Y0131908D01*
X0086543Y0131309D02*
X0086209Y0131309D01*
X0086280Y0130711D02*
X0086543Y0130711D01*
X0086543Y0130112D02*
X0086280Y0130112D01*
X0086280Y0129514D02*
X0086543Y0129514D01*
X0086543Y0128915D02*
X0086256Y0128915D01*
X0086008Y0128317D02*
X0086543Y0128317D01*
X0086543Y0127718D02*
X0085760Y0127718D01*
X0085512Y0127120D02*
X0086543Y0127120D01*
X0086543Y0126521D02*
X0084999Y0126521D01*
X0084400Y0125923D02*
X0086543Y0125923D01*
X0086543Y0125324D02*
X0083630Y0125324D01*
X0082185Y0124726D02*
X0086543Y0124726D01*
X0086543Y0119339D02*
X0082731Y0119339D01*
X0084176Y0118741D02*
X0086543Y0118741D01*
X0086543Y0118142D02*
X0085621Y0118142D01*
X0086507Y0117544D02*
X0086543Y0117544D01*
X0112185Y0124726D02*
X0139502Y0124726D01*
X0138057Y0125324D02*
X0113630Y0125324D01*
X0114400Y0125923D02*
X0137286Y0125923D01*
X0136688Y0126521D02*
X0114999Y0126521D01*
X0115512Y0127120D02*
X0136174Y0127120D01*
X0135926Y0127718D02*
X0115760Y0127718D01*
X0116008Y0128317D02*
X0135678Y0128317D01*
X0135430Y0128915D02*
X0116256Y0128915D01*
X0116280Y0129514D02*
X0135406Y0129514D01*
X0135406Y0130112D02*
X0116280Y0130112D01*
X0116280Y0130711D02*
X0135406Y0130711D01*
X0135478Y0131309D02*
X0116209Y0131309D01*
X0115961Y0131908D02*
X0135726Y0131908D01*
X0135974Y0132506D02*
X0115713Y0132506D01*
X0115465Y0133105D02*
X0136222Y0133105D01*
X0136802Y0133704D02*
X0114884Y0133704D01*
X0114285Y0134302D02*
X0137401Y0134302D01*
X0138334Y0134901D02*
X0113543Y0134901D01*
X0086543Y0136098D02*
X0030040Y0136098D01*
X0030040Y0136696D02*
X0086543Y0136696D01*
X0086543Y0137295D02*
X0030040Y0137295D01*
X0030040Y0137893D02*
X0086543Y0137893D01*
X0086543Y0138492D02*
X0030040Y0138492D01*
X0030040Y0139090D02*
X0086543Y0139090D01*
X0086543Y0139689D02*
X0030040Y0139689D01*
X0030040Y0140287D02*
X0086543Y0140287D01*
X0086543Y0140886D02*
X0030040Y0140886D01*
X0030040Y0141484D02*
X0086543Y0141484D01*
X0086543Y0142083D02*
X0030040Y0142083D01*
X0030040Y0142681D02*
X0086543Y0142681D01*
X0086543Y0143280D02*
X0030040Y0143280D01*
X0030040Y0143878D02*
X0086543Y0143878D01*
X0086543Y0144477D02*
X0030040Y0144477D01*
X0030040Y0145075D02*
X0086543Y0145075D01*
X0086543Y0145674D02*
X0030040Y0145674D01*
X0030040Y0146272D02*
X0086543Y0146272D01*
X0086543Y0146871D02*
X0030040Y0146871D01*
X0030040Y0147469D02*
X0086543Y0147469D01*
X0086543Y0148068D02*
X0030040Y0148068D01*
X0030040Y0148666D02*
X0086543Y0148666D01*
X0086543Y0149265D02*
X0030040Y0149265D01*
X0030040Y0149863D02*
X0086543Y0149863D01*
X0086543Y0150462D02*
X0030040Y0150462D01*
X0030040Y0151060D02*
X0086543Y0151060D01*
X0086543Y0151659D02*
X0030040Y0151659D01*
X0030040Y0152257D02*
X0086543Y0152257D01*
X0086543Y0152856D02*
X0030040Y0152856D01*
X0030040Y0153454D02*
X0086543Y0153454D01*
X0086543Y0154053D02*
X0030040Y0154053D01*
X0030040Y0154651D02*
X0086543Y0154651D01*
X0086543Y0155250D02*
X0030040Y0155250D01*
X0030040Y0155848D02*
X0086543Y0155848D01*
X0086543Y0156447D02*
X0030040Y0156447D01*
X0030040Y0157045D02*
X0086543Y0157045D01*
X0086543Y0157644D02*
X0030040Y0157644D01*
X0030040Y0158242D02*
X0086543Y0158242D01*
X0086543Y0158841D02*
X0030040Y0158841D01*
X0030040Y0159440D02*
X0086543Y0159440D01*
X0086543Y0160038D02*
X0030040Y0160038D01*
X0030040Y0160637D02*
X0086543Y0160637D01*
X0086543Y0161235D02*
X0030040Y0161235D01*
X0030040Y0161834D02*
X0086543Y0161834D01*
X0086543Y0162432D02*
X0030040Y0162432D01*
X0030040Y0163031D02*
X0086543Y0163031D01*
X0086543Y0163629D02*
X0030040Y0163629D01*
X0030040Y0164228D02*
X0086543Y0164228D01*
X0086543Y0164826D02*
X0030040Y0164826D01*
X0030040Y0165425D02*
X0086543Y0165425D01*
X0086543Y0166023D02*
X0030040Y0166023D01*
X0030040Y0166622D02*
X0086543Y0166622D01*
X0086674Y0167220D02*
X0030040Y0167220D01*
X0030040Y0167819D02*
X0086922Y0167819D01*
X0087170Y0168417D02*
X0030040Y0168417D01*
X0030040Y0169016D02*
X0087417Y0169016D01*
X0087665Y0169614D02*
X0030040Y0169614D01*
X0030040Y0170213D02*
X0087913Y0170213D01*
X0088447Y0170811D02*
X0030040Y0170811D01*
X0030040Y0171410D02*
X0089046Y0171410D01*
X0089644Y0172008D02*
X0030040Y0172008D01*
X0030040Y0172607D02*
X0090243Y0172607D01*
X0090841Y0173205D02*
X0030040Y0173205D01*
X0030040Y0173804D02*
X0091440Y0173804D01*
X0092038Y0174402D02*
X0030040Y0174402D01*
X0030040Y0175001D02*
X0092637Y0175001D01*
X0093235Y0175599D02*
X0030040Y0175599D01*
X0030040Y0176198D02*
X0093834Y0176198D01*
X0094432Y0176796D02*
X0030040Y0176796D01*
X0030040Y0177395D02*
X0095031Y0177395D01*
X0095629Y0177993D02*
X0030040Y0177993D01*
X0030040Y0178592D02*
X0096228Y0178592D01*
X0096826Y0179190D02*
X0030040Y0179190D01*
X0030040Y0179789D02*
X0097425Y0179789D01*
X0098023Y0180387D02*
X0030040Y0180387D01*
X0030040Y0180986D02*
X0098622Y0180986D01*
X0099220Y0181584D02*
X0030040Y0181584D01*
X0030040Y0182183D02*
X0099819Y0182183D01*
X0100417Y0182781D02*
X0030040Y0182781D01*
X0030040Y0183380D02*
X0101016Y0183380D01*
X0101614Y0183978D02*
X0030040Y0183978D01*
X0030040Y0184577D02*
X0102213Y0184577D01*
X0102811Y0185175D02*
X0030040Y0185175D01*
X0030040Y0185774D02*
X0103410Y0185774D01*
X0104008Y0186373D02*
X0030040Y0186373D01*
X0030040Y0186971D02*
X0104607Y0186971D01*
X0105205Y0187570D02*
X0030040Y0187570D01*
X0030040Y0188168D02*
X0106127Y0188168D01*
D17*
X0110843Y0180055D02*
X0095843Y0165055D01*
X0095843Y0048180D01*
X0075843Y0048180D02*
X0075843Y0105055D01*
X0080843Y0110055D01*
X0110843Y0110055D02*
X0115843Y0105055D01*
X0115843Y0048180D01*
X0135843Y0048180D02*
X0135843Y0105055D01*
X0140843Y0110055D01*
X0170843Y0110055D02*
X0175843Y0105055D01*
X0175843Y0048180D01*
X0195843Y0048180D02*
X0195843Y0105055D01*
X0200843Y0110055D01*
X0230843Y0110055D02*
X0235843Y0105055D01*
X0235843Y0048180D01*
X0215843Y0048180D02*
X0215843Y0165055D01*
X0230843Y0180055D01*
X0170843Y0180055D02*
X0155843Y0165055D01*
X0155843Y0048180D01*
D18*
X0170843Y0130055D02*
X0170843Y0148805D01*
X0110843Y0148805D02*
X0110843Y0130055D01*
X0230843Y0130055D02*
X0230843Y0148805D01*
D19*
X0243343Y0151305D02*
X0243343Y0143805D01*
X0253343Y0133805D01*
X0287093Y0105055D02*
X0287093Y0095680D01*
X0292093Y0175055D02*
X0273343Y0175055D01*
X0250843Y0175055D02*
X0250843Y0182555D01*
M02*
