G75*
%MOIN*%
%OFA0B0*%
%FSLAX25Y25*%
%IPPOS*%
%LPD*%
%AMOC8*
5,1,8,0,0,1.08239X$1,22.5*
%
%ADD10R,0.08000X0.02600*%
%ADD11R,0.02600X0.08000*%
%ADD12C,0.05937*%
%ADD13C,0.07000*%
%ADD14R,0.09449X0.09449*%
%ADD15R,0.05906X0.05118*%
%ADD16R,0.05118X0.05906*%
%ADD17R,0.05906X0.04724*%
%ADD18R,0.08661X0.02362*%
%ADD19C,0.07677*%
%ADD20R,0.05906X0.07874*%
%ADD21C,0.16992*%
%ADD22C,0.02400*%
%ADD23C,0.00800*%
%ADD24C,0.03962*%
%ADD25C,0.01600*%
D10*
X0183950Y0172500D03*
X0183950Y0177500D03*
X0183950Y0182500D03*
X0183950Y0187500D03*
X0183950Y0192500D03*
X0183950Y0197500D03*
X0183950Y0202500D03*
X0183950Y0207500D03*
X0183950Y0212500D03*
X0223550Y0212500D03*
X0223550Y0207500D03*
X0223550Y0202500D03*
X0223550Y0197500D03*
X0223550Y0192500D03*
X0223550Y0187500D03*
X0223550Y0182500D03*
X0223550Y0177500D03*
X0223550Y0172500D03*
D11*
X0272500Y0143350D03*
X0277500Y0143350D03*
X0282500Y0143350D03*
X0287500Y0143350D03*
X0292500Y0143350D03*
X0297500Y0143350D03*
X0302500Y0143350D03*
X0302500Y0119150D03*
X0297500Y0119150D03*
X0292500Y0119150D03*
X0287500Y0119150D03*
X0282500Y0119150D03*
X0277500Y0119150D03*
X0272500Y0119150D03*
D12*
X0332031Y0121250D02*
X0337969Y0121250D01*
X0337969Y0111250D02*
X0332031Y0111250D01*
X0332031Y0131250D02*
X0337969Y0131250D01*
X0337969Y0141250D02*
X0332031Y0141250D01*
X0332031Y0151250D02*
X0337969Y0151250D01*
D13*
X0240000Y0147500D03*
X0210000Y0147500D03*
X0162500Y0147500D03*
X0132500Y0147500D03*
X0085000Y0147500D03*
X0055000Y0147500D03*
X0055000Y0097500D03*
X0055000Y0077500D03*
X0085000Y0077500D03*
X0085000Y0097500D03*
X0132500Y0097500D03*
X0132500Y0077500D03*
X0162500Y0077500D03*
X0162500Y0097500D03*
X0210000Y0097500D03*
X0210000Y0077500D03*
X0240000Y0077500D03*
X0240000Y0097500D03*
D14*
X0257500Y0196407D03*
X0257500Y0216093D03*
X0305000Y0216093D03*
X0305000Y0196407D03*
D15*
X0270030Y0183278D03*
X0270030Y0174222D03*
X0310000Y0158740D03*
X0310000Y0151260D03*
X0293750Y0089990D03*
X0293750Y0082510D03*
D16*
X0302510Y0082500D03*
X0309990Y0082500D03*
X0287490Y0107500D03*
X0280010Y0107500D03*
X0238740Y0065000D03*
X0231260Y0065000D03*
X0218740Y0065000D03*
X0211260Y0065000D03*
X0161240Y0065000D03*
X0153760Y0065000D03*
X0141240Y0065000D03*
X0133760Y0065000D03*
X0083740Y0065000D03*
X0076260Y0065000D03*
X0063740Y0065000D03*
X0056260Y0065000D03*
X0313760Y0171250D03*
X0321240Y0171250D03*
X0331260Y0171250D03*
X0338740Y0171250D03*
X0338740Y0181250D03*
X0331260Y0181250D03*
X0321240Y0181250D03*
X0313760Y0181250D03*
D17*
X0309459Y0098750D03*
X0298041Y0098750D03*
X0289459Y0098750D03*
X0278041Y0098750D03*
D18*
X0271014Y0198750D03*
X0271014Y0203750D03*
X0271014Y0208750D03*
X0271014Y0213750D03*
X0291486Y0213750D03*
X0291486Y0208750D03*
X0291486Y0203750D03*
X0291486Y0198750D03*
D19*
X0282500Y0023839D02*
X0282500Y0016161D01*
X0302500Y0016161D02*
X0302500Y0023839D01*
X0322500Y0023839D02*
X0322500Y0016161D01*
X0245000Y0016161D02*
X0245000Y0023839D01*
X0225000Y0023839D02*
X0225000Y0016161D01*
X0205000Y0016161D02*
X0205000Y0023839D01*
X0167500Y0023839D02*
X0167500Y0016161D01*
X0147500Y0016161D02*
X0147500Y0023839D01*
X0127500Y0023839D02*
X0127500Y0016161D01*
X0090000Y0016161D02*
X0090000Y0023839D01*
X0070000Y0023839D02*
X0070000Y0016161D01*
X0050000Y0016161D02*
X0050000Y0023839D01*
D20*
X0292470Y0178750D03*
D21*
X0358268Y0220472D03*
X0358268Y0015748D03*
X0015748Y0015748D03*
X0015748Y0220472D03*
D22*
X0045000Y0192500D02*
X0045000Y0097500D01*
X0122500Y0097500D02*
X0122500Y0182500D01*
X0183950Y0182500D01*
X0183950Y0187500D01*
X0183950Y0192500D02*
X0045000Y0192500D01*
X0183950Y0192500D02*
X0183950Y0197500D01*
X0183950Y0212500D02*
X0210000Y0212500D01*
X0210000Y0217500D01*
X0248750Y0217500D01*
X0248750Y0196407D01*
X0257500Y0196407D01*
X0257500Y0198750D01*
X0271014Y0198750D01*
X0291486Y0198750D02*
X0305000Y0198750D01*
X0305000Y0196407D01*
X0347500Y0196407D01*
X0347500Y0151250D01*
X0335000Y0151250D01*
X0337500Y0151250D01*
X0335000Y0151250D02*
X0320000Y0151250D01*
X0320000Y0151260D01*
X0310000Y0151260D01*
X0302500Y0151260D01*
X0302500Y0171250D01*
X0313760Y0171250D01*
X0302500Y0151260D02*
X0302500Y0143350D01*
X0320000Y0111250D02*
X0335000Y0111250D01*
X0347500Y0098750D02*
X0347500Y0151250D01*
X0347500Y0098750D02*
X0309459Y0098750D01*
X0210000Y0156250D02*
X0210000Y0212500D01*
X0183950Y0177500D02*
X0183950Y0172500D01*
X0200000Y0172500D01*
X0200000Y0097500D01*
D23*
X0002306Y0002306D02*
X0001504Y0003246D01*
X0000858Y0004299D01*
X0000385Y0005441D01*
X0000097Y0006642D01*
X0000000Y0007874D01*
X0000000Y0228346D01*
X0000097Y0229578D01*
X0000385Y0230780D01*
X0000858Y0231921D01*
X0001504Y0232975D01*
X0002306Y0233914D01*
X0003246Y0234717D01*
X0004299Y0235362D01*
X0005441Y0235835D01*
X0006642Y0236124D01*
X0007874Y0236220D01*
X0366142Y0236220D01*
X0367373Y0236124D01*
X0368575Y0235835D01*
X0369716Y0235362D01*
X0370770Y0234717D01*
X0371709Y0233914D01*
X0372512Y0232975D01*
X0373158Y0231921D01*
X0373630Y0230780D01*
X0373919Y0229578D01*
X0374016Y0228346D01*
X0374016Y0007874D01*
X0373919Y0006642D01*
X0373630Y0005441D01*
X0373158Y0004299D01*
X0372512Y0003246D01*
X0371709Y0002306D01*
X0370770Y0001504D01*
X0369716Y0000858D01*
X0368575Y0000385D01*
X0367373Y0000097D01*
X0366142Y0000000D01*
X0007874Y0000000D01*
X0006642Y0000097D01*
X0005441Y0000385D01*
X0004299Y0000858D01*
X0003246Y0001504D01*
X0002306Y0002306D01*
X0002230Y0002396D02*
X0371786Y0002396D01*
X0372468Y0003194D02*
X0001548Y0003194D01*
X0001046Y0003993D02*
X0372970Y0003993D01*
X0373361Y0004791D02*
X0000655Y0004791D01*
X0000350Y0005590D02*
X0373666Y0005590D01*
X0373858Y0006388D02*
X0000158Y0006388D01*
X0000054Y0007187D02*
X0373962Y0007187D01*
X0374016Y0007985D02*
X0000000Y0007985D01*
X0000000Y0008784D02*
X0374016Y0008784D01*
X0374016Y0009582D02*
X0000000Y0009582D01*
X0000000Y0010381D02*
X0048699Y0010381D01*
X0048839Y0010323D02*
X0051161Y0010323D01*
X0053307Y0011212D01*
X0054950Y0012854D01*
X0055839Y0015000D01*
X0055839Y0025000D01*
X0054950Y0027146D01*
X0053307Y0028788D01*
X0051161Y0029677D01*
X0048839Y0029677D01*
X0046693Y0028788D01*
X0045050Y0027146D01*
X0044161Y0025000D01*
X0044161Y0015000D01*
X0045050Y0012854D01*
X0046693Y0011212D01*
X0048839Y0010323D01*
X0046771Y0011179D02*
X0000000Y0011179D01*
X0000000Y0011978D02*
X0045927Y0011978D01*
X0045128Y0012776D02*
X0000000Y0012776D01*
X0000000Y0013575D02*
X0044752Y0013575D01*
X0044421Y0014373D02*
X0000000Y0014373D01*
X0000000Y0015172D02*
X0044161Y0015172D01*
X0044161Y0015970D02*
X0000000Y0015970D01*
X0000000Y0016769D02*
X0044161Y0016769D01*
X0044161Y0017567D02*
X0000000Y0017567D01*
X0000000Y0018366D02*
X0044161Y0018366D01*
X0044161Y0019164D02*
X0000000Y0019164D01*
X0000000Y0019963D02*
X0044161Y0019963D01*
X0044161Y0020761D02*
X0000000Y0020761D01*
X0000000Y0021560D02*
X0044161Y0021560D01*
X0044161Y0022358D02*
X0000000Y0022358D01*
X0000000Y0023157D02*
X0044161Y0023157D01*
X0044161Y0023955D02*
X0000000Y0023955D01*
X0000000Y0024754D02*
X0044161Y0024754D01*
X0044390Y0025552D02*
X0000000Y0025552D01*
X0000000Y0026351D02*
X0044721Y0026351D01*
X0045054Y0027149D02*
X0000000Y0027149D01*
X0000000Y0027948D02*
X0045852Y0027948D01*
X0046651Y0028746D02*
X0000000Y0028746D01*
X0000000Y0029545D02*
X0048519Y0029545D01*
X0051481Y0029545D02*
X0068519Y0029545D01*
X0068839Y0029677D02*
X0066693Y0028788D01*
X0065050Y0027146D01*
X0064161Y0025000D01*
X0064161Y0015000D01*
X0065050Y0012854D01*
X0066693Y0011212D01*
X0068839Y0010323D01*
X0071161Y0010323D01*
X0073307Y0011212D01*
X0074950Y0012854D01*
X0075839Y0015000D01*
X0075839Y0025000D01*
X0074950Y0027146D01*
X0073307Y0028788D01*
X0071161Y0029677D01*
X0068839Y0029677D01*
X0066651Y0028746D02*
X0053349Y0028746D01*
X0054148Y0027948D02*
X0065852Y0027948D01*
X0065054Y0027149D02*
X0054946Y0027149D01*
X0055279Y0026351D02*
X0064721Y0026351D01*
X0064390Y0025552D02*
X0055610Y0025552D01*
X0055839Y0024754D02*
X0064161Y0024754D01*
X0064161Y0023955D02*
X0055839Y0023955D01*
X0055839Y0023157D02*
X0064161Y0023157D01*
X0064161Y0022358D02*
X0055839Y0022358D01*
X0055839Y0021560D02*
X0064161Y0021560D01*
X0064161Y0020761D02*
X0055839Y0020761D01*
X0055839Y0019963D02*
X0064161Y0019963D01*
X0064161Y0019164D02*
X0055839Y0019164D01*
X0055839Y0018366D02*
X0064161Y0018366D01*
X0064161Y0017567D02*
X0055839Y0017567D01*
X0055839Y0016769D02*
X0064161Y0016769D01*
X0064161Y0015970D02*
X0055839Y0015970D01*
X0055839Y0015172D02*
X0064161Y0015172D01*
X0064421Y0014373D02*
X0055579Y0014373D01*
X0055248Y0013575D02*
X0064752Y0013575D01*
X0065128Y0012776D02*
X0054872Y0012776D01*
X0054073Y0011978D02*
X0065927Y0011978D01*
X0066771Y0011179D02*
X0053229Y0011179D01*
X0051301Y0010381D02*
X0068699Y0010381D01*
X0071301Y0010381D02*
X0088699Y0010381D01*
X0088839Y0010323D02*
X0091161Y0010323D01*
X0093307Y0011212D01*
X0094950Y0012854D01*
X0095839Y0015000D01*
X0095839Y0025000D01*
X0094950Y0027146D01*
X0093307Y0028788D01*
X0091161Y0029677D01*
X0088839Y0029677D01*
X0086693Y0028788D01*
X0085050Y0027146D01*
X0084161Y0025000D01*
X0084161Y0015000D01*
X0085050Y0012854D01*
X0086693Y0011212D01*
X0088839Y0010323D01*
X0086771Y0011179D02*
X0073229Y0011179D01*
X0074073Y0011978D02*
X0085927Y0011978D01*
X0085128Y0012776D02*
X0074872Y0012776D01*
X0075248Y0013575D02*
X0084752Y0013575D01*
X0084421Y0014373D02*
X0075579Y0014373D01*
X0075839Y0015172D02*
X0084161Y0015172D01*
X0084161Y0015970D02*
X0075839Y0015970D01*
X0075839Y0016769D02*
X0084161Y0016769D01*
X0084161Y0017567D02*
X0075839Y0017567D01*
X0075839Y0018366D02*
X0084161Y0018366D01*
X0084161Y0019164D02*
X0075839Y0019164D01*
X0075839Y0019963D02*
X0084161Y0019963D01*
X0084161Y0020761D02*
X0075839Y0020761D01*
X0075839Y0021560D02*
X0084161Y0021560D01*
X0084161Y0022358D02*
X0075839Y0022358D01*
X0075839Y0023157D02*
X0084161Y0023157D01*
X0084161Y0023955D02*
X0075839Y0023955D01*
X0075839Y0024754D02*
X0084161Y0024754D01*
X0084390Y0025552D02*
X0075610Y0025552D01*
X0075279Y0026351D02*
X0084721Y0026351D01*
X0085054Y0027149D02*
X0074946Y0027149D01*
X0074148Y0027948D02*
X0085852Y0027948D01*
X0086651Y0028746D02*
X0073349Y0028746D01*
X0071481Y0029545D02*
X0088519Y0029545D01*
X0091481Y0029545D02*
X0126019Y0029545D01*
X0126339Y0029677D02*
X0124193Y0028788D01*
X0122550Y0027146D01*
X0121661Y0025000D01*
X0121661Y0015000D01*
X0122550Y0012854D01*
X0124193Y0011212D01*
X0126339Y0010323D01*
X0128661Y0010323D01*
X0130807Y0011212D01*
X0132450Y0012854D01*
X0133339Y0015000D01*
X0133339Y0025000D01*
X0132450Y0027146D01*
X0130807Y0028788D01*
X0128661Y0029677D01*
X0126339Y0029677D01*
X0124151Y0028746D02*
X0093349Y0028746D01*
X0094148Y0027948D02*
X0123352Y0027948D01*
X0122554Y0027149D02*
X0094946Y0027149D01*
X0095279Y0026351D02*
X0122221Y0026351D01*
X0121890Y0025552D02*
X0095610Y0025552D01*
X0095839Y0024754D02*
X0121661Y0024754D01*
X0121661Y0023955D02*
X0095839Y0023955D01*
X0095839Y0023157D02*
X0121661Y0023157D01*
X0121661Y0022358D02*
X0095839Y0022358D01*
X0095839Y0021560D02*
X0121661Y0021560D01*
X0121661Y0020761D02*
X0095839Y0020761D01*
X0095839Y0019963D02*
X0121661Y0019963D01*
X0121661Y0019164D02*
X0095839Y0019164D01*
X0095839Y0018366D02*
X0121661Y0018366D01*
X0121661Y0017567D02*
X0095839Y0017567D01*
X0095839Y0016769D02*
X0121661Y0016769D01*
X0121661Y0015970D02*
X0095839Y0015970D01*
X0095839Y0015172D02*
X0121661Y0015172D01*
X0121921Y0014373D02*
X0095579Y0014373D01*
X0095248Y0013575D02*
X0122252Y0013575D01*
X0122628Y0012776D02*
X0094872Y0012776D01*
X0094073Y0011978D02*
X0123427Y0011978D01*
X0124271Y0011179D02*
X0093229Y0011179D01*
X0091301Y0010381D02*
X0126199Y0010381D01*
X0128801Y0010381D02*
X0146199Y0010381D01*
X0146339Y0010323D02*
X0148661Y0010323D01*
X0150807Y0011212D01*
X0152450Y0012854D01*
X0153339Y0015000D01*
X0153339Y0025000D01*
X0152450Y0027146D01*
X0150807Y0028788D01*
X0148661Y0029677D01*
X0146339Y0029677D01*
X0144193Y0028788D01*
X0142550Y0027146D01*
X0141661Y0025000D01*
X0141661Y0015000D01*
X0142550Y0012854D01*
X0144193Y0011212D01*
X0146339Y0010323D01*
X0144271Y0011179D02*
X0130729Y0011179D01*
X0131573Y0011978D02*
X0143427Y0011978D01*
X0142628Y0012776D02*
X0132372Y0012776D01*
X0132748Y0013575D02*
X0142252Y0013575D01*
X0141921Y0014373D02*
X0133079Y0014373D01*
X0133339Y0015172D02*
X0141661Y0015172D01*
X0141661Y0015970D02*
X0133339Y0015970D01*
X0133339Y0016769D02*
X0141661Y0016769D01*
X0141661Y0017567D02*
X0133339Y0017567D01*
X0133339Y0018366D02*
X0141661Y0018366D01*
X0141661Y0019164D02*
X0133339Y0019164D01*
X0133339Y0019963D02*
X0141661Y0019963D01*
X0141661Y0020761D02*
X0133339Y0020761D01*
X0133339Y0021560D02*
X0141661Y0021560D01*
X0141661Y0022358D02*
X0133339Y0022358D01*
X0133339Y0023157D02*
X0141661Y0023157D01*
X0141661Y0023955D02*
X0133339Y0023955D01*
X0133339Y0024754D02*
X0141661Y0024754D01*
X0141890Y0025552D02*
X0133110Y0025552D01*
X0132779Y0026351D02*
X0142221Y0026351D01*
X0142554Y0027149D02*
X0132446Y0027149D01*
X0131648Y0027948D02*
X0143352Y0027948D01*
X0144151Y0028746D02*
X0130849Y0028746D01*
X0128981Y0029545D02*
X0146019Y0029545D01*
X0148981Y0029545D02*
X0166019Y0029545D01*
X0166339Y0029677D02*
X0164193Y0028788D01*
X0162550Y0027146D01*
X0161661Y0025000D01*
X0161661Y0015000D01*
X0162550Y0012854D01*
X0164193Y0011212D01*
X0166339Y0010323D01*
X0168661Y0010323D01*
X0170807Y0011212D01*
X0172450Y0012854D01*
X0173339Y0015000D01*
X0173339Y0025000D01*
X0172450Y0027146D01*
X0170807Y0028788D01*
X0168661Y0029677D01*
X0166339Y0029677D01*
X0164151Y0028746D02*
X0150849Y0028746D01*
X0151648Y0027948D02*
X0163352Y0027948D01*
X0162554Y0027149D02*
X0152446Y0027149D01*
X0152779Y0026351D02*
X0162221Y0026351D01*
X0161890Y0025552D02*
X0153110Y0025552D01*
X0153339Y0024754D02*
X0161661Y0024754D01*
X0161661Y0023955D02*
X0153339Y0023955D01*
X0153339Y0023157D02*
X0161661Y0023157D01*
X0161661Y0022358D02*
X0153339Y0022358D01*
X0153339Y0021560D02*
X0161661Y0021560D01*
X0161661Y0020761D02*
X0153339Y0020761D01*
X0153339Y0019963D02*
X0161661Y0019963D01*
X0161661Y0019164D02*
X0153339Y0019164D01*
X0153339Y0018366D02*
X0161661Y0018366D01*
X0161661Y0017567D02*
X0153339Y0017567D01*
X0153339Y0016769D02*
X0161661Y0016769D01*
X0161661Y0015970D02*
X0153339Y0015970D01*
X0153339Y0015172D02*
X0161661Y0015172D01*
X0161921Y0014373D02*
X0153079Y0014373D01*
X0152748Y0013575D02*
X0162252Y0013575D01*
X0162628Y0012776D02*
X0152372Y0012776D01*
X0151573Y0011978D02*
X0163427Y0011978D01*
X0164271Y0011179D02*
X0150729Y0011179D01*
X0148801Y0010381D02*
X0166199Y0010381D01*
X0168801Y0010381D02*
X0203699Y0010381D01*
X0203839Y0010323D02*
X0206161Y0010323D01*
X0208307Y0011212D01*
X0209950Y0012854D01*
X0210839Y0015000D01*
X0210839Y0025000D01*
X0209950Y0027146D01*
X0208307Y0028788D01*
X0206161Y0029677D01*
X0203839Y0029677D01*
X0201693Y0028788D01*
X0200050Y0027146D01*
X0199161Y0025000D01*
X0199161Y0015000D01*
X0200050Y0012854D01*
X0201693Y0011212D01*
X0203839Y0010323D01*
X0201771Y0011179D02*
X0170729Y0011179D01*
X0171573Y0011978D02*
X0200927Y0011978D01*
X0200128Y0012776D02*
X0172372Y0012776D01*
X0172748Y0013575D02*
X0199752Y0013575D01*
X0199421Y0014373D02*
X0173079Y0014373D01*
X0173339Y0015172D02*
X0199161Y0015172D01*
X0199161Y0015970D02*
X0173339Y0015970D01*
X0173339Y0016769D02*
X0199161Y0016769D01*
X0199161Y0017567D02*
X0173339Y0017567D01*
X0173339Y0018366D02*
X0199161Y0018366D01*
X0199161Y0019164D02*
X0173339Y0019164D01*
X0173339Y0019963D02*
X0199161Y0019963D01*
X0199161Y0020761D02*
X0173339Y0020761D01*
X0173339Y0021560D02*
X0199161Y0021560D01*
X0199161Y0022358D02*
X0173339Y0022358D01*
X0173339Y0023157D02*
X0199161Y0023157D01*
X0199161Y0023955D02*
X0173339Y0023955D01*
X0173339Y0024754D02*
X0199161Y0024754D01*
X0199390Y0025552D02*
X0173110Y0025552D01*
X0172779Y0026351D02*
X0199721Y0026351D01*
X0200054Y0027149D02*
X0172446Y0027149D01*
X0171648Y0027948D02*
X0200852Y0027948D01*
X0201651Y0028746D02*
X0170849Y0028746D01*
X0168981Y0029545D02*
X0203519Y0029545D01*
X0206481Y0029545D02*
X0223519Y0029545D01*
X0223839Y0029677D02*
X0221693Y0028788D01*
X0220050Y0027146D01*
X0219161Y0025000D01*
X0219161Y0015000D01*
X0220050Y0012854D01*
X0221693Y0011212D01*
X0223839Y0010323D01*
X0226161Y0010323D01*
X0228307Y0011212D01*
X0229950Y0012854D01*
X0230839Y0015000D01*
X0230839Y0025000D01*
X0229950Y0027146D01*
X0228307Y0028788D01*
X0226161Y0029677D01*
X0223839Y0029677D01*
X0221651Y0028746D02*
X0208349Y0028746D01*
X0209148Y0027948D02*
X0220852Y0027948D01*
X0220054Y0027149D02*
X0209946Y0027149D01*
X0210279Y0026351D02*
X0219721Y0026351D01*
X0219390Y0025552D02*
X0210610Y0025552D01*
X0210839Y0024754D02*
X0219161Y0024754D01*
X0219161Y0023955D02*
X0210839Y0023955D01*
X0210839Y0023157D02*
X0219161Y0023157D01*
X0219161Y0022358D02*
X0210839Y0022358D01*
X0210839Y0021560D02*
X0219161Y0021560D01*
X0219161Y0020761D02*
X0210839Y0020761D01*
X0210839Y0019963D02*
X0219161Y0019963D01*
X0219161Y0019164D02*
X0210839Y0019164D01*
X0210839Y0018366D02*
X0219161Y0018366D01*
X0219161Y0017567D02*
X0210839Y0017567D01*
X0210839Y0016769D02*
X0219161Y0016769D01*
X0219161Y0015970D02*
X0210839Y0015970D01*
X0210839Y0015172D02*
X0219161Y0015172D01*
X0219421Y0014373D02*
X0210579Y0014373D01*
X0210248Y0013575D02*
X0219752Y0013575D01*
X0220128Y0012776D02*
X0209872Y0012776D01*
X0209073Y0011978D02*
X0220927Y0011978D01*
X0221771Y0011179D02*
X0208229Y0011179D01*
X0206301Y0010381D02*
X0223699Y0010381D01*
X0226301Y0010381D02*
X0243699Y0010381D01*
X0243839Y0010323D02*
X0246161Y0010323D01*
X0248307Y0011212D01*
X0249950Y0012854D01*
X0250839Y0015000D01*
X0250839Y0025000D01*
X0249950Y0027146D01*
X0248307Y0028788D01*
X0246161Y0029677D01*
X0243839Y0029677D01*
X0241693Y0028788D01*
X0240050Y0027146D01*
X0239161Y0025000D01*
X0239161Y0015000D01*
X0240050Y0012854D01*
X0241693Y0011212D01*
X0243839Y0010323D01*
X0241771Y0011179D02*
X0228229Y0011179D01*
X0229073Y0011978D02*
X0240927Y0011978D01*
X0240128Y0012776D02*
X0229872Y0012776D01*
X0230248Y0013575D02*
X0239752Y0013575D01*
X0239421Y0014373D02*
X0230579Y0014373D01*
X0230839Y0015172D02*
X0239161Y0015172D01*
X0239161Y0015970D02*
X0230839Y0015970D01*
X0230839Y0016769D02*
X0239161Y0016769D01*
X0239161Y0017567D02*
X0230839Y0017567D01*
X0230839Y0018366D02*
X0239161Y0018366D01*
X0239161Y0019164D02*
X0230839Y0019164D01*
X0230839Y0019963D02*
X0239161Y0019963D01*
X0239161Y0020761D02*
X0230839Y0020761D01*
X0230839Y0021560D02*
X0239161Y0021560D01*
X0239161Y0022358D02*
X0230839Y0022358D01*
X0230839Y0023157D02*
X0239161Y0023157D01*
X0239161Y0023955D02*
X0230839Y0023955D01*
X0230839Y0024754D02*
X0239161Y0024754D01*
X0239390Y0025552D02*
X0230610Y0025552D01*
X0230279Y0026351D02*
X0239721Y0026351D01*
X0240054Y0027149D02*
X0229946Y0027149D01*
X0229148Y0027948D02*
X0240852Y0027948D01*
X0241651Y0028746D02*
X0228349Y0028746D01*
X0226481Y0029545D02*
X0243519Y0029545D01*
X0246481Y0029545D02*
X0301019Y0029545D01*
X0301339Y0029677D02*
X0299193Y0028788D01*
X0297550Y0027146D01*
X0296661Y0025000D01*
X0296661Y0015000D01*
X0297550Y0012854D01*
X0299193Y0011212D01*
X0301339Y0010323D01*
X0303661Y0010323D01*
X0305807Y0011212D01*
X0307450Y0012854D01*
X0308339Y0015000D01*
X0308339Y0025000D01*
X0307450Y0027146D01*
X0305807Y0028788D01*
X0303661Y0029677D01*
X0301339Y0029677D01*
X0299151Y0028746D02*
X0248349Y0028746D01*
X0249148Y0027948D02*
X0298352Y0027948D01*
X0297554Y0027149D02*
X0249946Y0027149D01*
X0250279Y0026351D02*
X0297221Y0026351D01*
X0296890Y0025552D02*
X0250610Y0025552D01*
X0250839Y0024754D02*
X0296661Y0024754D01*
X0296661Y0023955D02*
X0250839Y0023955D01*
X0250839Y0023157D02*
X0296661Y0023157D01*
X0296661Y0022358D02*
X0250839Y0022358D01*
X0250839Y0021560D02*
X0296661Y0021560D01*
X0296661Y0020761D02*
X0250839Y0020761D01*
X0250839Y0019963D02*
X0296661Y0019963D01*
X0296661Y0019164D02*
X0250839Y0019164D01*
X0250839Y0018366D02*
X0296661Y0018366D01*
X0296661Y0017567D02*
X0250839Y0017567D01*
X0250839Y0016769D02*
X0296661Y0016769D01*
X0296661Y0015970D02*
X0250839Y0015970D01*
X0250839Y0015172D02*
X0296661Y0015172D01*
X0296921Y0014373D02*
X0250579Y0014373D01*
X0250248Y0013575D02*
X0297252Y0013575D01*
X0297628Y0012776D02*
X0249872Y0012776D01*
X0249073Y0011978D02*
X0298427Y0011978D01*
X0299271Y0011179D02*
X0248229Y0011179D01*
X0246301Y0010381D02*
X0301199Y0010381D01*
X0303801Y0010381D02*
X0321199Y0010381D01*
X0321339Y0010323D02*
X0323661Y0010323D01*
X0325807Y0011212D01*
X0327450Y0012854D01*
X0328339Y0015000D01*
X0328339Y0025000D01*
X0327450Y0027146D01*
X0325807Y0028788D01*
X0323661Y0029677D01*
X0321339Y0029677D01*
X0319193Y0028788D01*
X0317550Y0027146D01*
X0316661Y0025000D01*
X0316661Y0015000D01*
X0317550Y0012854D01*
X0319193Y0011212D01*
X0321339Y0010323D01*
X0319271Y0011179D02*
X0305729Y0011179D01*
X0306573Y0011978D02*
X0318427Y0011978D01*
X0317628Y0012776D02*
X0307372Y0012776D01*
X0307748Y0013575D02*
X0317252Y0013575D01*
X0316921Y0014373D02*
X0308079Y0014373D01*
X0308339Y0015172D02*
X0316661Y0015172D01*
X0316661Y0015970D02*
X0308339Y0015970D01*
X0308339Y0016769D02*
X0316661Y0016769D01*
X0316661Y0017567D02*
X0308339Y0017567D01*
X0308339Y0018366D02*
X0316661Y0018366D01*
X0316661Y0019164D02*
X0308339Y0019164D01*
X0308339Y0019963D02*
X0316661Y0019963D01*
X0316661Y0020761D02*
X0308339Y0020761D01*
X0308339Y0021560D02*
X0316661Y0021560D01*
X0316661Y0022358D02*
X0308339Y0022358D01*
X0308339Y0023157D02*
X0316661Y0023157D01*
X0316661Y0023955D02*
X0308339Y0023955D01*
X0308339Y0024754D02*
X0316661Y0024754D01*
X0316890Y0025552D02*
X0308110Y0025552D01*
X0307779Y0026351D02*
X0317221Y0026351D01*
X0317554Y0027149D02*
X0307446Y0027149D01*
X0306648Y0027948D02*
X0318352Y0027948D01*
X0319151Y0028746D02*
X0305849Y0028746D01*
X0303981Y0029545D02*
X0321019Y0029545D01*
X0323981Y0029545D02*
X0374016Y0029545D01*
X0374016Y0030343D02*
X0000000Y0030343D01*
X0000000Y0031142D02*
X0374016Y0031142D01*
X0374016Y0031940D02*
X0000000Y0031940D01*
X0000000Y0032739D02*
X0374016Y0032739D01*
X0374016Y0033537D02*
X0000000Y0033537D01*
X0000000Y0034336D02*
X0374016Y0034336D01*
X0374016Y0035134D02*
X0000000Y0035134D01*
X0000000Y0035933D02*
X0374016Y0035933D01*
X0374016Y0036732D02*
X0000000Y0036732D01*
X0000000Y0037530D02*
X0374016Y0037530D01*
X0374016Y0038329D02*
X0000000Y0038329D01*
X0000000Y0039127D02*
X0374016Y0039127D01*
X0374016Y0039926D02*
X0000000Y0039926D01*
X0000000Y0040724D02*
X0374016Y0040724D01*
X0374016Y0041523D02*
X0000000Y0041523D01*
X0000000Y0042321D02*
X0374016Y0042321D01*
X0374016Y0043120D02*
X0000000Y0043120D01*
X0000000Y0043918D02*
X0374016Y0043918D01*
X0374016Y0044717D02*
X0000000Y0044717D01*
X0000000Y0045515D02*
X0374016Y0045515D01*
X0374016Y0046314D02*
X0000000Y0046314D01*
X0000000Y0047112D02*
X0374016Y0047112D01*
X0374016Y0047911D02*
X0000000Y0047911D01*
X0000000Y0048709D02*
X0374016Y0048709D01*
X0374016Y0049508D02*
X0000000Y0049508D01*
X0000000Y0050306D02*
X0374016Y0050306D01*
X0374016Y0051105D02*
X0000000Y0051105D01*
X0000000Y0051903D02*
X0374016Y0051903D01*
X0374016Y0052702D02*
X0000000Y0052702D01*
X0000000Y0053500D02*
X0374016Y0053500D01*
X0374016Y0054299D02*
X0000000Y0054299D01*
X0000000Y0055097D02*
X0374016Y0055097D01*
X0374016Y0055896D02*
X0000000Y0055896D01*
X0000000Y0056694D02*
X0374016Y0056694D01*
X0374016Y0057493D02*
X0000000Y0057493D01*
X0000000Y0058291D02*
X0374016Y0058291D01*
X0374016Y0059090D02*
X0000000Y0059090D01*
X0000000Y0059888D02*
X0374016Y0059888D01*
X0374016Y0060687D02*
X0242767Y0060687D01*
X0243299Y0061219D02*
X0243299Y0062200D01*
X0250557Y0062200D01*
X0251586Y0062626D01*
X0252374Y0063414D01*
X0252800Y0064443D01*
X0252800Y0094670D01*
X0253375Y0095245D01*
X0253981Y0096708D01*
X0253981Y0098292D01*
X0253375Y0099755D01*
X0252255Y0100875D01*
X0250792Y0101481D01*
X0249208Y0101481D01*
X0247745Y0100875D01*
X0246625Y0099755D01*
X0246019Y0098292D01*
X0246019Y0096708D01*
X0246625Y0095245D01*
X0247200Y0094670D01*
X0247200Y0067800D01*
X0243299Y0067800D01*
X0243299Y0068781D01*
X0242128Y0069953D01*
X0235353Y0069953D01*
X0235000Y0069600D01*
X0234647Y0069953D01*
X0227872Y0069953D01*
X0226701Y0068781D01*
X0226701Y0067800D01*
X0223299Y0067800D01*
X0223299Y0068781D01*
X0222128Y0069953D01*
X0215353Y0069953D01*
X0215000Y0069600D01*
X0214647Y0069953D01*
X0207872Y0069953D01*
X0206701Y0068781D01*
X0206701Y0067800D01*
X0202800Y0067800D01*
X0202800Y0094670D01*
X0203375Y0095245D01*
X0203981Y0096708D01*
X0203981Y0098292D01*
X0203375Y0099755D01*
X0203200Y0099930D01*
X0203200Y0173137D01*
X0202713Y0174313D01*
X0201813Y0175213D01*
X0200637Y0175700D01*
X0189950Y0175700D01*
X0189950Y0179628D01*
X0189578Y0180000D01*
X0189950Y0180372D01*
X0189950Y0184628D01*
X0189578Y0185000D01*
X0189950Y0185372D01*
X0189950Y0189628D01*
X0189578Y0190000D01*
X0189950Y0190372D01*
X0189950Y0194628D01*
X0189578Y0195000D01*
X0189950Y0195372D01*
X0189950Y0199628D01*
X0206800Y0199628D01*
X0206800Y0200426D02*
X0189950Y0200426D01*
X0189950Y0200372D02*
X0189950Y0204628D01*
X0189578Y0205000D01*
X0189950Y0205372D01*
X0189950Y0209300D01*
X0206800Y0209300D01*
X0206800Y0158680D01*
X0206625Y0158505D01*
X0206019Y0157042D01*
X0206019Y0155458D01*
X0206625Y0153995D01*
X0207745Y0152875D01*
X0209208Y0152269D01*
X0210792Y0152269D01*
X0212255Y0152875D01*
X0213375Y0153995D01*
X0213981Y0155458D01*
X0213981Y0157042D01*
X0213375Y0158505D01*
X0213200Y0158680D01*
X0213200Y0214300D01*
X0245550Y0214300D01*
X0245550Y0195771D01*
X0246037Y0194595D01*
X0246937Y0193695D01*
X0248113Y0193207D01*
X0250776Y0193207D01*
X0250776Y0190855D01*
X0251947Y0189683D01*
X0263053Y0189683D01*
X0264224Y0190855D01*
X0264224Y0195550D01*
X0271650Y0195550D01*
X0271696Y0195569D01*
X0276173Y0195569D01*
X0277344Y0196740D01*
X0277344Y0200760D01*
X0276173Y0201931D01*
X0271696Y0201931D01*
X0271650Y0201950D01*
X0264224Y0201950D01*
X0264224Y0201960D01*
X0263053Y0203132D01*
X0251950Y0203132D01*
X0251950Y0218137D01*
X0251463Y0219313D01*
X0250563Y0220213D01*
X0249387Y0220700D01*
X0209363Y0220700D01*
X0208187Y0220213D01*
X0207287Y0219313D01*
X0206800Y0218137D01*
X0206800Y0215700D01*
X0188878Y0215700D01*
X0188778Y0215800D01*
X0179122Y0215800D01*
X0177950Y0214628D01*
X0177950Y0210372D01*
X0178322Y0210000D01*
X0177950Y0209628D01*
X0177950Y0205372D01*
X0178322Y0205000D01*
X0177950Y0204628D01*
X0177950Y0200372D01*
X0178322Y0200000D01*
X0177950Y0199628D01*
X0000000Y0199628D01*
X0000000Y0200426D02*
X0177950Y0200426D01*
X0177950Y0199628D02*
X0177950Y0195700D01*
X0044363Y0195700D01*
X0043187Y0195213D01*
X0042287Y0194313D01*
X0041800Y0193137D01*
X0041800Y0099930D01*
X0041625Y0099755D01*
X0041019Y0098292D01*
X0041019Y0096708D01*
X0041625Y0095245D01*
X0042200Y0094670D01*
X0042200Y0064443D01*
X0042626Y0063414D01*
X0043414Y0062626D01*
X0044443Y0062200D01*
X0051701Y0062200D01*
X0051701Y0061219D01*
X0052872Y0060047D01*
X0059647Y0060047D01*
X0060000Y0060400D01*
X0060353Y0060047D01*
X0067128Y0060047D01*
X0068299Y0061219D01*
X0068299Y0062200D01*
X0071701Y0062200D01*
X0071701Y0061219D01*
X0072872Y0060047D01*
X0079647Y0060047D01*
X0080000Y0060400D01*
X0080353Y0060047D01*
X0087128Y0060047D01*
X0088299Y0061219D01*
X0088299Y0062200D01*
X0095557Y0062200D01*
X0096586Y0062626D01*
X0097374Y0063414D01*
X0097800Y0064443D01*
X0097800Y0094670D01*
X0098375Y0095245D01*
X0098981Y0096708D01*
X0098981Y0098292D01*
X0098375Y0099755D01*
X0097255Y0100875D01*
X0095792Y0101481D01*
X0094208Y0101481D01*
X0092745Y0100875D01*
X0091625Y0099755D01*
X0091019Y0098292D01*
X0091019Y0096708D01*
X0091625Y0095245D01*
X0092200Y0094670D01*
X0092200Y0067800D01*
X0088299Y0067800D01*
X0088299Y0068781D01*
X0087128Y0069953D01*
X0080353Y0069953D01*
X0080000Y0069600D01*
X0079647Y0069953D01*
X0072872Y0069953D01*
X0071701Y0068781D01*
X0071701Y0067800D01*
X0068299Y0067800D01*
X0068299Y0068781D01*
X0067128Y0069953D01*
X0060353Y0069953D01*
X0060000Y0069600D01*
X0059647Y0069953D01*
X0052872Y0069953D01*
X0051701Y0068781D01*
X0051701Y0067800D01*
X0047800Y0067800D01*
X0047800Y0094670D01*
X0048375Y0095245D01*
X0048981Y0096708D01*
X0048981Y0098292D01*
X0048375Y0099755D01*
X0048200Y0099930D01*
X0048200Y0189300D01*
X0177950Y0189300D01*
X0177950Y0185700D01*
X0121863Y0185700D01*
X0120687Y0185213D01*
X0119787Y0184313D01*
X0119300Y0183137D01*
X0119300Y0099930D01*
X0119125Y0099755D01*
X0118519Y0098292D01*
X0118519Y0096708D01*
X0119125Y0095245D01*
X0119700Y0094670D01*
X0119700Y0064443D01*
X0120126Y0063414D01*
X0120914Y0062626D01*
X0121943Y0062200D01*
X0129201Y0062200D01*
X0129201Y0061219D01*
X0130372Y0060047D01*
X0137147Y0060047D01*
X0137500Y0060400D01*
X0137853Y0060047D01*
X0144628Y0060047D01*
X0145799Y0061219D01*
X0145799Y0062200D01*
X0149201Y0062200D01*
X0149201Y0061219D01*
X0150372Y0060047D01*
X0157147Y0060047D01*
X0157500Y0060400D01*
X0157853Y0060047D01*
X0164628Y0060047D01*
X0165799Y0061219D01*
X0165799Y0062200D01*
X0173057Y0062200D01*
X0174086Y0062626D01*
X0174874Y0063414D01*
X0175300Y0064443D01*
X0175300Y0094670D01*
X0175875Y0095245D01*
X0176481Y0096708D01*
X0176481Y0098292D01*
X0175875Y0099755D01*
X0174755Y0100875D01*
X0173292Y0101481D01*
X0171708Y0101481D01*
X0170245Y0100875D01*
X0169125Y0099755D01*
X0168519Y0098292D01*
X0168519Y0096708D01*
X0169125Y0095245D01*
X0169700Y0094670D01*
X0169700Y0067800D01*
X0165799Y0067800D01*
X0165799Y0068781D01*
X0164628Y0069953D01*
X0157853Y0069953D01*
X0157500Y0069600D01*
X0157147Y0069953D01*
X0150372Y0069953D01*
X0149201Y0068781D01*
X0149201Y0067800D01*
X0145799Y0067800D01*
X0145799Y0068781D01*
X0144628Y0069953D01*
X0137853Y0069953D01*
X0137500Y0069600D01*
X0137147Y0069953D01*
X0130372Y0069953D01*
X0129201Y0068781D01*
X0129201Y0067800D01*
X0125300Y0067800D01*
X0125300Y0094670D01*
X0125875Y0095245D01*
X0126481Y0096708D01*
X0126481Y0098292D01*
X0125875Y0099755D01*
X0125700Y0099930D01*
X0125700Y0179300D01*
X0177950Y0179300D01*
X0177950Y0175372D01*
X0178322Y0175000D01*
X0177950Y0174628D01*
X0177950Y0170372D01*
X0179122Y0169200D01*
X0188778Y0169200D01*
X0188878Y0169300D01*
X0196800Y0169300D01*
X0196800Y0099930D01*
X0196625Y0099755D01*
X0196019Y0098292D01*
X0196019Y0096708D01*
X0196625Y0095245D01*
X0197200Y0094670D01*
X0197200Y0064443D01*
X0197626Y0063414D01*
X0198414Y0062626D01*
X0199443Y0062200D01*
X0206701Y0062200D01*
X0206701Y0061219D01*
X0207872Y0060047D01*
X0214647Y0060047D01*
X0215000Y0060400D01*
X0215353Y0060047D01*
X0222128Y0060047D01*
X0223299Y0061219D01*
X0223299Y0062200D01*
X0226701Y0062200D01*
X0226701Y0061219D01*
X0227872Y0060047D01*
X0234647Y0060047D01*
X0235000Y0060400D01*
X0235353Y0060047D01*
X0242128Y0060047D01*
X0243299Y0061219D01*
X0243299Y0061485D02*
X0374016Y0061485D01*
X0374016Y0062284D02*
X0250759Y0062284D01*
X0252042Y0063082D02*
X0374016Y0063082D01*
X0374016Y0063881D02*
X0252567Y0063881D01*
X0252800Y0064679D02*
X0374016Y0064679D01*
X0374016Y0065478D02*
X0252800Y0065478D01*
X0252800Y0066276D02*
X0374016Y0066276D01*
X0374016Y0067075D02*
X0252800Y0067075D01*
X0252800Y0067873D02*
X0374016Y0067873D01*
X0374016Y0068672D02*
X0252800Y0068672D01*
X0252800Y0069470D02*
X0374016Y0069470D01*
X0374016Y0070269D02*
X0252800Y0070269D01*
X0252800Y0071068D02*
X0301591Y0071068D01*
X0301708Y0071019D02*
X0303292Y0071019D01*
X0304755Y0071625D01*
X0305875Y0072745D01*
X0306481Y0074208D01*
X0306481Y0075792D01*
X0305875Y0077255D01*
X0305583Y0077547D01*
X0305897Y0077547D01*
X0306250Y0077900D01*
X0306603Y0077547D01*
X0313378Y0077547D01*
X0314549Y0078719D01*
X0314549Y0086281D01*
X0313378Y0087453D01*
X0312259Y0087453D01*
X0312259Y0094388D01*
X0313240Y0094388D01*
X0314402Y0095550D01*
X0348137Y0095550D01*
X0349313Y0096037D01*
X0350213Y0096937D01*
X0350700Y0098113D01*
X0350700Y0197044D01*
X0350213Y0198220D01*
X0349313Y0199120D01*
X0348137Y0199607D01*
X0311724Y0199607D01*
X0311724Y0201960D01*
X0310553Y0203132D01*
X0299447Y0203132D01*
X0298276Y0201960D01*
X0298276Y0201950D01*
X0290850Y0201950D01*
X0290804Y0201931D01*
X0286327Y0201931D01*
X0285156Y0200760D01*
X0285156Y0196740D01*
X0286327Y0195569D01*
X0288686Y0195569D01*
X0288686Y0187800D01*
X0273847Y0187800D01*
X0273811Y0187837D01*
X0266248Y0187837D01*
X0265077Y0186665D01*
X0265077Y0179890D01*
X0266248Y0178719D01*
X0273811Y0178719D01*
X0274982Y0179890D01*
X0274982Y0182200D01*
X0287518Y0182200D01*
X0287518Y0173985D01*
X0288689Y0172813D01*
X0289670Y0172813D01*
X0289670Y0149308D01*
X0289628Y0149350D01*
X0285372Y0149350D01*
X0285300Y0149278D01*
X0285300Y0166807D01*
X0284874Y0167836D01*
X0284086Y0168624D01*
X0283057Y0169050D01*
X0241550Y0169050D01*
X0241550Y0193057D01*
X0241124Y0194086D01*
X0240336Y0194874D01*
X0239307Y0195300D01*
X0229478Y0195300D01*
X0229550Y0195372D01*
X0229550Y0199628D01*
X0245550Y0199628D01*
X0245550Y0200426D02*
X0229550Y0200426D01*
X0229550Y0200372D02*
X0229550Y0204628D01*
X0229178Y0205000D01*
X0229550Y0205372D01*
X0229550Y0209628D01*
X0228378Y0210800D01*
X0218722Y0210800D01*
X0217550Y0209628D01*
X0217550Y0205372D01*
X0217922Y0205000D01*
X0217550Y0204628D01*
X0217550Y0200372D01*
X0217922Y0200000D01*
X0217550Y0199628D01*
X0213200Y0199628D01*
X0213200Y0200426D02*
X0217550Y0200426D01*
X0217550Y0199628D02*
X0217550Y0195372D01*
X0217922Y0195000D01*
X0217550Y0194628D01*
X0217550Y0190372D01*
X0217922Y0190000D01*
X0217550Y0189628D01*
X0217550Y0185372D01*
X0217922Y0185000D01*
X0217550Y0184628D01*
X0217550Y0180372D01*
X0217922Y0180000D01*
X0217550Y0179628D01*
X0217550Y0175372D01*
X0217922Y0175000D01*
X0217550Y0174628D01*
X0217550Y0170372D01*
X0218722Y0169200D01*
X0228378Y0169200D01*
X0228450Y0169272D01*
X0228450Y0158193D01*
X0228876Y0157164D01*
X0229664Y0156376D01*
X0230693Y0155950D01*
X0269700Y0155950D01*
X0269700Y0148678D01*
X0269200Y0148178D01*
X0269200Y0138522D01*
X0270372Y0137350D01*
X0274628Y0137350D01*
X0275000Y0137722D01*
X0275372Y0137350D01*
X0279628Y0137350D01*
X0280000Y0137722D01*
X0280372Y0137350D01*
X0284628Y0137350D01*
X0284700Y0137422D01*
X0284700Y0135693D01*
X0285126Y0134664D01*
X0285914Y0133876D01*
X0286943Y0133450D01*
X0290740Y0133450D01*
X0290126Y0132836D01*
X0289700Y0131807D01*
X0289700Y0125078D01*
X0289628Y0125150D01*
X0285372Y0125150D01*
X0285000Y0124778D01*
X0284628Y0125150D01*
X0280372Y0125150D01*
X0280000Y0124778D01*
X0279628Y0125150D01*
X0275372Y0125150D01*
X0275000Y0124778D01*
X0274628Y0125150D01*
X0270372Y0125150D01*
X0269200Y0123978D01*
X0269200Y0114322D01*
X0270372Y0113150D01*
X0274628Y0113150D01*
X0275000Y0113522D01*
X0275372Y0113150D01*
X0279628Y0113150D01*
X0280000Y0113522D01*
X0280372Y0113150D01*
X0284628Y0113150D01*
X0284690Y0113212D01*
X0284690Y0112453D01*
X0284103Y0112453D01*
X0282931Y0111281D01*
X0282931Y0103719D01*
X0284103Y0102547D01*
X0284690Y0102547D01*
X0284690Y0102125D01*
X0284506Y0101941D01*
X0284506Y0095559D01*
X0285677Y0094388D01*
X0289807Y0094388D01*
X0288797Y0093378D01*
X0288797Y0086603D01*
X0289150Y0086250D01*
X0288797Y0085897D01*
X0288797Y0079122D01*
X0289969Y0077951D01*
X0297531Y0077951D01*
X0298125Y0078545D01*
X0299122Y0077547D01*
X0299417Y0077547D01*
X0299125Y0077255D01*
X0298519Y0075792D01*
X0298519Y0074208D01*
X0299125Y0072745D01*
X0300245Y0071625D01*
X0301708Y0071019D01*
X0303409Y0071068D02*
X0374016Y0071068D01*
X0374016Y0071866D02*
X0304996Y0071866D01*
X0305795Y0072665D02*
X0374016Y0072665D01*
X0374016Y0073463D02*
X0306172Y0073463D01*
X0306481Y0074262D02*
X0374016Y0074262D01*
X0374016Y0075060D02*
X0306481Y0075060D01*
X0306453Y0075859D02*
X0374016Y0075859D01*
X0374016Y0076657D02*
X0306123Y0076657D01*
X0305675Y0077456D02*
X0374016Y0077456D01*
X0374016Y0078254D02*
X0314084Y0078254D01*
X0314549Y0079053D02*
X0374016Y0079053D01*
X0374016Y0079851D02*
X0314549Y0079851D01*
X0314549Y0080650D02*
X0374016Y0080650D01*
X0374016Y0081448D02*
X0314549Y0081448D01*
X0314549Y0082247D02*
X0374016Y0082247D01*
X0374016Y0083045D02*
X0314549Y0083045D01*
X0314549Y0083844D02*
X0374016Y0083844D01*
X0374016Y0084642D02*
X0314549Y0084642D01*
X0314549Y0085441D02*
X0374016Y0085441D01*
X0374016Y0086239D02*
X0314549Y0086239D01*
X0313793Y0087038D02*
X0374016Y0087038D01*
X0374016Y0087836D02*
X0312259Y0087836D01*
X0312259Y0088635D02*
X0374016Y0088635D01*
X0374016Y0089433D02*
X0312259Y0089433D01*
X0312259Y0090232D02*
X0374016Y0090232D01*
X0374016Y0091030D02*
X0312259Y0091030D01*
X0312259Y0091829D02*
X0374016Y0091829D01*
X0374016Y0092627D02*
X0312259Y0092627D01*
X0312259Y0093426D02*
X0374016Y0093426D01*
X0374016Y0094224D02*
X0312259Y0094224D01*
X0313875Y0095023D02*
X0374016Y0095023D01*
X0374016Y0095821D02*
X0348792Y0095821D01*
X0349895Y0096620D02*
X0374016Y0096620D01*
X0374016Y0097418D02*
X0350412Y0097418D01*
X0350700Y0098217D02*
X0374016Y0098217D01*
X0374016Y0099015D02*
X0350700Y0099015D01*
X0350700Y0099814D02*
X0374016Y0099814D01*
X0374016Y0100612D02*
X0350700Y0100612D01*
X0350700Y0101411D02*
X0374016Y0101411D01*
X0374016Y0102209D02*
X0350700Y0102209D01*
X0350700Y0103008D02*
X0374016Y0103008D01*
X0374016Y0103806D02*
X0350700Y0103806D01*
X0350700Y0104605D02*
X0374016Y0104605D01*
X0374016Y0105403D02*
X0350700Y0105403D01*
X0350700Y0106202D02*
X0374016Y0106202D01*
X0374016Y0107001D02*
X0350700Y0107001D01*
X0350700Y0107799D02*
X0374016Y0107799D01*
X0374016Y0108598D02*
X0350700Y0108598D01*
X0350700Y0109396D02*
X0374016Y0109396D01*
X0374016Y0110195D02*
X0350700Y0110195D01*
X0350700Y0110993D02*
X0374016Y0110993D01*
X0374016Y0111792D02*
X0350700Y0111792D01*
X0350700Y0112590D02*
X0374016Y0112590D01*
X0374016Y0113389D02*
X0350700Y0113389D01*
X0350700Y0114187D02*
X0374016Y0114187D01*
X0374016Y0114986D02*
X0350700Y0114986D01*
X0350700Y0115784D02*
X0374016Y0115784D01*
X0374016Y0116583D02*
X0350700Y0116583D01*
X0350700Y0117381D02*
X0374016Y0117381D01*
X0374016Y0118180D02*
X0350700Y0118180D01*
X0350700Y0118978D02*
X0374016Y0118978D01*
X0374016Y0119777D02*
X0350700Y0119777D01*
X0350700Y0120575D02*
X0374016Y0120575D01*
X0374016Y0121374D02*
X0350700Y0121374D01*
X0350700Y0122172D02*
X0374016Y0122172D01*
X0374016Y0122971D02*
X0350700Y0122971D01*
X0350700Y0123769D02*
X0374016Y0123769D01*
X0374016Y0124568D02*
X0350700Y0124568D01*
X0350700Y0125366D02*
X0374016Y0125366D01*
X0374016Y0126165D02*
X0350700Y0126165D01*
X0350700Y0126963D02*
X0374016Y0126963D01*
X0374016Y0127762D02*
X0350700Y0127762D01*
X0350700Y0128560D02*
X0374016Y0128560D01*
X0374016Y0129359D02*
X0350700Y0129359D01*
X0350700Y0130157D02*
X0374016Y0130157D01*
X0374016Y0130956D02*
X0350700Y0130956D01*
X0350700Y0131754D02*
X0374016Y0131754D01*
X0374016Y0132553D02*
X0350700Y0132553D01*
X0350700Y0133351D02*
X0374016Y0133351D01*
X0374016Y0134150D02*
X0350700Y0134150D01*
X0350700Y0134948D02*
X0374016Y0134948D01*
X0374016Y0135747D02*
X0350700Y0135747D01*
X0350700Y0136545D02*
X0374016Y0136545D01*
X0374016Y0137344D02*
X0350700Y0137344D01*
X0350700Y0138142D02*
X0374016Y0138142D01*
X0374016Y0138941D02*
X0350700Y0138941D01*
X0350700Y0139739D02*
X0374016Y0139739D01*
X0374016Y0140538D02*
X0350700Y0140538D01*
X0350700Y0141337D02*
X0374016Y0141337D01*
X0374016Y0142135D02*
X0350700Y0142135D01*
X0350700Y0142934D02*
X0374016Y0142934D01*
X0374016Y0143732D02*
X0350700Y0143732D01*
X0350700Y0144531D02*
X0374016Y0144531D01*
X0374016Y0145329D02*
X0350700Y0145329D01*
X0350700Y0146128D02*
X0374016Y0146128D01*
X0374016Y0146926D02*
X0350700Y0146926D01*
X0350700Y0147725D02*
X0374016Y0147725D01*
X0374016Y0148523D02*
X0350700Y0148523D01*
X0350700Y0149322D02*
X0374016Y0149322D01*
X0374016Y0150120D02*
X0350700Y0150120D01*
X0350700Y0150919D02*
X0374016Y0150919D01*
X0374016Y0151717D02*
X0350700Y0151717D01*
X0350700Y0152516D02*
X0374016Y0152516D01*
X0374016Y0153314D02*
X0350700Y0153314D01*
X0350700Y0154113D02*
X0374016Y0154113D01*
X0374016Y0154911D02*
X0350700Y0154911D01*
X0350700Y0155710D02*
X0374016Y0155710D01*
X0374016Y0156508D02*
X0350700Y0156508D01*
X0350700Y0157307D02*
X0374016Y0157307D01*
X0374016Y0158105D02*
X0350700Y0158105D01*
X0350700Y0158904D02*
X0374016Y0158904D01*
X0374016Y0159702D02*
X0350700Y0159702D01*
X0350700Y0160501D02*
X0374016Y0160501D01*
X0374016Y0161299D02*
X0350700Y0161299D01*
X0350700Y0162098D02*
X0374016Y0162098D01*
X0374016Y0162896D02*
X0350700Y0162896D01*
X0350700Y0163695D02*
X0374016Y0163695D01*
X0374016Y0164493D02*
X0350700Y0164493D01*
X0350700Y0165292D02*
X0374016Y0165292D01*
X0374016Y0166090D02*
X0350700Y0166090D01*
X0350700Y0166889D02*
X0374016Y0166889D01*
X0374016Y0167687D02*
X0350700Y0167687D01*
X0350700Y0168486D02*
X0374016Y0168486D01*
X0374016Y0169284D02*
X0350700Y0169284D01*
X0350700Y0170083D02*
X0374016Y0170083D01*
X0374016Y0170881D02*
X0350700Y0170881D01*
X0350700Y0171680D02*
X0374016Y0171680D01*
X0374016Y0172478D02*
X0350700Y0172478D01*
X0350700Y0173277D02*
X0374016Y0173277D01*
X0374016Y0174075D02*
X0350700Y0174075D01*
X0350700Y0174874D02*
X0374016Y0174874D01*
X0374016Y0175672D02*
X0350700Y0175672D01*
X0350700Y0176471D02*
X0374016Y0176471D01*
X0374016Y0177270D02*
X0350700Y0177270D01*
X0350700Y0178068D02*
X0374016Y0178068D01*
X0374016Y0178867D02*
X0350700Y0178867D01*
X0350700Y0179665D02*
X0374016Y0179665D01*
X0374016Y0180464D02*
X0350700Y0180464D01*
X0350700Y0181262D02*
X0374016Y0181262D01*
X0374016Y0182061D02*
X0350700Y0182061D01*
X0350700Y0182859D02*
X0374016Y0182859D01*
X0374016Y0183658D02*
X0350700Y0183658D01*
X0350700Y0184456D02*
X0374016Y0184456D01*
X0374016Y0185255D02*
X0350700Y0185255D01*
X0350700Y0186053D02*
X0374016Y0186053D01*
X0374016Y0186852D02*
X0350700Y0186852D01*
X0350700Y0187650D02*
X0374016Y0187650D01*
X0374016Y0188449D02*
X0350700Y0188449D01*
X0350700Y0189247D02*
X0374016Y0189247D01*
X0374016Y0190046D02*
X0350700Y0190046D01*
X0350700Y0190844D02*
X0374016Y0190844D01*
X0374016Y0191643D02*
X0350700Y0191643D01*
X0350700Y0192441D02*
X0374016Y0192441D01*
X0374016Y0193240D02*
X0350700Y0193240D01*
X0350700Y0194038D02*
X0374016Y0194038D01*
X0374016Y0194837D02*
X0350700Y0194837D01*
X0350700Y0195635D02*
X0374016Y0195635D01*
X0374016Y0196434D02*
X0350700Y0196434D01*
X0350622Y0197232D02*
X0374016Y0197232D01*
X0374016Y0198031D02*
X0350291Y0198031D01*
X0349604Y0198829D02*
X0374016Y0198829D01*
X0374016Y0199628D02*
X0311724Y0199628D01*
X0311724Y0200426D02*
X0374016Y0200426D01*
X0374016Y0201225D02*
X0311724Y0201225D01*
X0311661Y0202023D02*
X0374016Y0202023D01*
X0374016Y0202822D02*
X0310863Y0202822D01*
X0299137Y0202822D02*
X0263363Y0202822D01*
X0264161Y0202023D02*
X0298339Y0202023D01*
X0298276Y0195550D02*
X0294286Y0195550D01*
X0294286Y0184687D01*
X0296252Y0184687D01*
X0296905Y0184034D01*
X0296943Y0184050D01*
X0309201Y0184050D01*
X0309201Y0185031D01*
X0310372Y0186203D01*
X0317147Y0186203D01*
X0317500Y0185850D01*
X0317853Y0186203D01*
X0324628Y0186203D01*
X0325799Y0185031D01*
X0325799Y0184050D01*
X0326701Y0184050D01*
X0326701Y0185031D01*
X0327872Y0186203D01*
X0334647Y0186203D01*
X0335819Y0185031D01*
X0335819Y0177469D01*
X0334647Y0176297D01*
X0327872Y0176297D01*
X0326701Y0177469D01*
X0326701Y0178450D01*
X0325799Y0178450D01*
X0325799Y0177469D01*
X0324628Y0176297D01*
X0317853Y0176297D01*
X0317500Y0176650D01*
X0317147Y0176297D01*
X0310372Y0176297D01*
X0309201Y0177469D01*
X0309201Y0178450D01*
X0300300Y0178450D01*
X0300300Y0173575D01*
X0300687Y0173963D01*
X0301863Y0174450D01*
X0309201Y0174450D01*
X0309201Y0175031D01*
X0310372Y0176203D01*
X0317147Y0176203D01*
X0317500Y0175850D01*
X0317853Y0176203D01*
X0324628Y0176203D01*
X0325799Y0175031D01*
X0325799Y0174050D01*
X0326701Y0174050D01*
X0326701Y0175031D01*
X0327872Y0176203D01*
X0334647Y0176203D01*
X0335819Y0175031D01*
X0335819Y0167469D01*
X0334647Y0166297D01*
X0327872Y0166297D01*
X0326701Y0167469D01*
X0326701Y0168450D01*
X0325799Y0168450D01*
X0325799Y0167469D01*
X0324628Y0166297D01*
X0317853Y0166297D01*
X0317500Y0166650D01*
X0317147Y0166297D01*
X0310372Y0166297D01*
X0309201Y0167469D01*
X0309201Y0168050D01*
X0305700Y0168050D01*
X0305700Y0155300D01*
X0306219Y0155819D01*
X0313781Y0155819D01*
X0314953Y0154647D01*
X0314953Y0154460D01*
X0317580Y0154460D01*
X0317745Y0154625D01*
X0319208Y0155231D01*
X0320792Y0155231D01*
X0322255Y0154625D01*
X0322430Y0154450D01*
X0328205Y0154450D01*
X0329217Y0155462D01*
X0331043Y0156218D01*
X0338957Y0156218D01*
X0340783Y0155462D01*
X0341795Y0154450D01*
X0344300Y0154450D01*
X0344300Y0193207D01*
X0311724Y0193207D01*
X0311724Y0190855D01*
X0310553Y0189683D01*
X0299447Y0189683D01*
X0298276Y0190855D01*
X0298276Y0195550D01*
X0298276Y0194837D02*
X0294286Y0194837D01*
X0294286Y0194038D02*
X0298276Y0194038D01*
X0298276Y0193240D02*
X0294286Y0193240D01*
X0294286Y0192441D02*
X0298276Y0192441D01*
X0298276Y0191643D02*
X0294286Y0191643D01*
X0294286Y0190844D02*
X0298286Y0190844D01*
X0299085Y0190046D02*
X0294286Y0190046D01*
X0294286Y0189247D02*
X0344300Y0189247D01*
X0344300Y0188449D02*
X0294286Y0188449D01*
X0294286Y0187650D02*
X0344300Y0187650D01*
X0344300Y0186852D02*
X0294286Y0186852D01*
X0294286Y0186053D02*
X0310223Y0186053D01*
X0309424Y0185255D02*
X0294286Y0185255D01*
X0296483Y0184456D02*
X0309201Y0184456D01*
X0310915Y0190046D02*
X0344300Y0190046D01*
X0344300Y0190844D02*
X0311714Y0190844D01*
X0311724Y0191643D02*
X0344300Y0191643D01*
X0344300Y0192441D02*
X0311724Y0192441D01*
X0317297Y0186053D02*
X0317703Y0186053D01*
X0324777Y0186053D02*
X0327723Y0186053D01*
X0326924Y0185255D02*
X0325576Y0185255D01*
X0325799Y0184456D02*
X0326701Y0184456D01*
X0326701Y0178068D02*
X0325799Y0178068D01*
X0325600Y0177270D02*
X0326900Y0177270D01*
X0327699Y0176471D02*
X0324801Y0176471D01*
X0325158Y0175672D02*
X0327342Y0175672D01*
X0326701Y0174874D02*
X0325799Y0174874D01*
X0325799Y0174075D02*
X0326701Y0174075D01*
X0326701Y0167687D02*
X0325799Y0167687D01*
X0325219Y0166889D02*
X0327281Y0166889D01*
X0335239Y0166889D02*
X0344300Y0166889D01*
X0344300Y0167687D02*
X0335819Y0167687D01*
X0335819Y0168486D02*
X0344300Y0168486D01*
X0344300Y0169284D02*
X0335819Y0169284D01*
X0335819Y0170083D02*
X0344300Y0170083D01*
X0344300Y0170881D02*
X0335819Y0170881D01*
X0335819Y0171680D02*
X0344300Y0171680D01*
X0344300Y0172478D02*
X0335819Y0172478D01*
X0335819Y0173277D02*
X0344300Y0173277D01*
X0344300Y0174075D02*
X0335819Y0174075D01*
X0335819Y0174874D02*
X0344300Y0174874D01*
X0344300Y0175672D02*
X0335178Y0175672D01*
X0334821Y0176471D02*
X0344300Y0176471D01*
X0344300Y0177270D02*
X0335620Y0177270D01*
X0335819Y0178068D02*
X0344300Y0178068D01*
X0344300Y0178867D02*
X0335819Y0178867D01*
X0335819Y0179665D02*
X0344300Y0179665D01*
X0344300Y0180464D02*
X0335819Y0180464D01*
X0335819Y0181262D02*
X0344300Y0181262D01*
X0344300Y0182061D02*
X0335819Y0182061D01*
X0335819Y0182859D02*
X0344300Y0182859D01*
X0344300Y0183658D02*
X0335819Y0183658D01*
X0335819Y0184456D02*
X0344300Y0184456D01*
X0344300Y0185255D02*
X0335595Y0185255D01*
X0334797Y0186053D02*
X0344300Y0186053D01*
X0344300Y0166090D02*
X0305700Y0166090D01*
X0305700Y0165292D02*
X0344300Y0165292D01*
X0344300Y0164493D02*
X0305700Y0164493D01*
X0305700Y0163695D02*
X0344300Y0163695D01*
X0344300Y0162896D02*
X0305700Y0162896D01*
X0305700Y0162098D02*
X0344300Y0162098D01*
X0344300Y0161299D02*
X0305700Y0161299D01*
X0305700Y0160501D02*
X0344300Y0160501D01*
X0344300Y0159702D02*
X0305700Y0159702D01*
X0305700Y0158904D02*
X0344300Y0158904D01*
X0344300Y0158105D02*
X0305700Y0158105D01*
X0305700Y0157307D02*
X0344300Y0157307D01*
X0344300Y0156508D02*
X0305700Y0156508D01*
X0305700Y0155710D02*
X0306110Y0155710D01*
X0313890Y0155710D02*
X0329815Y0155710D01*
X0328666Y0154911D02*
X0321564Y0154911D01*
X0318436Y0154911D02*
X0314689Y0154911D01*
X0314953Y0148060D02*
X0317560Y0148060D01*
X0317745Y0147875D01*
X0319208Y0147269D01*
X0320792Y0147269D01*
X0322255Y0147875D01*
X0322430Y0148050D01*
X0328205Y0148050D01*
X0329217Y0147038D01*
X0331043Y0146281D01*
X0338957Y0146281D01*
X0340783Y0147038D01*
X0341795Y0148050D01*
X0344300Y0148050D01*
X0344300Y0101950D01*
X0314402Y0101950D01*
X0313240Y0103112D01*
X0305677Y0103112D01*
X0304506Y0101941D01*
X0304506Y0095559D01*
X0305677Y0094388D01*
X0306659Y0094388D01*
X0306659Y0087453D01*
X0306603Y0087453D01*
X0306250Y0087100D01*
X0305897Y0087453D01*
X0299122Y0087453D01*
X0298703Y0087033D01*
X0298703Y0093378D01*
X0297693Y0094388D01*
X0301823Y0094388D01*
X0302994Y0095559D01*
X0302994Y0101941D01*
X0301823Y0103112D01*
X0294260Y0103112D01*
X0293750Y0102602D01*
X0293240Y0103112D01*
X0291443Y0103112D01*
X0292049Y0103719D01*
X0292049Y0111281D01*
X0290878Y0112453D01*
X0290290Y0112453D01*
X0290290Y0113231D01*
X0290372Y0113150D01*
X0294628Y0113150D01*
X0295000Y0113522D01*
X0295372Y0113150D01*
X0299628Y0113150D01*
X0300800Y0114322D01*
X0300800Y0123450D01*
X0320557Y0123450D01*
X0321586Y0123876D01*
X0322374Y0124664D01*
X0322800Y0125693D01*
X0322800Y0128420D01*
X0322830Y0128450D01*
X0327813Y0128450D01*
X0327819Y0128436D01*
X0329217Y0127038D01*
X0331043Y0126281D01*
X0338957Y0126281D01*
X0340783Y0127038D01*
X0342181Y0128436D01*
X0342937Y0130262D01*
X0342937Y0132238D01*
X0342181Y0134064D01*
X0340783Y0135462D01*
X0338957Y0136218D01*
X0331043Y0136218D01*
X0329217Y0135462D01*
X0327819Y0134064D01*
X0327813Y0134050D01*
X0322830Y0134050D01*
X0322255Y0134625D01*
X0320792Y0135231D01*
X0319208Y0135231D01*
X0317800Y0134648D01*
X0317800Y0137852D01*
X0319208Y0137269D01*
X0320792Y0137269D01*
X0322255Y0137875D01*
X0322830Y0138450D01*
X0327813Y0138450D01*
X0327819Y0138436D01*
X0329217Y0137038D01*
X0331043Y0136281D01*
X0338957Y0136281D01*
X0340783Y0137038D01*
X0342181Y0138436D01*
X0342937Y0140262D01*
X0342937Y0142238D01*
X0342181Y0144064D01*
X0340783Y0145462D01*
X0338957Y0146218D01*
X0331043Y0146218D01*
X0329217Y0145462D01*
X0327819Y0144064D01*
X0327813Y0144050D01*
X0322830Y0144050D01*
X0322255Y0144625D01*
X0320792Y0145231D01*
X0319208Y0145231D01*
X0317745Y0144625D01*
X0317170Y0144050D01*
X0314443Y0144050D01*
X0313414Y0143624D01*
X0312626Y0142836D01*
X0312200Y0141807D01*
X0312200Y0139648D01*
X0310792Y0140231D01*
X0309208Y0140231D01*
X0307745Y0139625D01*
X0307170Y0139050D01*
X0305800Y0139050D01*
X0305800Y0147120D01*
X0306219Y0146701D01*
X0313781Y0146701D01*
X0314953Y0147872D01*
X0314953Y0148060D01*
X0314805Y0147725D02*
X0318108Y0147725D01*
X0317650Y0144531D02*
X0305800Y0144531D01*
X0305800Y0145329D02*
X0329084Y0145329D01*
X0328286Y0144531D02*
X0322350Y0144531D01*
X0321892Y0147725D02*
X0328530Y0147725D01*
X0329487Y0146926D02*
X0314006Y0146926D01*
X0313675Y0143732D02*
X0305800Y0143732D01*
X0305800Y0142934D02*
X0312724Y0142934D01*
X0312336Y0142135D02*
X0305800Y0142135D01*
X0305800Y0141337D02*
X0312200Y0141337D01*
X0312200Y0140538D02*
X0305800Y0140538D01*
X0305800Y0139739D02*
X0308021Y0139739D01*
X0311979Y0139739D02*
X0312200Y0139739D01*
X0317800Y0137344D02*
X0319027Y0137344D01*
X0317800Y0136545D02*
X0330406Y0136545D01*
X0329905Y0135747D02*
X0317800Y0135747D01*
X0317800Y0134948D02*
X0318526Y0134948D01*
X0321474Y0134948D02*
X0328703Y0134948D01*
X0327905Y0134150D02*
X0322730Y0134150D01*
X0320973Y0137344D02*
X0328911Y0137344D01*
X0328113Y0138142D02*
X0322523Y0138142D01*
X0322800Y0127762D02*
X0328493Y0127762D01*
X0329397Y0126963D02*
X0322800Y0126963D01*
X0322800Y0126165D02*
X0330914Y0126165D01*
X0331043Y0126218D02*
X0329217Y0125462D01*
X0327819Y0124064D01*
X0327063Y0122238D01*
X0327063Y0120262D01*
X0327819Y0118436D01*
X0329217Y0117038D01*
X0331043Y0116281D01*
X0338957Y0116281D01*
X0340783Y0117038D01*
X0342181Y0118436D01*
X0342937Y0120262D01*
X0342937Y0122238D01*
X0342181Y0124064D01*
X0340783Y0125462D01*
X0338957Y0126218D01*
X0331043Y0126218D01*
X0329121Y0125366D02*
X0322665Y0125366D01*
X0322278Y0124568D02*
X0328323Y0124568D01*
X0327697Y0123769D02*
X0321328Y0123769D01*
X0327063Y0122172D02*
X0300800Y0122172D01*
X0300800Y0121374D02*
X0327063Y0121374D01*
X0327063Y0120575D02*
X0300800Y0120575D01*
X0300800Y0119777D02*
X0327264Y0119777D01*
X0327595Y0118978D02*
X0300800Y0118978D01*
X0300800Y0118180D02*
X0328075Y0118180D01*
X0328874Y0117381D02*
X0300800Y0117381D01*
X0300800Y0116583D02*
X0330316Y0116583D01*
X0327366Y0122971D02*
X0300800Y0122971D01*
X0300800Y0115784D02*
X0344300Y0115784D01*
X0344300Y0114986D02*
X0300800Y0114986D01*
X0300666Y0114187D02*
X0344300Y0114187D01*
X0344300Y0113389D02*
X0299867Y0113389D01*
X0295133Y0113389D02*
X0294867Y0113389D01*
X0291539Y0111792D02*
X0344300Y0111792D01*
X0344300Y0112590D02*
X0290290Y0112590D01*
X0292049Y0110993D02*
X0344300Y0110993D01*
X0344300Y0110195D02*
X0292049Y0110195D01*
X0292049Y0109396D02*
X0344300Y0109396D01*
X0344300Y0108598D02*
X0292049Y0108598D01*
X0292049Y0107799D02*
X0344300Y0107799D01*
X0344300Y0107001D02*
X0292049Y0107001D01*
X0292049Y0106202D02*
X0344300Y0106202D01*
X0344300Y0105403D02*
X0292049Y0105403D01*
X0292049Y0104605D02*
X0344300Y0104605D01*
X0344300Y0103806D02*
X0292049Y0103806D01*
X0293344Y0103008D02*
X0294156Y0103008D01*
X0301927Y0103008D02*
X0305573Y0103008D01*
X0304775Y0102209D02*
X0302725Y0102209D01*
X0302994Y0101411D02*
X0304506Y0101411D01*
X0304506Y0100612D02*
X0302994Y0100612D01*
X0302994Y0099814D02*
X0304506Y0099814D01*
X0304506Y0099015D02*
X0302994Y0099015D01*
X0302994Y0098217D02*
X0304506Y0098217D01*
X0304506Y0097418D02*
X0302994Y0097418D01*
X0302994Y0096620D02*
X0304506Y0096620D01*
X0304506Y0095821D02*
X0302994Y0095821D01*
X0302458Y0095023D02*
X0305042Y0095023D01*
X0306659Y0094224D02*
X0297856Y0094224D01*
X0298655Y0093426D02*
X0306659Y0093426D01*
X0306659Y0092627D02*
X0298703Y0092627D01*
X0298703Y0091829D02*
X0306659Y0091829D01*
X0306659Y0091030D02*
X0298703Y0091030D01*
X0298703Y0090232D02*
X0306659Y0090232D01*
X0306659Y0089433D02*
X0298703Y0089433D01*
X0298703Y0088635D02*
X0306659Y0088635D01*
X0306659Y0087836D02*
X0298703Y0087836D01*
X0298703Y0087038D02*
X0298707Y0087038D01*
X0289644Y0094224D02*
X0252800Y0094224D01*
X0252800Y0093426D02*
X0288845Y0093426D01*
X0288797Y0092627D02*
X0252800Y0092627D01*
X0252800Y0091829D02*
X0288797Y0091829D01*
X0288797Y0091030D02*
X0252800Y0091030D01*
X0252800Y0090232D02*
X0288797Y0090232D01*
X0288797Y0089433D02*
X0252800Y0089433D01*
X0252800Y0088635D02*
X0288797Y0088635D01*
X0288797Y0087836D02*
X0252800Y0087836D01*
X0252800Y0087038D02*
X0288797Y0087038D01*
X0289139Y0086239D02*
X0252800Y0086239D01*
X0252800Y0085441D02*
X0288797Y0085441D01*
X0288797Y0084642D02*
X0252800Y0084642D01*
X0252800Y0083844D02*
X0288797Y0083844D01*
X0288797Y0083045D02*
X0252800Y0083045D01*
X0252800Y0082247D02*
X0288797Y0082247D01*
X0288797Y0081448D02*
X0252800Y0081448D01*
X0252800Y0080650D02*
X0288797Y0080650D01*
X0288797Y0079851D02*
X0252800Y0079851D01*
X0252800Y0079053D02*
X0288867Y0079053D01*
X0289665Y0078254D02*
X0252800Y0078254D01*
X0252800Y0077456D02*
X0299325Y0077456D01*
X0298877Y0076657D02*
X0252800Y0076657D01*
X0252800Y0075859D02*
X0298547Y0075859D01*
X0298519Y0075060D02*
X0252800Y0075060D01*
X0252800Y0074262D02*
X0298519Y0074262D01*
X0298828Y0073463D02*
X0252800Y0073463D01*
X0252800Y0072665D02*
X0299205Y0072665D01*
X0300004Y0071866D02*
X0252800Y0071866D01*
X0247200Y0071866D02*
X0202800Y0071866D01*
X0202800Y0071068D02*
X0247200Y0071068D01*
X0247200Y0070269D02*
X0202800Y0070269D01*
X0202800Y0069470D02*
X0207390Y0069470D01*
X0206701Y0068672D02*
X0202800Y0068672D01*
X0202800Y0067873D02*
X0206701Y0067873D01*
X0208906Y0072000D02*
X0211094Y0072000D01*
X0213115Y0072837D01*
X0214663Y0074384D01*
X0215500Y0076406D01*
X0215500Y0078594D01*
X0214663Y0080615D01*
X0213115Y0082163D01*
X0211094Y0083000D01*
X0208906Y0083000D01*
X0206884Y0082163D01*
X0205337Y0080615D01*
X0204500Y0078594D01*
X0204500Y0076406D01*
X0205337Y0074384D01*
X0206884Y0072837D01*
X0208906Y0072000D01*
X0207302Y0072665D02*
X0202800Y0072665D01*
X0202800Y0073463D02*
X0206259Y0073463D01*
X0205460Y0074262D02*
X0202800Y0074262D01*
X0202800Y0075060D02*
X0205057Y0075060D01*
X0204727Y0075859D02*
X0202800Y0075859D01*
X0202800Y0076657D02*
X0204500Y0076657D01*
X0204500Y0077456D02*
X0202800Y0077456D01*
X0202800Y0078254D02*
X0204500Y0078254D01*
X0204690Y0079053D02*
X0202800Y0079053D01*
X0202800Y0079851D02*
X0205021Y0079851D01*
X0205371Y0080650D02*
X0202800Y0080650D01*
X0202800Y0081448D02*
X0206170Y0081448D01*
X0207087Y0082247D02*
X0202800Y0082247D01*
X0202800Y0083045D02*
X0247200Y0083045D01*
X0247200Y0082247D02*
X0242913Y0082247D01*
X0243115Y0082163D02*
X0241094Y0083000D01*
X0238906Y0083000D01*
X0236884Y0082163D01*
X0235337Y0080615D01*
X0234500Y0078594D01*
X0234500Y0076406D01*
X0235337Y0074384D01*
X0236884Y0072837D01*
X0238906Y0072000D01*
X0241094Y0072000D01*
X0243115Y0072837D01*
X0244663Y0074384D01*
X0245500Y0076406D01*
X0245500Y0078594D01*
X0244663Y0080615D01*
X0243115Y0082163D01*
X0243830Y0081448D02*
X0247200Y0081448D01*
X0247200Y0080650D02*
X0244629Y0080650D01*
X0244979Y0079851D02*
X0247200Y0079851D01*
X0247200Y0079053D02*
X0245310Y0079053D01*
X0245500Y0078254D02*
X0247200Y0078254D01*
X0247200Y0077456D02*
X0245500Y0077456D01*
X0245500Y0076657D02*
X0247200Y0076657D01*
X0247200Y0075859D02*
X0245273Y0075859D01*
X0244942Y0075060D02*
X0247200Y0075060D01*
X0247200Y0074262D02*
X0244540Y0074262D01*
X0243741Y0073463D02*
X0247200Y0073463D01*
X0247200Y0072665D02*
X0242698Y0072665D01*
X0242610Y0069470D02*
X0247200Y0069470D01*
X0247200Y0068672D02*
X0243299Y0068672D01*
X0243299Y0067873D02*
X0247200Y0067873D01*
X0237302Y0072665D02*
X0212698Y0072665D01*
X0213741Y0073463D02*
X0236259Y0073463D01*
X0235460Y0074262D02*
X0214540Y0074262D01*
X0214942Y0075060D02*
X0235057Y0075060D01*
X0234727Y0075859D02*
X0215273Y0075859D01*
X0215500Y0076657D02*
X0234500Y0076657D01*
X0234500Y0077456D02*
X0215500Y0077456D01*
X0215500Y0078254D02*
X0234500Y0078254D01*
X0234690Y0079053D02*
X0215310Y0079053D01*
X0214979Y0079851D02*
X0235021Y0079851D01*
X0235371Y0080650D02*
X0214629Y0080650D01*
X0213830Y0081448D02*
X0236170Y0081448D01*
X0237087Y0082247D02*
X0212913Y0082247D01*
X0202800Y0083844D02*
X0247200Y0083844D01*
X0247200Y0084642D02*
X0202800Y0084642D01*
X0202800Y0085441D02*
X0247200Y0085441D01*
X0247200Y0086239D02*
X0202800Y0086239D01*
X0202800Y0087038D02*
X0247200Y0087038D01*
X0247200Y0087836D02*
X0202800Y0087836D01*
X0202800Y0088635D02*
X0247200Y0088635D01*
X0247200Y0089433D02*
X0202800Y0089433D01*
X0202800Y0090232D02*
X0247200Y0090232D01*
X0247200Y0091030D02*
X0202800Y0091030D01*
X0202800Y0091829D02*
X0247200Y0091829D01*
X0247200Y0092627D02*
X0242608Y0092627D01*
X0243115Y0092837D02*
X0244663Y0094384D01*
X0245500Y0096406D01*
X0245500Y0098594D01*
X0244663Y0100615D01*
X0243115Y0102163D01*
X0241094Y0103000D01*
X0238906Y0103000D01*
X0236884Y0102163D01*
X0235337Y0100615D01*
X0234500Y0098594D01*
X0234500Y0096406D01*
X0235337Y0094384D01*
X0236884Y0092837D01*
X0238906Y0092000D01*
X0241094Y0092000D01*
X0243115Y0092837D01*
X0243704Y0093426D02*
X0247200Y0093426D01*
X0247200Y0094224D02*
X0244502Y0094224D01*
X0244927Y0095023D02*
X0246847Y0095023D01*
X0246386Y0095821D02*
X0245258Y0095821D01*
X0245500Y0096620D02*
X0246055Y0096620D01*
X0246019Y0097418D02*
X0245500Y0097418D01*
X0245500Y0098217D02*
X0246019Y0098217D01*
X0246319Y0099015D02*
X0245325Y0099015D01*
X0244995Y0099814D02*
X0246684Y0099814D01*
X0247482Y0100612D02*
X0244664Y0100612D01*
X0243867Y0101411D02*
X0249039Y0101411D01*
X0250961Y0101411D02*
X0284506Y0101411D01*
X0284506Y0100612D02*
X0252518Y0100612D01*
X0253316Y0099814D02*
X0284506Y0099814D01*
X0284506Y0099015D02*
X0253681Y0099015D01*
X0253981Y0098217D02*
X0284506Y0098217D01*
X0284506Y0097418D02*
X0253981Y0097418D01*
X0253945Y0096620D02*
X0284506Y0096620D01*
X0284506Y0095821D02*
X0253614Y0095821D01*
X0253153Y0095023D02*
X0285042Y0095023D01*
X0284690Y0102209D02*
X0243003Y0102209D01*
X0236997Y0102209D02*
X0213003Y0102209D01*
X0213115Y0102163D02*
X0211094Y0103000D01*
X0208906Y0103000D01*
X0206884Y0102163D01*
X0205337Y0100615D01*
X0204500Y0098594D01*
X0204500Y0096406D01*
X0205337Y0094384D01*
X0206884Y0092837D01*
X0208906Y0092000D01*
X0211094Y0092000D01*
X0213115Y0092837D01*
X0214663Y0094384D01*
X0215500Y0096406D01*
X0215500Y0098594D01*
X0214663Y0100615D01*
X0213115Y0102163D01*
X0213867Y0101411D02*
X0236133Y0101411D01*
X0235336Y0100612D02*
X0214664Y0100612D01*
X0214995Y0099814D02*
X0235005Y0099814D01*
X0234675Y0099015D02*
X0215325Y0099015D01*
X0215500Y0098217D02*
X0234500Y0098217D01*
X0234500Y0097418D02*
X0215500Y0097418D01*
X0215500Y0096620D02*
X0234500Y0096620D01*
X0234742Y0095821D02*
X0215258Y0095821D01*
X0214927Y0095023D02*
X0235073Y0095023D01*
X0235497Y0094224D02*
X0214502Y0094224D01*
X0213704Y0093426D02*
X0236296Y0093426D01*
X0237392Y0092627D02*
X0212608Y0092627D01*
X0207392Y0092627D02*
X0202800Y0092627D01*
X0202800Y0093426D02*
X0206296Y0093426D01*
X0205497Y0094224D02*
X0202800Y0094224D01*
X0203153Y0095023D02*
X0205073Y0095023D01*
X0204742Y0095821D02*
X0203614Y0095821D01*
X0203945Y0096620D02*
X0204500Y0096620D01*
X0204500Y0097418D02*
X0203981Y0097418D01*
X0203981Y0098217D02*
X0204500Y0098217D01*
X0204675Y0099015D02*
X0203681Y0099015D01*
X0203316Y0099814D02*
X0205005Y0099814D01*
X0205336Y0100612D02*
X0203200Y0100612D01*
X0203200Y0101411D02*
X0206133Y0101411D01*
X0206997Y0102209D02*
X0203200Y0102209D01*
X0203200Y0103008D02*
X0283642Y0103008D01*
X0282931Y0103806D02*
X0203200Y0103806D01*
X0203200Y0104605D02*
X0282931Y0104605D01*
X0282931Y0105403D02*
X0203200Y0105403D01*
X0203200Y0106202D02*
X0282931Y0106202D01*
X0282931Y0107001D02*
X0203200Y0107001D01*
X0203200Y0107799D02*
X0282931Y0107799D01*
X0282931Y0108598D02*
X0203200Y0108598D01*
X0203200Y0109396D02*
X0282931Y0109396D01*
X0282931Y0110195D02*
X0203200Y0110195D01*
X0203200Y0110993D02*
X0282931Y0110993D01*
X0283442Y0111792D02*
X0203200Y0111792D01*
X0203200Y0112590D02*
X0284690Y0112590D01*
X0280133Y0113389D02*
X0279867Y0113389D01*
X0275133Y0113389D02*
X0274867Y0113389D01*
X0270133Y0113389D02*
X0203200Y0113389D01*
X0203200Y0114187D02*
X0269334Y0114187D01*
X0269200Y0114986D02*
X0203200Y0114986D01*
X0203200Y0115784D02*
X0269200Y0115784D01*
X0269200Y0116583D02*
X0203200Y0116583D01*
X0203200Y0117381D02*
X0269200Y0117381D01*
X0269200Y0118180D02*
X0203200Y0118180D01*
X0203200Y0118978D02*
X0269200Y0118978D01*
X0269200Y0119777D02*
X0203200Y0119777D01*
X0203200Y0120575D02*
X0269200Y0120575D01*
X0269200Y0121374D02*
X0203200Y0121374D01*
X0203200Y0122172D02*
X0269200Y0122172D01*
X0269200Y0122971D02*
X0203200Y0122971D01*
X0203200Y0123769D02*
X0269200Y0123769D01*
X0269789Y0124568D02*
X0203200Y0124568D01*
X0203200Y0125366D02*
X0289700Y0125366D01*
X0289700Y0126165D02*
X0203200Y0126165D01*
X0203200Y0126963D02*
X0289700Y0126963D01*
X0289700Y0127762D02*
X0203200Y0127762D01*
X0203200Y0128560D02*
X0289700Y0128560D01*
X0289700Y0129359D02*
X0203200Y0129359D01*
X0203200Y0130157D02*
X0289700Y0130157D01*
X0289700Y0130956D02*
X0203200Y0130956D01*
X0203200Y0131754D02*
X0289700Y0131754D01*
X0290009Y0132553D02*
X0203200Y0132553D01*
X0203200Y0133351D02*
X0290642Y0133351D01*
X0285640Y0134150D02*
X0203200Y0134150D01*
X0203200Y0134948D02*
X0285008Y0134948D01*
X0284700Y0135747D02*
X0203200Y0135747D01*
X0203200Y0136545D02*
X0284700Y0136545D01*
X0284700Y0137344D02*
X0203200Y0137344D01*
X0203200Y0138142D02*
X0269579Y0138142D01*
X0269200Y0138941D02*
X0203200Y0138941D01*
X0203200Y0139739D02*
X0269200Y0139739D01*
X0269200Y0140538D02*
X0203200Y0140538D01*
X0203200Y0141337D02*
X0269200Y0141337D01*
X0269200Y0142135D02*
X0241420Y0142135D01*
X0241094Y0142000D02*
X0243115Y0142837D01*
X0244663Y0144384D01*
X0245500Y0146406D01*
X0245500Y0148594D01*
X0244663Y0150615D01*
X0243115Y0152163D01*
X0241094Y0153000D01*
X0238906Y0153000D01*
X0236884Y0152163D01*
X0235337Y0150615D01*
X0234500Y0148594D01*
X0234500Y0146406D01*
X0235337Y0144384D01*
X0236884Y0142837D01*
X0238906Y0142000D01*
X0241094Y0142000D01*
X0243212Y0142934D02*
X0269200Y0142934D01*
X0269200Y0143732D02*
X0244010Y0143732D01*
X0244723Y0144531D02*
X0269200Y0144531D01*
X0269200Y0145329D02*
X0245054Y0145329D01*
X0245385Y0146128D02*
X0269200Y0146128D01*
X0269200Y0146926D02*
X0245500Y0146926D01*
X0245500Y0147725D02*
X0269200Y0147725D01*
X0269545Y0148523D02*
X0245500Y0148523D01*
X0245199Y0149322D02*
X0269700Y0149322D01*
X0269700Y0150120D02*
X0244868Y0150120D01*
X0244360Y0150919D02*
X0269700Y0150919D01*
X0269700Y0151717D02*
X0243561Y0151717D01*
X0242263Y0152516D02*
X0269700Y0152516D01*
X0269700Y0153314D02*
X0212694Y0153314D01*
X0213424Y0154113D02*
X0269700Y0154113D01*
X0269700Y0154911D02*
X0213755Y0154911D01*
X0213981Y0155710D02*
X0269700Y0155710D01*
X0285300Y0155710D02*
X0289670Y0155710D01*
X0289670Y0156508D02*
X0285300Y0156508D01*
X0285300Y0157307D02*
X0289670Y0157307D01*
X0289670Y0158105D02*
X0285300Y0158105D01*
X0285300Y0158904D02*
X0289670Y0158904D01*
X0289670Y0159702D02*
X0285300Y0159702D01*
X0285300Y0160501D02*
X0289670Y0160501D01*
X0289670Y0161299D02*
X0285300Y0161299D01*
X0285300Y0162098D02*
X0289670Y0162098D01*
X0289670Y0162896D02*
X0285300Y0162896D01*
X0285300Y0163695D02*
X0289670Y0163695D01*
X0289670Y0164493D02*
X0285300Y0164493D01*
X0285300Y0165292D02*
X0289670Y0165292D01*
X0289670Y0166090D02*
X0285300Y0166090D01*
X0285266Y0166889D02*
X0289670Y0166889D01*
X0289670Y0167687D02*
X0284935Y0167687D01*
X0284224Y0168486D02*
X0289670Y0168486D01*
X0289670Y0169284D02*
X0241550Y0169284D01*
X0241550Y0170083D02*
X0289670Y0170083D01*
X0289670Y0170881D02*
X0241550Y0170881D01*
X0241550Y0171680D02*
X0289670Y0171680D01*
X0289670Y0172478D02*
X0241550Y0172478D01*
X0241550Y0173277D02*
X0288225Y0173277D01*
X0287518Y0174075D02*
X0241550Y0174075D01*
X0241550Y0174874D02*
X0287518Y0174874D01*
X0287518Y0175672D02*
X0241550Y0175672D01*
X0241550Y0176471D02*
X0287518Y0176471D01*
X0287518Y0177270D02*
X0241550Y0177270D01*
X0241550Y0178068D02*
X0287518Y0178068D01*
X0287518Y0178867D02*
X0273959Y0178867D01*
X0274757Y0179665D02*
X0287518Y0179665D01*
X0287518Y0180464D02*
X0274982Y0180464D01*
X0274982Y0181262D02*
X0287518Y0181262D01*
X0287518Y0182061D02*
X0274982Y0182061D01*
X0266100Y0178867D02*
X0241550Y0178867D01*
X0241550Y0179665D02*
X0265302Y0179665D01*
X0265077Y0180464D02*
X0241550Y0180464D01*
X0241550Y0181262D02*
X0265077Y0181262D01*
X0265077Y0182061D02*
X0241550Y0182061D01*
X0241550Y0182859D02*
X0265077Y0182859D01*
X0265077Y0183658D02*
X0241550Y0183658D01*
X0241550Y0184456D02*
X0265077Y0184456D01*
X0265077Y0185255D02*
X0241550Y0185255D01*
X0241550Y0186053D02*
X0265077Y0186053D01*
X0265263Y0186852D02*
X0241550Y0186852D01*
X0241550Y0187650D02*
X0266062Y0187650D01*
X0263415Y0190046D02*
X0288686Y0190046D01*
X0288686Y0190844D02*
X0264214Y0190844D01*
X0264224Y0191643D02*
X0288686Y0191643D01*
X0288686Y0192441D02*
X0264224Y0192441D01*
X0264224Y0193240D02*
X0288686Y0193240D01*
X0288686Y0194038D02*
X0264224Y0194038D01*
X0264224Y0194837D02*
X0288686Y0194837D01*
X0286261Y0195635D02*
X0276239Y0195635D01*
X0277038Y0196434D02*
X0285462Y0196434D01*
X0285156Y0197232D02*
X0277344Y0197232D01*
X0277344Y0198031D02*
X0285156Y0198031D01*
X0285156Y0198829D02*
X0277344Y0198829D01*
X0277344Y0199628D02*
X0285156Y0199628D01*
X0285156Y0200426D02*
X0277344Y0200426D01*
X0276879Y0201225D02*
X0285621Y0201225D01*
X0286327Y0210569D02*
X0296645Y0210569D01*
X0297817Y0211740D01*
X0297817Y0215760D01*
X0296645Y0216931D01*
X0286327Y0216931D01*
X0285156Y0215760D01*
X0285156Y0211740D01*
X0286327Y0210569D01*
X0286089Y0210807D02*
X0276411Y0210807D01*
X0276173Y0210569D02*
X0277344Y0211740D01*
X0277344Y0215760D01*
X0276173Y0216931D01*
X0265855Y0216931D01*
X0264683Y0215760D01*
X0264683Y0211740D01*
X0265855Y0210569D01*
X0276173Y0210569D01*
X0277210Y0211605D02*
X0285290Y0211605D01*
X0285156Y0212404D02*
X0277344Y0212404D01*
X0277344Y0213203D02*
X0285156Y0213203D01*
X0285156Y0214001D02*
X0277344Y0214001D01*
X0277344Y0214800D02*
X0285156Y0214800D01*
X0285156Y0215598D02*
X0277344Y0215598D01*
X0276707Y0216397D02*
X0285793Y0216397D01*
X0297180Y0216397D02*
X0374016Y0216397D01*
X0374016Y0217195D02*
X0251950Y0217195D01*
X0251950Y0216397D02*
X0265320Y0216397D01*
X0264683Y0215598D02*
X0251950Y0215598D01*
X0251950Y0214800D02*
X0264683Y0214800D01*
X0264683Y0214001D02*
X0251950Y0214001D01*
X0251950Y0213203D02*
X0264683Y0213203D01*
X0264683Y0212404D02*
X0251950Y0212404D01*
X0251950Y0211605D02*
X0264818Y0211605D01*
X0265617Y0210807D02*
X0251950Y0210807D01*
X0251950Y0210008D02*
X0374016Y0210008D01*
X0374016Y0209210D02*
X0251950Y0209210D01*
X0251950Y0208411D02*
X0374016Y0208411D01*
X0374016Y0207613D02*
X0251950Y0207613D01*
X0251950Y0206814D02*
X0374016Y0206814D01*
X0374016Y0206016D02*
X0251950Y0206016D01*
X0251950Y0205217D02*
X0374016Y0205217D01*
X0374016Y0204419D02*
X0251950Y0204419D01*
X0251950Y0203620D02*
X0374016Y0203620D01*
X0374016Y0210807D02*
X0296883Y0210807D01*
X0297682Y0211605D02*
X0374016Y0211605D01*
X0374016Y0212404D02*
X0297817Y0212404D01*
X0297817Y0213203D02*
X0374016Y0213203D01*
X0374016Y0214001D02*
X0297817Y0214001D01*
X0297817Y0214800D02*
X0374016Y0214800D01*
X0374016Y0215598D02*
X0297817Y0215598D01*
X0288686Y0189247D02*
X0241550Y0189247D01*
X0241550Y0188449D02*
X0288686Y0188449D01*
X0300300Y0178068D02*
X0309201Y0178068D01*
X0309400Y0177270D02*
X0300300Y0177270D01*
X0300300Y0176471D02*
X0310199Y0176471D01*
X0309842Y0175672D02*
X0300300Y0175672D01*
X0300300Y0174874D02*
X0309201Y0174874D01*
X0317321Y0176471D02*
X0317679Y0176471D01*
X0309201Y0167687D02*
X0305700Y0167687D01*
X0305700Y0166889D02*
X0309781Y0166889D01*
X0300959Y0174075D02*
X0300300Y0174075D01*
X0289670Y0154911D02*
X0285300Y0154911D01*
X0285300Y0154113D02*
X0289670Y0154113D01*
X0289670Y0153314D02*
X0285300Y0153314D01*
X0285300Y0152516D02*
X0289670Y0152516D01*
X0289670Y0151717D02*
X0285300Y0151717D01*
X0285300Y0150919D02*
X0289670Y0150919D01*
X0289670Y0150120D02*
X0285300Y0150120D01*
X0285300Y0149322D02*
X0285343Y0149322D01*
X0289657Y0149322D02*
X0289670Y0149322D01*
X0305800Y0146926D02*
X0305994Y0146926D01*
X0305800Y0146128D02*
X0330824Y0146128D01*
X0339176Y0146128D02*
X0344300Y0146128D01*
X0344300Y0146926D02*
X0340513Y0146926D01*
X0341470Y0147725D02*
X0344300Y0147725D01*
X0344300Y0145329D02*
X0340916Y0145329D01*
X0341714Y0144531D02*
X0344300Y0144531D01*
X0344300Y0143732D02*
X0342318Y0143732D01*
X0342649Y0142934D02*
X0344300Y0142934D01*
X0344300Y0142135D02*
X0342937Y0142135D01*
X0342937Y0141337D02*
X0344300Y0141337D01*
X0344300Y0140538D02*
X0342937Y0140538D01*
X0342721Y0139739D02*
X0344300Y0139739D01*
X0344300Y0138941D02*
X0342390Y0138941D01*
X0341887Y0138142D02*
X0344300Y0138142D01*
X0344300Y0137344D02*
X0341089Y0137344D01*
X0339594Y0136545D02*
X0344300Y0136545D01*
X0344300Y0135747D02*
X0340095Y0135747D01*
X0341297Y0134948D02*
X0344300Y0134948D01*
X0344300Y0134150D02*
X0342095Y0134150D01*
X0342476Y0133351D02*
X0344300Y0133351D01*
X0344300Y0132553D02*
X0342807Y0132553D01*
X0342937Y0131754D02*
X0344300Y0131754D01*
X0344300Y0130956D02*
X0342937Y0130956D01*
X0342894Y0130157D02*
X0344300Y0130157D01*
X0344300Y0129359D02*
X0342563Y0129359D01*
X0342232Y0128560D02*
X0344300Y0128560D01*
X0344300Y0127762D02*
X0341507Y0127762D01*
X0340603Y0126963D02*
X0344300Y0126963D01*
X0344300Y0126165D02*
X0339086Y0126165D01*
X0340879Y0125366D02*
X0344300Y0125366D01*
X0344300Y0124568D02*
X0341677Y0124568D01*
X0342303Y0123769D02*
X0344300Y0123769D01*
X0344300Y0122971D02*
X0342634Y0122971D01*
X0342937Y0122172D02*
X0344300Y0122172D01*
X0344300Y0121374D02*
X0342937Y0121374D01*
X0342937Y0120575D02*
X0344300Y0120575D01*
X0344300Y0119777D02*
X0342736Y0119777D01*
X0342405Y0118978D02*
X0344300Y0118978D01*
X0344300Y0118180D02*
X0341925Y0118180D01*
X0341126Y0117381D02*
X0344300Y0117381D01*
X0344300Y0116583D02*
X0339684Y0116583D01*
X0344300Y0103008D02*
X0313344Y0103008D01*
X0314143Y0102209D02*
X0344300Y0102209D01*
X0298415Y0078254D02*
X0297834Y0078254D01*
X0325849Y0028746D02*
X0374016Y0028746D01*
X0374016Y0027948D02*
X0326648Y0027948D01*
X0327446Y0027149D02*
X0374016Y0027149D01*
X0374016Y0026351D02*
X0327779Y0026351D01*
X0328110Y0025552D02*
X0374016Y0025552D01*
X0374016Y0024754D02*
X0328339Y0024754D01*
X0328339Y0023955D02*
X0374016Y0023955D01*
X0374016Y0023157D02*
X0328339Y0023157D01*
X0328339Y0022358D02*
X0374016Y0022358D01*
X0374016Y0021560D02*
X0328339Y0021560D01*
X0328339Y0020761D02*
X0374016Y0020761D01*
X0374016Y0019963D02*
X0328339Y0019963D01*
X0328339Y0019164D02*
X0374016Y0019164D01*
X0374016Y0018366D02*
X0328339Y0018366D01*
X0328339Y0017567D02*
X0374016Y0017567D01*
X0374016Y0016769D02*
X0328339Y0016769D01*
X0328339Y0015970D02*
X0374016Y0015970D01*
X0374016Y0015172D02*
X0328339Y0015172D01*
X0328079Y0014373D02*
X0374016Y0014373D01*
X0374016Y0013575D02*
X0327748Y0013575D01*
X0327372Y0012776D02*
X0374016Y0012776D01*
X0374016Y0011978D02*
X0326573Y0011978D01*
X0325729Y0011179D02*
X0374016Y0011179D01*
X0374016Y0010381D02*
X0323801Y0010381D01*
X0366142Y0000000D02*
X0007874Y0000000D01*
X0004443Y0000799D02*
X0369572Y0000799D01*
X0370879Y0001597D02*
X0003137Y0001597D01*
X0000000Y0060687D02*
X0052233Y0060687D01*
X0051701Y0061485D02*
X0000000Y0061485D01*
X0000000Y0062284D02*
X0044241Y0062284D01*
X0042958Y0063082D02*
X0000000Y0063082D01*
X0000000Y0063881D02*
X0042433Y0063881D01*
X0042200Y0064679D02*
X0000000Y0064679D01*
X0000000Y0065478D02*
X0042200Y0065478D01*
X0042200Y0066276D02*
X0000000Y0066276D01*
X0000000Y0067075D02*
X0042200Y0067075D01*
X0042200Y0067873D02*
X0000000Y0067873D01*
X0000000Y0068672D02*
X0042200Y0068672D01*
X0042200Y0069470D02*
X0000000Y0069470D01*
X0000000Y0070269D02*
X0042200Y0070269D01*
X0042200Y0071068D02*
X0000000Y0071068D01*
X0000000Y0071866D02*
X0042200Y0071866D01*
X0042200Y0072665D02*
X0000000Y0072665D01*
X0000000Y0073463D02*
X0042200Y0073463D01*
X0042200Y0074262D02*
X0000000Y0074262D01*
X0000000Y0075060D02*
X0042200Y0075060D01*
X0042200Y0075859D02*
X0000000Y0075859D01*
X0000000Y0076657D02*
X0042200Y0076657D01*
X0042200Y0077456D02*
X0000000Y0077456D01*
X0000000Y0078254D02*
X0042200Y0078254D01*
X0042200Y0079053D02*
X0000000Y0079053D01*
X0000000Y0079851D02*
X0042200Y0079851D01*
X0042200Y0080650D02*
X0000000Y0080650D01*
X0000000Y0081448D02*
X0042200Y0081448D01*
X0042200Y0082247D02*
X0000000Y0082247D01*
X0000000Y0083045D02*
X0042200Y0083045D01*
X0042200Y0083844D02*
X0000000Y0083844D01*
X0000000Y0084642D02*
X0042200Y0084642D01*
X0042200Y0085441D02*
X0000000Y0085441D01*
X0000000Y0086239D02*
X0042200Y0086239D01*
X0042200Y0087038D02*
X0000000Y0087038D01*
X0000000Y0087836D02*
X0042200Y0087836D01*
X0042200Y0088635D02*
X0000000Y0088635D01*
X0000000Y0089433D02*
X0042200Y0089433D01*
X0042200Y0090232D02*
X0000000Y0090232D01*
X0000000Y0091030D02*
X0042200Y0091030D01*
X0042200Y0091829D02*
X0000000Y0091829D01*
X0000000Y0092627D02*
X0042200Y0092627D01*
X0042200Y0093426D02*
X0000000Y0093426D01*
X0000000Y0094224D02*
X0042200Y0094224D01*
X0041847Y0095023D02*
X0000000Y0095023D01*
X0000000Y0095821D02*
X0041386Y0095821D01*
X0041055Y0096620D02*
X0000000Y0096620D01*
X0000000Y0097418D02*
X0041019Y0097418D01*
X0041019Y0098217D02*
X0000000Y0098217D01*
X0000000Y0099015D02*
X0041319Y0099015D01*
X0041684Y0099814D02*
X0000000Y0099814D01*
X0000000Y0100612D02*
X0041800Y0100612D01*
X0041800Y0101411D02*
X0000000Y0101411D01*
X0000000Y0102209D02*
X0041800Y0102209D01*
X0041800Y0103008D02*
X0000000Y0103008D01*
X0000000Y0103806D02*
X0041800Y0103806D01*
X0041800Y0104605D02*
X0000000Y0104605D01*
X0000000Y0105403D02*
X0041800Y0105403D01*
X0041800Y0106202D02*
X0000000Y0106202D01*
X0000000Y0107001D02*
X0041800Y0107001D01*
X0041800Y0107799D02*
X0000000Y0107799D01*
X0000000Y0108598D02*
X0041800Y0108598D01*
X0041800Y0109396D02*
X0000000Y0109396D01*
X0000000Y0110195D02*
X0041800Y0110195D01*
X0041800Y0110993D02*
X0000000Y0110993D01*
X0000000Y0111792D02*
X0041800Y0111792D01*
X0041800Y0112590D02*
X0000000Y0112590D01*
X0000000Y0113389D02*
X0041800Y0113389D01*
X0041800Y0114187D02*
X0000000Y0114187D01*
X0000000Y0114986D02*
X0041800Y0114986D01*
X0041800Y0115784D02*
X0000000Y0115784D01*
X0000000Y0116583D02*
X0041800Y0116583D01*
X0041800Y0117381D02*
X0000000Y0117381D01*
X0000000Y0118180D02*
X0041800Y0118180D01*
X0041800Y0118978D02*
X0000000Y0118978D01*
X0000000Y0119777D02*
X0041800Y0119777D01*
X0041800Y0120575D02*
X0000000Y0120575D01*
X0000000Y0121374D02*
X0041800Y0121374D01*
X0041800Y0122172D02*
X0000000Y0122172D01*
X0000000Y0122971D02*
X0041800Y0122971D01*
X0041800Y0123769D02*
X0000000Y0123769D01*
X0000000Y0124568D02*
X0041800Y0124568D01*
X0041800Y0125366D02*
X0000000Y0125366D01*
X0000000Y0126165D02*
X0041800Y0126165D01*
X0041800Y0126963D02*
X0000000Y0126963D01*
X0000000Y0127762D02*
X0041800Y0127762D01*
X0041800Y0128560D02*
X0000000Y0128560D01*
X0000000Y0129359D02*
X0041800Y0129359D01*
X0041800Y0130157D02*
X0000000Y0130157D01*
X0000000Y0130956D02*
X0041800Y0130956D01*
X0041800Y0131754D02*
X0000000Y0131754D01*
X0000000Y0132553D02*
X0041800Y0132553D01*
X0041800Y0133351D02*
X0000000Y0133351D01*
X0000000Y0134150D02*
X0041800Y0134150D01*
X0041800Y0134948D02*
X0000000Y0134948D01*
X0000000Y0135747D02*
X0041800Y0135747D01*
X0041800Y0136545D02*
X0000000Y0136545D01*
X0000000Y0137344D02*
X0041800Y0137344D01*
X0041800Y0138142D02*
X0000000Y0138142D01*
X0000000Y0138941D02*
X0041800Y0138941D01*
X0041800Y0139739D02*
X0000000Y0139739D01*
X0000000Y0140538D02*
X0041800Y0140538D01*
X0041800Y0141337D02*
X0000000Y0141337D01*
X0000000Y0142135D02*
X0041800Y0142135D01*
X0041800Y0142934D02*
X0000000Y0142934D01*
X0000000Y0143732D02*
X0041800Y0143732D01*
X0041800Y0144531D02*
X0000000Y0144531D01*
X0000000Y0145329D02*
X0041800Y0145329D01*
X0041800Y0146128D02*
X0000000Y0146128D01*
X0000000Y0146926D02*
X0041800Y0146926D01*
X0041800Y0147725D02*
X0000000Y0147725D01*
X0000000Y0148523D02*
X0041800Y0148523D01*
X0041800Y0149322D02*
X0000000Y0149322D01*
X0000000Y0150120D02*
X0041800Y0150120D01*
X0041800Y0150919D02*
X0000000Y0150919D01*
X0000000Y0151717D02*
X0041800Y0151717D01*
X0041800Y0152516D02*
X0000000Y0152516D01*
X0000000Y0153314D02*
X0041800Y0153314D01*
X0041800Y0154113D02*
X0000000Y0154113D01*
X0000000Y0154911D02*
X0041800Y0154911D01*
X0041800Y0155710D02*
X0000000Y0155710D01*
X0000000Y0156508D02*
X0041800Y0156508D01*
X0041800Y0157307D02*
X0000000Y0157307D01*
X0000000Y0158105D02*
X0041800Y0158105D01*
X0041800Y0158904D02*
X0000000Y0158904D01*
X0000000Y0159702D02*
X0041800Y0159702D01*
X0041800Y0160501D02*
X0000000Y0160501D01*
X0000000Y0161299D02*
X0041800Y0161299D01*
X0041800Y0162098D02*
X0000000Y0162098D01*
X0000000Y0162896D02*
X0041800Y0162896D01*
X0041800Y0163695D02*
X0000000Y0163695D01*
X0000000Y0164493D02*
X0041800Y0164493D01*
X0041800Y0165292D02*
X0000000Y0165292D01*
X0000000Y0166090D02*
X0041800Y0166090D01*
X0041800Y0166889D02*
X0000000Y0166889D01*
X0000000Y0167687D02*
X0041800Y0167687D01*
X0041800Y0168486D02*
X0000000Y0168486D01*
X0000000Y0169284D02*
X0041800Y0169284D01*
X0041800Y0170083D02*
X0000000Y0170083D01*
X0000000Y0170881D02*
X0041800Y0170881D01*
X0041800Y0171680D02*
X0000000Y0171680D01*
X0000000Y0172478D02*
X0041800Y0172478D01*
X0041800Y0173277D02*
X0000000Y0173277D01*
X0000000Y0174075D02*
X0041800Y0174075D01*
X0041800Y0174874D02*
X0000000Y0174874D01*
X0000000Y0175672D02*
X0041800Y0175672D01*
X0041800Y0176471D02*
X0000000Y0176471D01*
X0000000Y0177270D02*
X0041800Y0177270D01*
X0041800Y0178068D02*
X0000000Y0178068D01*
X0000000Y0178867D02*
X0041800Y0178867D01*
X0041800Y0179665D02*
X0000000Y0179665D01*
X0000000Y0180464D02*
X0041800Y0180464D01*
X0041800Y0181262D02*
X0000000Y0181262D01*
X0000000Y0182061D02*
X0041800Y0182061D01*
X0041800Y0182859D02*
X0000000Y0182859D01*
X0000000Y0183658D02*
X0041800Y0183658D01*
X0041800Y0184456D02*
X0000000Y0184456D01*
X0000000Y0185255D02*
X0041800Y0185255D01*
X0041800Y0186053D02*
X0000000Y0186053D01*
X0000000Y0186852D02*
X0041800Y0186852D01*
X0041800Y0187650D02*
X0000000Y0187650D01*
X0000000Y0188449D02*
X0041800Y0188449D01*
X0041800Y0189247D02*
X0000000Y0189247D01*
X0000000Y0190046D02*
X0041800Y0190046D01*
X0041800Y0190844D02*
X0000000Y0190844D01*
X0000000Y0191643D02*
X0041800Y0191643D01*
X0041800Y0192441D02*
X0000000Y0192441D01*
X0000000Y0193240D02*
X0041843Y0193240D01*
X0042174Y0194038D02*
X0000000Y0194038D01*
X0000000Y0194837D02*
X0042811Y0194837D01*
X0044207Y0195635D02*
X0000000Y0195635D01*
X0000000Y0196434D02*
X0177950Y0196434D01*
X0177950Y0197232D02*
X0000000Y0197232D01*
X0000000Y0198031D02*
X0177950Y0198031D01*
X0177950Y0198829D02*
X0000000Y0198829D01*
X0000000Y0201225D02*
X0177950Y0201225D01*
X0177950Y0202023D02*
X0000000Y0202023D01*
X0000000Y0202822D02*
X0177950Y0202822D01*
X0177950Y0203620D02*
X0000000Y0203620D01*
X0000000Y0204419D02*
X0177950Y0204419D01*
X0178104Y0205217D02*
X0000000Y0205217D01*
X0000000Y0206016D02*
X0177950Y0206016D01*
X0177950Y0206814D02*
X0000000Y0206814D01*
X0000000Y0207613D02*
X0177950Y0207613D01*
X0177950Y0208411D02*
X0000000Y0208411D01*
X0000000Y0209210D02*
X0177950Y0209210D01*
X0178313Y0210008D02*
X0000000Y0210008D01*
X0000000Y0210807D02*
X0177950Y0210807D01*
X0177950Y0211605D02*
X0000000Y0211605D01*
X0000000Y0212404D02*
X0177950Y0212404D01*
X0177950Y0213203D02*
X0000000Y0213203D01*
X0000000Y0214001D02*
X0177950Y0214001D01*
X0178121Y0214800D02*
X0000000Y0214800D01*
X0000000Y0215598D02*
X0178920Y0215598D01*
X0189950Y0209210D02*
X0206800Y0209210D01*
X0206800Y0208411D02*
X0189950Y0208411D01*
X0189950Y0207613D02*
X0206800Y0207613D01*
X0206800Y0206814D02*
X0189950Y0206814D01*
X0189950Y0206016D02*
X0206800Y0206016D01*
X0206800Y0205217D02*
X0189796Y0205217D01*
X0189950Y0204419D02*
X0206800Y0204419D01*
X0206800Y0203620D02*
X0189950Y0203620D01*
X0189950Y0202822D02*
X0206800Y0202822D01*
X0206800Y0202023D02*
X0189950Y0202023D01*
X0189950Y0201225D02*
X0206800Y0201225D01*
X0206800Y0198829D02*
X0189950Y0198829D01*
X0189950Y0198031D02*
X0206800Y0198031D01*
X0206800Y0197232D02*
X0189950Y0197232D01*
X0189950Y0196434D02*
X0206800Y0196434D01*
X0206800Y0195635D02*
X0189950Y0195635D01*
X0189742Y0194837D02*
X0206800Y0194837D01*
X0206800Y0194038D02*
X0189950Y0194038D01*
X0189950Y0193240D02*
X0206800Y0193240D01*
X0206800Y0192441D02*
X0189950Y0192441D01*
X0189950Y0191643D02*
X0206800Y0191643D01*
X0206800Y0190844D02*
X0189950Y0190844D01*
X0189624Y0190046D02*
X0206800Y0190046D01*
X0206800Y0189247D02*
X0189950Y0189247D01*
X0189950Y0188449D02*
X0206800Y0188449D01*
X0206800Y0187650D02*
X0189950Y0187650D01*
X0189950Y0186852D02*
X0206800Y0186852D01*
X0206800Y0186053D02*
X0189950Y0186053D01*
X0189833Y0185255D02*
X0206800Y0185255D01*
X0206800Y0184456D02*
X0189950Y0184456D01*
X0189950Y0183658D02*
X0206800Y0183658D01*
X0206800Y0182859D02*
X0189950Y0182859D01*
X0189950Y0182061D02*
X0206800Y0182061D01*
X0206800Y0181262D02*
X0189950Y0181262D01*
X0189950Y0180464D02*
X0206800Y0180464D01*
X0206800Y0179665D02*
X0189913Y0179665D01*
X0189950Y0178867D02*
X0206800Y0178867D01*
X0206800Y0178068D02*
X0189950Y0178068D01*
X0189950Y0177270D02*
X0206800Y0177270D01*
X0206800Y0176471D02*
X0189950Y0176471D01*
X0188863Y0169284D02*
X0196800Y0169284D01*
X0196800Y0168486D02*
X0125700Y0168486D01*
X0125700Y0169284D02*
X0179037Y0169284D01*
X0178239Y0170083D02*
X0125700Y0170083D01*
X0125700Y0170881D02*
X0177950Y0170881D01*
X0177950Y0171680D02*
X0125700Y0171680D01*
X0125700Y0172478D02*
X0177950Y0172478D01*
X0177950Y0173277D02*
X0125700Y0173277D01*
X0125700Y0174075D02*
X0177950Y0174075D01*
X0178196Y0174874D02*
X0125700Y0174874D01*
X0125700Y0175672D02*
X0177950Y0175672D01*
X0177950Y0176471D02*
X0125700Y0176471D01*
X0125700Y0177270D02*
X0177950Y0177270D01*
X0177950Y0178068D02*
X0125700Y0178068D01*
X0125700Y0178867D02*
X0177950Y0178867D01*
X0177950Y0186053D02*
X0048200Y0186053D01*
X0048200Y0185255D02*
X0120788Y0185255D01*
X0119931Y0184456D02*
X0048200Y0184456D01*
X0048200Y0183658D02*
X0119516Y0183658D01*
X0119300Y0182859D02*
X0048200Y0182859D01*
X0048200Y0182061D02*
X0119300Y0182061D01*
X0119300Y0181262D02*
X0048200Y0181262D01*
X0048200Y0180464D02*
X0119300Y0180464D01*
X0119300Y0179665D02*
X0048200Y0179665D01*
X0048200Y0178867D02*
X0119300Y0178867D01*
X0119300Y0178068D02*
X0048200Y0178068D01*
X0048200Y0177270D02*
X0119300Y0177270D01*
X0119300Y0176471D02*
X0048200Y0176471D01*
X0048200Y0175672D02*
X0119300Y0175672D01*
X0119300Y0174874D02*
X0048200Y0174874D01*
X0048200Y0174075D02*
X0119300Y0174075D01*
X0119300Y0173277D02*
X0048200Y0173277D01*
X0048200Y0172478D02*
X0119300Y0172478D01*
X0119300Y0171680D02*
X0048200Y0171680D01*
X0048200Y0170881D02*
X0119300Y0170881D01*
X0119300Y0170083D02*
X0048200Y0170083D01*
X0048200Y0169284D02*
X0119300Y0169284D01*
X0119300Y0168486D02*
X0048200Y0168486D01*
X0048200Y0167687D02*
X0119300Y0167687D01*
X0119300Y0166889D02*
X0048200Y0166889D01*
X0048200Y0166090D02*
X0119300Y0166090D01*
X0119300Y0165292D02*
X0048200Y0165292D01*
X0048200Y0164493D02*
X0119300Y0164493D01*
X0119300Y0163695D02*
X0048200Y0163695D01*
X0048200Y0162896D02*
X0119300Y0162896D01*
X0119300Y0162098D02*
X0048200Y0162098D01*
X0048200Y0161299D02*
X0119300Y0161299D01*
X0119300Y0160501D02*
X0048200Y0160501D01*
X0048200Y0159702D02*
X0119300Y0159702D01*
X0119300Y0158904D02*
X0048200Y0158904D01*
X0048200Y0158105D02*
X0119300Y0158105D01*
X0119300Y0157307D02*
X0048200Y0157307D01*
X0048200Y0156508D02*
X0119300Y0156508D01*
X0119300Y0155710D02*
X0048200Y0155710D01*
X0048200Y0154911D02*
X0119300Y0154911D01*
X0119300Y0154113D02*
X0048200Y0154113D01*
X0048200Y0153314D02*
X0119300Y0153314D01*
X0119300Y0152516D02*
X0087263Y0152516D01*
X0088115Y0152163D02*
X0086094Y0153000D01*
X0083906Y0153000D01*
X0081884Y0152163D01*
X0080337Y0150615D01*
X0079500Y0148594D01*
X0079500Y0146406D01*
X0080337Y0144384D01*
X0081884Y0142837D01*
X0083906Y0142000D01*
X0086094Y0142000D01*
X0088115Y0142837D01*
X0089663Y0144384D01*
X0090500Y0146406D01*
X0090500Y0148594D01*
X0089663Y0150615D01*
X0088115Y0152163D01*
X0088561Y0151717D02*
X0119300Y0151717D01*
X0119300Y0150919D02*
X0089360Y0150919D01*
X0089868Y0150120D02*
X0119300Y0150120D01*
X0119300Y0149322D02*
X0090199Y0149322D01*
X0090500Y0148523D02*
X0119300Y0148523D01*
X0119300Y0147725D02*
X0090500Y0147725D01*
X0090500Y0146926D02*
X0119300Y0146926D01*
X0119300Y0146128D02*
X0090385Y0146128D01*
X0090054Y0145329D02*
X0119300Y0145329D01*
X0119300Y0144531D02*
X0089723Y0144531D01*
X0089010Y0143732D02*
X0119300Y0143732D01*
X0119300Y0142934D02*
X0088212Y0142934D01*
X0086420Y0142135D02*
X0119300Y0142135D01*
X0119300Y0141337D02*
X0048200Y0141337D01*
X0048200Y0142135D02*
X0083580Y0142135D01*
X0081788Y0142934D02*
X0048200Y0142934D01*
X0048200Y0143732D02*
X0080990Y0143732D01*
X0080277Y0144531D02*
X0048200Y0144531D01*
X0048200Y0145329D02*
X0079946Y0145329D01*
X0079615Y0146128D02*
X0048200Y0146128D01*
X0048200Y0146926D02*
X0079500Y0146926D01*
X0079500Y0147725D02*
X0048200Y0147725D01*
X0048200Y0148523D02*
X0079500Y0148523D01*
X0079801Y0149322D02*
X0048200Y0149322D01*
X0048200Y0150120D02*
X0080132Y0150120D01*
X0080640Y0150919D02*
X0048200Y0150919D01*
X0048200Y0151717D02*
X0081439Y0151717D01*
X0082737Y0152516D02*
X0048200Y0152516D01*
X0048200Y0140538D02*
X0119300Y0140538D01*
X0119300Y0139739D02*
X0048200Y0139739D01*
X0048200Y0138941D02*
X0119300Y0138941D01*
X0119300Y0138142D02*
X0048200Y0138142D01*
X0048200Y0137344D02*
X0119300Y0137344D01*
X0119300Y0136545D02*
X0048200Y0136545D01*
X0048200Y0135747D02*
X0119300Y0135747D01*
X0119300Y0134948D02*
X0048200Y0134948D01*
X0048200Y0134150D02*
X0119300Y0134150D01*
X0119300Y0133351D02*
X0048200Y0133351D01*
X0048200Y0132553D02*
X0119300Y0132553D01*
X0119300Y0131754D02*
X0048200Y0131754D01*
X0048200Y0130956D02*
X0119300Y0130956D01*
X0119300Y0130157D02*
X0048200Y0130157D01*
X0048200Y0129359D02*
X0119300Y0129359D01*
X0119300Y0128560D02*
X0048200Y0128560D01*
X0048200Y0127762D02*
X0119300Y0127762D01*
X0119300Y0126963D02*
X0048200Y0126963D01*
X0048200Y0126165D02*
X0119300Y0126165D01*
X0119300Y0125366D02*
X0048200Y0125366D01*
X0048200Y0124568D02*
X0119300Y0124568D01*
X0119300Y0123769D02*
X0048200Y0123769D01*
X0048200Y0122971D02*
X0119300Y0122971D01*
X0119300Y0122172D02*
X0048200Y0122172D01*
X0048200Y0121374D02*
X0119300Y0121374D01*
X0119300Y0120575D02*
X0048200Y0120575D01*
X0048200Y0119777D02*
X0119300Y0119777D01*
X0119300Y0118978D02*
X0048200Y0118978D01*
X0048200Y0118180D02*
X0119300Y0118180D01*
X0119300Y0117381D02*
X0048200Y0117381D01*
X0048200Y0116583D02*
X0119300Y0116583D01*
X0119300Y0115784D02*
X0048200Y0115784D01*
X0048200Y0114986D02*
X0119300Y0114986D01*
X0119300Y0114187D02*
X0048200Y0114187D01*
X0048200Y0113389D02*
X0119300Y0113389D01*
X0119300Y0112590D02*
X0048200Y0112590D01*
X0048200Y0111792D02*
X0119300Y0111792D01*
X0119300Y0110993D02*
X0048200Y0110993D01*
X0048200Y0110195D02*
X0119300Y0110195D01*
X0119300Y0109396D02*
X0048200Y0109396D01*
X0048200Y0108598D02*
X0119300Y0108598D01*
X0119300Y0107799D02*
X0048200Y0107799D01*
X0048200Y0107001D02*
X0119300Y0107001D01*
X0119300Y0106202D02*
X0048200Y0106202D01*
X0048200Y0105403D02*
X0119300Y0105403D01*
X0119300Y0104605D02*
X0048200Y0104605D01*
X0048200Y0103806D02*
X0119300Y0103806D01*
X0119300Y0103008D02*
X0048200Y0103008D01*
X0048200Y0102209D02*
X0051997Y0102209D01*
X0051884Y0102163D02*
X0050337Y0100615D01*
X0049500Y0098594D01*
X0049500Y0096406D01*
X0050337Y0094384D01*
X0051884Y0092837D01*
X0053906Y0092000D01*
X0056094Y0092000D01*
X0058115Y0092837D01*
X0059663Y0094384D01*
X0060500Y0096406D01*
X0060500Y0098594D01*
X0059663Y0100615D01*
X0058115Y0102163D01*
X0056094Y0103000D01*
X0053906Y0103000D01*
X0051884Y0102163D01*
X0051133Y0101411D02*
X0048200Y0101411D01*
X0048200Y0100612D02*
X0050336Y0100612D01*
X0050005Y0099814D02*
X0048316Y0099814D01*
X0048681Y0099015D02*
X0049675Y0099015D01*
X0049500Y0098217D02*
X0048981Y0098217D01*
X0048981Y0097418D02*
X0049500Y0097418D01*
X0049500Y0096620D02*
X0048945Y0096620D01*
X0048614Y0095821D02*
X0049742Y0095821D01*
X0050073Y0095023D02*
X0048153Y0095023D01*
X0047800Y0094224D02*
X0050497Y0094224D01*
X0051296Y0093426D02*
X0047800Y0093426D01*
X0047800Y0092627D02*
X0052392Y0092627D01*
X0047800Y0091829D02*
X0092200Y0091829D01*
X0092200Y0092627D02*
X0087608Y0092627D01*
X0088115Y0092837D02*
X0089663Y0094384D01*
X0090500Y0096406D01*
X0090500Y0098594D01*
X0089663Y0100615D01*
X0088115Y0102163D01*
X0086094Y0103000D01*
X0083906Y0103000D01*
X0081884Y0102163D01*
X0080337Y0100615D01*
X0079500Y0098594D01*
X0079500Y0096406D01*
X0080337Y0094384D01*
X0081884Y0092837D01*
X0083906Y0092000D01*
X0086094Y0092000D01*
X0088115Y0092837D01*
X0088704Y0093426D02*
X0092200Y0093426D01*
X0092200Y0094224D02*
X0089502Y0094224D01*
X0089927Y0095023D02*
X0091847Y0095023D01*
X0091386Y0095821D02*
X0090258Y0095821D01*
X0090500Y0096620D02*
X0091055Y0096620D01*
X0091019Y0097418D02*
X0090500Y0097418D01*
X0090500Y0098217D02*
X0091019Y0098217D01*
X0091319Y0099015D02*
X0090325Y0099015D01*
X0089995Y0099814D02*
X0091684Y0099814D01*
X0092482Y0100612D02*
X0089664Y0100612D01*
X0088867Y0101411D02*
X0094039Y0101411D01*
X0095961Y0101411D02*
X0119300Y0101411D01*
X0119300Y0102209D02*
X0088003Y0102209D01*
X0081997Y0102209D02*
X0058003Y0102209D01*
X0058867Y0101411D02*
X0081133Y0101411D01*
X0080336Y0100612D02*
X0059664Y0100612D01*
X0059995Y0099814D02*
X0080005Y0099814D01*
X0079675Y0099015D02*
X0060325Y0099015D01*
X0060500Y0098217D02*
X0079500Y0098217D01*
X0079500Y0097418D02*
X0060500Y0097418D01*
X0060500Y0096620D02*
X0079500Y0096620D01*
X0079742Y0095821D02*
X0060258Y0095821D01*
X0059927Y0095023D02*
X0080073Y0095023D01*
X0080497Y0094224D02*
X0059502Y0094224D01*
X0058704Y0093426D02*
X0081296Y0093426D01*
X0082392Y0092627D02*
X0057608Y0092627D01*
X0047800Y0091030D02*
X0092200Y0091030D01*
X0092200Y0090232D02*
X0047800Y0090232D01*
X0047800Y0089433D02*
X0092200Y0089433D01*
X0092200Y0088635D02*
X0047800Y0088635D01*
X0047800Y0087836D02*
X0092200Y0087836D01*
X0092200Y0087038D02*
X0047800Y0087038D01*
X0047800Y0086239D02*
X0092200Y0086239D01*
X0092200Y0085441D02*
X0047800Y0085441D01*
X0047800Y0084642D02*
X0092200Y0084642D01*
X0092200Y0083844D02*
X0047800Y0083844D01*
X0047800Y0083045D02*
X0092200Y0083045D01*
X0092200Y0082247D02*
X0087913Y0082247D01*
X0088115Y0082163D02*
X0086094Y0083000D01*
X0083906Y0083000D01*
X0081884Y0082163D01*
X0080337Y0080615D01*
X0079500Y0078594D01*
X0079500Y0076406D01*
X0080337Y0074384D01*
X0081884Y0072837D01*
X0083906Y0072000D01*
X0086094Y0072000D01*
X0088115Y0072837D01*
X0089663Y0074384D01*
X0090500Y0076406D01*
X0090500Y0078594D01*
X0089663Y0080615D01*
X0088115Y0082163D01*
X0088830Y0081448D02*
X0092200Y0081448D01*
X0092200Y0080650D02*
X0089629Y0080650D01*
X0089979Y0079851D02*
X0092200Y0079851D01*
X0092200Y0079053D02*
X0090310Y0079053D01*
X0090500Y0078254D02*
X0092200Y0078254D01*
X0092200Y0077456D02*
X0090500Y0077456D01*
X0090500Y0076657D02*
X0092200Y0076657D01*
X0092200Y0075859D02*
X0090273Y0075859D01*
X0089942Y0075060D02*
X0092200Y0075060D01*
X0092200Y0074262D02*
X0089540Y0074262D01*
X0088741Y0073463D02*
X0092200Y0073463D01*
X0092200Y0072665D02*
X0087698Y0072665D01*
X0087610Y0069470D02*
X0092200Y0069470D01*
X0092200Y0068672D02*
X0088299Y0068672D01*
X0088299Y0067873D02*
X0092200Y0067873D01*
X0092200Y0070269D02*
X0047800Y0070269D01*
X0047800Y0071068D02*
X0092200Y0071068D01*
X0092200Y0071866D02*
X0047800Y0071866D01*
X0047800Y0072665D02*
X0052302Y0072665D01*
X0051884Y0072837D02*
X0053906Y0072000D01*
X0056094Y0072000D01*
X0058115Y0072837D01*
X0059663Y0074384D01*
X0060500Y0076406D01*
X0060500Y0078594D01*
X0059663Y0080615D01*
X0058115Y0082163D01*
X0056094Y0083000D01*
X0053906Y0083000D01*
X0051884Y0082163D01*
X0050337Y0080615D01*
X0049500Y0078594D01*
X0049500Y0076406D01*
X0050337Y0074384D01*
X0051884Y0072837D01*
X0051259Y0073463D02*
X0047800Y0073463D01*
X0047800Y0074262D02*
X0050460Y0074262D01*
X0050057Y0075060D02*
X0047800Y0075060D01*
X0047800Y0075859D02*
X0049727Y0075859D01*
X0049500Y0076657D02*
X0047800Y0076657D01*
X0047800Y0077456D02*
X0049500Y0077456D01*
X0049500Y0078254D02*
X0047800Y0078254D01*
X0047800Y0079053D02*
X0049690Y0079053D01*
X0050021Y0079851D02*
X0047800Y0079851D01*
X0047800Y0080650D02*
X0050371Y0080650D01*
X0051170Y0081448D02*
X0047800Y0081448D01*
X0047800Y0082247D02*
X0052087Y0082247D01*
X0057913Y0082247D02*
X0082087Y0082247D01*
X0081170Y0081448D02*
X0058830Y0081448D01*
X0059629Y0080650D02*
X0080371Y0080650D01*
X0080021Y0079851D02*
X0059979Y0079851D01*
X0060310Y0079053D02*
X0079690Y0079053D01*
X0079500Y0078254D02*
X0060500Y0078254D01*
X0060500Y0077456D02*
X0079500Y0077456D01*
X0079500Y0076657D02*
X0060500Y0076657D01*
X0060273Y0075859D02*
X0079727Y0075859D01*
X0080057Y0075060D02*
X0059942Y0075060D01*
X0059540Y0074262D02*
X0080460Y0074262D01*
X0081259Y0073463D02*
X0058741Y0073463D01*
X0057698Y0072665D02*
X0082302Y0072665D01*
X0072390Y0069470D02*
X0067610Y0069470D01*
X0068299Y0068672D02*
X0071701Y0068672D01*
X0071701Y0067873D02*
X0068299Y0067873D01*
X0068299Y0061485D02*
X0071701Y0061485D01*
X0072233Y0060687D02*
X0067767Y0060687D01*
X0051701Y0067873D02*
X0047800Y0067873D01*
X0047800Y0068672D02*
X0051701Y0068672D01*
X0052390Y0069470D02*
X0047800Y0069470D01*
X0087767Y0060687D02*
X0129733Y0060687D01*
X0129201Y0061485D02*
X0088299Y0061485D01*
X0095759Y0062284D02*
X0121741Y0062284D01*
X0120458Y0063082D02*
X0097042Y0063082D01*
X0097567Y0063881D02*
X0119933Y0063881D01*
X0119700Y0064679D02*
X0097800Y0064679D01*
X0097800Y0065478D02*
X0119700Y0065478D01*
X0119700Y0066276D02*
X0097800Y0066276D01*
X0097800Y0067075D02*
X0119700Y0067075D01*
X0119700Y0067873D02*
X0097800Y0067873D01*
X0097800Y0068672D02*
X0119700Y0068672D01*
X0119700Y0069470D02*
X0097800Y0069470D01*
X0097800Y0070269D02*
X0119700Y0070269D01*
X0119700Y0071068D02*
X0097800Y0071068D01*
X0097800Y0071866D02*
X0119700Y0071866D01*
X0119700Y0072665D02*
X0097800Y0072665D01*
X0097800Y0073463D02*
X0119700Y0073463D01*
X0119700Y0074262D02*
X0097800Y0074262D01*
X0097800Y0075060D02*
X0119700Y0075060D01*
X0119700Y0075859D02*
X0097800Y0075859D01*
X0097800Y0076657D02*
X0119700Y0076657D01*
X0119700Y0077456D02*
X0097800Y0077456D01*
X0097800Y0078254D02*
X0119700Y0078254D01*
X0119700Y0079053D02*
X0097800Y0079053D01*
X0097800Y0079851D02*
X0119700Y0079851D01*
X0119700Y0080650D02*
X0097800Y0080650D01*
X0097800Y0081448D02*
X0119700Y0081448D01*
X0119700Y0082247D02*
X0097800Y0082247D01*
X0097800Y0083045D02*
X0119700Y0083045D01*
X0119700Y0083844D02*
X0097800Y0083844D01*
X0097800Y0084642D02*
X0119700Y0084642D01*
X0119700Y0085441D02*
X0097800Y0085441D01*
X0097800Y0086239D02*
X0119700Y0086239D01*
X0119700Y0087038D02*
X0097800Y0087038D01*
X0097800Y0087836D02*
X0119700Y0087836D01*
X0119700Y0088635D02*
X0097800Y0088635D01*
X0097800Y0089433D02*
X0119700Y0089433D01*
X0119700Y0090232D02*
X0097800Y0090232D01*
X0097800Y0091030D02*
X0119700Y0091030D01*
X0119700Y0091829D02*
X0097800Y0091829D01*
X0097800Y0092627D02*
X0119700Y0092627D01*
X0119700Y0093426D02*
X0097800Y0093426D01*
X0097800Y0094224D02*
X0119700Y0094224D01*
X0119347Y0095023D02*
X0098153Y0095023D01*
X0098614Y0095821D02*
X0118886Y0095821D01*
X0118555Y0096620D02*
X0098945Y0096620D01*
X0098981Y0097418D02*
X0118519Y0097418D01*
X0118519Y0098217D02*
X0098981Y0098217D01*
X0098681Y0099015D02*
X0118819Y0099015D01*
X0119184Y0099814D02*
X0098316Y0099814D01*
X0097518Y0100612D02*
X0119300Y0100612D01*
X0125700Y0100612D02*
X0127836Y0100612D01*
X0127837Y0100615D02*
X0127000Y0098594D01*
X0127000Y0096406D01*
X0127837Y0094384D01*
X0129384Y0092837D01*
X0131406Y0092000D01*
X0133594Y0092000D01*
X0135615Y0092837D01*
X0137163Y0094384D01*
X0138000Y0096406D01*
X0138000Y0098594D01*
X0137163Y0100615D01*
X0135615Y0102163D01*
X0133594Y0103000D01*
X0131406Y0103000D01*
X0129384Y0102163D01*
X0127837Y0100615D01*
X0127505Y0099814D02*
X0125816Y0099814D01*
X0126181Y0099015D02*
X0127175Y0099015D01*
X0127000Y0098217D02*
X0126481Y0098217D01*
X0126481Y0097418D02*
X0127000Y0097418D01*
X0127000Y0096620D02*
X0126445Y0096620D01*
X0126114Y0095821D02*
X0127242Y0095821D01*
X0127573Y0095023D02*
X0125653Y0095023D01*
X0125300Y0094224D02*
X0127997Y0094224D01*
X0128796Y0093426D02*
X0125300Y0093426D01*
X0125300Y0092627D02*
X0129892Y0092627D01*
X0125300Y0091829D02*
X0169700Y0091829D01*
X0169700Y0092627D02*
X0165108Y0092627D01*
X0165615Y0092837D02*
X0167163Y0094384D01*
X0168000Y0096406D01*
X0168000Y0098594D01*
X0167163Y0100615D01*
X0165615Y0102163D01*
X0163594Y0103000D01*
X0161406Y0103000D01*
X0159384Y0102163D01*
X0157837Y0100615D01*
X0157000Y0098594D01*
X0157000Y0096406D01*
X0157837Y0094384D01*
X0159384Y0092837D01*
X0161406Y0092000D01*
X0163594Y0092000D01*
X0165615Y0092837D01*
X0166204Y0093426D02*
X0169700Y0093426D01*
X0169700Y0094224D02*
X0167002Y0094224D01*
X0167427Y0095023D02*
X0169347Y0095023D01*
X0168886Y0095821D02*
X0167758Y0095821D01*
X0168000Y0096620D02*
X0168555Y0096620D01*
X0168519Y0097418D02*
X0168000Y0097418D01*
X0168000Y0098217D02*
X0168519Y0098217D01*
X0168819Y0099015D02*
X0167825Y0099015D01*
X0167495Y0099814D02*
X0169184Y0099814D01*
X0169982Y0100612D02*
X0167164Y0100612D01*
X0166367Y0101411D02*
X0171539Y0101411D01*
X0173461Y0101411D02*
X0196800Y0101411D01*
X0196800Y0102209D02*
X0165503Y0102209D01*
X0159497Y0102209D02*
X0135503Y0102209D01*
X0136367Y0101411D02*
X0158633Y0101411D01*
X0157836Y0100612D02*
X0137164Y0100612D01*
X0137495Y0099814D02*
X0157505Y0099814D01*
X0157175Y0099015D02*
X0137825Y0099015D01*
X0138000Y0098217D02*
X0157000Y0098217D01*
X0157000Y0097418D02*
X0138000Y0097418D01*
X0138000Y0096620D02*
X0157000Y0096620D01*
X0157242Y0095821D02*
X0137758Y0095821D01*
X0137427Y0095023D02*
X0157573Y0095023D01*
X0157997Y0094224D02*
X0137002Y0094224D01*
X0136204Y0093426D02*
X0158796Y0093426D01*
X0159892Y0092627D02*
X0135108Y0092627D01*
X0125300Y0091030D02*
X0169700Y0091030D01*
X0169700Y0090232D02*
X0125300Y0090232D01*
X0125300Y0089433D02*
X0169700Y0089433D01*
X0169700Y0088635D02*
X0125300Y0088635D01*
X0125300Y0087836D02*
X0169700Y0087836D01*
X0169700Y0087038D02*
X0125300Y0087038D01*
X0125300Y0086239D02*
X0169700Y0086239D01*
X0169700Y0085441D02*
X0125300Y0085441D01*
X0125300Y0084642D02*
X0169700Y0084642D01*
X0169700Y0083844D02*
X0125300Y0083844D01*
X0125300Y0083045D02*
X0169700Y0083045D01*
X0169700Y0082247D02*
X0165413Y0082247D01*
X0165615Y0082163D02*
X0163594Y0083000D01*
X0161406Y0083000D01*
X0159384Y0082163D01*
X0157837Y0080615D01*
X0157000Y0078594D01*
X0157000Y0076406D01*
X0157837Y0074384D01*
X0159384Y0072837D01*
X0161406Y0072000D01*
X0163594Y0072000D01*
X0165615Y0072837D01*
X0167163Y0074384D01*
X0168000Y0076406D01*
X0168000Y0078594D01*
X0167163Y0080615D01*
X0165615Y0082163D01*
X0166330Y0081448D02*
X0169700Y0081448D01*
X0169700Y0080650D02*
X0167129Y0080650D01*
X0167479Y0079851D02*
X0169700Y0079851D01*
X0169700Y0079053D02*
X0167810Y0079053D01*
X0168000Y0078254D02*
X0169700Y0078254D01*
X0169700Y0077456D02*
X0168000Y0077456D01*
X0168000Y0076657D02*
X0169700Y0076657D01*
X0169700Y0075859D02*
X0167773Y0075859D01*
X0167442Y0075060D02*
X0169700Y0075060D01*
X0169700Y0074262D02*
X0167040Y0074262D01*
X0166241Y0073463D02*
X0169700Y0073463D01*
X0169700Y0072665D02*
X0165198Y0072665D01*
X0165110Y0069470D02*
X0169700Y0069470D01*
X0169700Y0068672D02*
X0165799Y0068672D01*
X0165799Y0067873D02*
X0169700Y0067873D01*
X0169700Y0070269D02*
X0125300Y0070269D01*
X0125300Y0071068D02*
X0169700Y0071068D01*
X0169700Y0071866D02*
X0125300Y0071866D01*
X0125300Y0072665D02*
X0129802Y0072665D01*
X0129384Y0072837D02*
X0131406Y0072000D01*
X0133594Y0072000D01*
X0135615Y0072837D01*
X0137163Y0074384D01*
X0138000Y0076406D01*
X0138000Y0078594D01*
X0137163Y0080615D01*
X0135615Y0082163D01*
X0133594Y0083000D01*
X0131406Y0083000D01*
X0129384Y0082163D01*
X0127837Y0080615D01*
X0127000Y0078594D01*
X0127000Y0076406D01*
X0127837Y0074384D01*
X0129384Y0072837D01*
X0128759Y0073463D02*
X0125300Y0073463D01*
X0125300Y0074262D02*
X0127960Y0074262D01*
X0127557Y0075060D02*
X0125300Y0075060D01*
X0125300Y0075859D02*
X0127227Y0075859D01*
X0127000Y0076657D02*
X0125300Y0076657D01*
X0125300Y0077456D02*
X0127000Y0077456D01*
X0127000Y0078254D02*
X0125300Y0078254D01*
X0125300Y0079053D02*
X0127190Y0079053D01*
X0127521Y0079851D02*
X0125300Y0079851D01*
X0125300Y0080650D02*
X0127871Y0080650D01*
X0128670Y0081448D02*
X0125300Y0081448D01*
X0125300Y0082247D02*
X0129587Y0082247D01*
X0135413Y0082247D02*
X0159587Y0082247D01*
X0158670Y0081448D02*
X0136330Y0081448D01*
X0137129Y0080650D02*
X0157871Y0080650D01*
X0157521Y0079851D02*
X0137479Y0079851D01*
X0137810Y0079053D02*
X0157190Y0079053D01*
X0157000Y0078254D02*
X0138000Y0078254D01*
X0138000Y0077456D02*
X0157000Y0077456D01*
X0157000Y0076657D02*
X0138000Y0076657D01*
X0137773Y0075859D02*
X0157227Y0075859D01*
X0157557Y0075060D02*
X0137442Y0075060D01*
X0137040Y0074262D02*
X0157960Y0074262D01*
X0158759Y0073463D02*
X0136241Y0073463D01*
X0135198Y0072665D02*
X0159802Y0072665D01*
X0149890Y0069470D02*
X0145110Y0069470D01*
X0145799Y0068672D02*
X0149201Y0068672D01*
X0149201Y0067873D02*
X0145799Y0067873D01*
X0145799Y0061485D02*
X0149201Y0061485D01*
X0149733Y0060687D02*
X0145267Y0060687D01*
X0129201Y0067873D02*
X0125300Y0067873D01*
X0125300Y0068672D02*
X0129201Y0068672D01*
X0129890Y0069470D02*
X0125300Y0069470D01*
X0165267Y0060687D02*
X0207233Y0060687D01*
X0206701Y0061485D02*
X0165799Y0061485D01*
X0173259Y0062284D02*
X0199241Y0062284D01*
X0197958Y0063082D02*
X0174542Y0063082D01*
X0175067Y0063881D02*
X0197433Y0063881D01*
X0197200Y0064679D02*
X0175300Y0064679D01*
X0175300Y0065478D02*
X0197200Y0065478D01*
X0197200Y0066276D02*
X0175300Y0066276D01*
X0175300Y0067075D02*
X0197200Y0067075D01*
X0197200Y0067873D02*
X0175300Y0067873D01*
X0175300Y0068672D02*
X0197200Y0068672D01*
X0197200Y0069470D02*
X0175300Y0069470D01*
X0175300Y0070269D02*
X0197200Y0070269D01*
X0197200Y0071068D02*
X0175300Y0071068D01*
X0175300Y0071866D02*
X0197200Y0071866D01*
X0197200Y0072665D02*
X0175300Y0072665D01*
X0175300Y0073463D02*
X0197200Y0073463D01*
X0197200Y0074262D02*
X0175300Y0074262D01*
X0175300Y0075060D02*
X0197200Y0075060D01*
X0197200Y0075859D02*
X0175300Y0075859D01*
X0175300Y0076657D02*
X0197200Y0076657D01*
X0197200Y0077456D02*
X0175300Y0077456D01*
X0175300Y0078254D02*
X0197200Y0078254D01*
X0197200Y0079053D02*
X0175300Y0079053D01*
X0175300Y0079851D02*
X0197200Y0079851D01*
X0197200Y0080650D02*
X0175300Y0080650D01*
X0175300Y0081448D02*
X0197200Y0081448D01*
X0197200Y0082247D02*
X0175300Y0082247D01*
X0175300Y0083045D02*
X0197200Y0083045D01*
X0197200Y0083844D02*
X0175300Y0083844D01*
X0175300Y0084642D02*
X0197200Y0084642D01*
X0197200Y0085441D02*
X0175300Y0085441D01*
X0175300Y0086239D02*
X0197200Y0086239D01*
X0197200Y0087038D02*
X0175300Y0087038D01*
X0175300Y0087836D02*
X0197200Y0087836D01*
X0197200Y0088635D02*
X0175300Y0088635D01*
X0175300Y0089433D02*
X0197200Y0089433D01*
X0197200Y0090232D02*
X0175300Y0090232D01*
X0175300Y0091030D02*
X0197200Y0091030D01*
X0197200Y0091829D02*
X0175300Y0091829D01*
X0175300Y0092627D02*
X0197200Y0092627D01*
X0197200Y0093426D02*
X0175300Y0093426D01*
X0175300Y0094224D02*
X0197200Y0094224D01*
X0196847Y0095023D02*
X0175653Y0095023D01*
X0176114Y0095821D02*
X0196386Y0095821D01*
X0196055Y0096620D02*
X0176445Y0096620D01*
X0176481Y0097418D02*
X0196019Y0097418D01*
X0196019Y0098217D02*
X0176481Y0098217D01*
X0176181Y0099015D02*
X0196319Y0099015D01*
X0196684Y0099814D02*
X0175816Y0099814D01*
X0175018Y0100612D02*
X0196800Y0100612D01*
X0196800Y0103008D02*
X0125700Y0103008D01*
X0125700Y0103806D02*
X0196800Y0103806D01*
X0196800Y0104605D02*
X0125700Y0104605D01*
X0125700Y0105403D02*
X0196800Y0105403D01*
X0196800Y0106202D02*
X0125700Y0106202D01*
X0125700Y0107001D02*
X0196800Y0107001D01*
X0196800Y0107799D02*
X0125700Y0107799D01*
X0125700Y0108598D02*
X0196800Y0108598D01*
X0196800Y0109396D02*
X0125700Y0109396D01*
X0125700Y0110195D02*
X0196800Y0110195D01*
X0196800Y0110993D02*
X0125700Y0110993D01*
X0125700Y0111792D02*
X0196800Y0111792D01*
X0196800Y0112590D02*
X0125700Y0112590D01*
X0125700Y0113389D02*
X0196800Y0113389D01*
X0196800Y0114187D02*
X0125700Y0114187D01*
X0125700Y0114986D02*
X0196800Y0114986D01*
X0196800Y0115784D02*
X0125700Y0115784D01*
X0125700Y0116583D02*
X0196800Y0116583D01*
X0196800Y0117381D02*
X0125700Y0117381D01*
X0125700Y0118180D02*
X0196800Y0118180D01*
X0196800Y0118978D02*
X0125700Y0118978D01*
X0125700Y0119777D02*
X0196800Y0119777D01*
X0196800Y0120575D02*
X0125700Y0120575D01*
X0125700Y0121374D02*
X0196800Y0121374D01*
X0196800Y0122172D02*
X0125700Y0122172D01*
X0125700Y0122971D02*
X0196800Y0122971D01*
X0196800Y0123769D02*
X0125700Y0123769D01*
X0125700Y0124568D02*
X0196800Y0124568D01*
X0196800Y0125366D02*
X0125700Y0125366D01*
X0125700Y0126165D02*
X0196800Y0126165D01*
X0196800Y0126963D02*
X0125700Y0126963D01*
X0125700Y0127762D02*
X0196800Y0127762D01*
X0196800Y0128560D02*
X0125700Y0128560D01*
X0125700Y0129359D02*
X0196800Y0129359D01*
X0196800Y0130157D02*
X0125700Y0130157D01*
X0125700Y0130956D02*
X0196800Y0130956D01*
X0196800Y0131754D02*
X0125700Y0131754D01*
X0125700Y0132553D02*
X0196800Y0132553D01*
X0196800Y0133351D02*
X0125700Y0133351D01*
X0125700Y0134150D02*
X0196800Y0134150D01*
X0196800Y0134948D02*
X0125700Y0134948D01*
X0125700Y0135747D02*
X0196800Y0135747D01*
X0196800Y0136545D02*
X0125700Y0136545D01*
X0125700Y0137344D02*
X0196800Y0137344D01*
X0196800Y0138142D02*
X0125700Y0138142D01*
X0125700Y0138941D02*
X0196800Y0138941D01*
X0196800Y0139739D02*
X0125700Y0139739D01*
X0125700Y0140538D02*
X0196800Y0140538D01*
X0196800Y0141337D02*
X0125700Y0141337D01*
X0125700Y0142135D02*
X0161080Y0142135D01*
X0161406Y0142000D02*
X0163594Y0142000D01*
X0165615Y0142837D01*
X0167163Y0144384D01*
X0168000Y0146406D01*
X0168000Y0148594D01*
X0167163Y0150615D01*
X0165615Y0152163D01*
X0163594Y0153000D01*
X0161406Y0153000D01*
X0159384Y0152163D01*
X0157837Y0150615D01*
X0157000Y0148594D01*
X0157000Y0146406D01*
X0157837Y0144384D01*
X0159384Y0142837D01*
X0161406Y0142000D01*
X0159288Y0142934D02*
X0125700Y0142934D01*
X0125700Y0143732D02*
X0158490Y0143732D01*
X0157777Y0144531D02*
X0125700Y0144531D01*
X0125700Y0145329D02*
X0157446Y0145329D01*
X0157115Y0146128D02*
X0125700Y0146128D01*
X0125700Y0146926D02*
X0157000Y0146926D01*
X0157000Y0147725D02*
X0125700Y0147725D01*
X0125700Y0148523D02*
X0157000Y0148523D01*
X0157301Y0149322D02*
X0125700Y0149322D01*
X0125700Y0150120D02*
X0157632Y0150120D01*
X0158140Y0150919D02*
X0125700Y0150919D01*
X0125700Y0151717D02*
X0158939Y0151717D01*
X0160237Y0152516D02*
X0125700Y0152516D01*
X0125700Y0153314D02*
X0196800Y0153314D01*
X0196800Y0152516D02*
X0164763Y0152516D01*
X0166061Y0151717D02*
X0196800Y0151717D01*
X0196800Y0150919D02*
X0166860Y0150919D01*
X0167368Y0150120D02*
X0196800Y0150120D01*
X0196800Y0149322D02*
X0167699Y0149322D01*
X0168000Y0148523D02*
X0196800Y0148523D01*
X0196800Y0147725D02*
X0168000Y0147725D01*
X0168000Y0146926D02*
X0196800Y0146926D01*
X0196800Y0146128D02*
X0167885Y0146128D01*
X0167554Y0145329D02*
X0196800Y0145329D01*
X0196800Y0144531D02*
X0167223Y0144531D01*
X0166510Y0143732D02*
X0196800Y0143732D01*
X0196800Y0142934D02*
X0165712Y0142934D01*
X0163920Y0142135D02*
X0196800Y0142135D01*
X0203200Y0142135D02*
X0238580Y0142135D01*
X0236788Y0142934D02*
X0203200Y0142934D01*
X0203200Y0143732D02*
X0235990Y0143732D01*
X0235277Y0144531D02*
X0203200Y0144531D01*
X0203200Y0145329D02*
X0234946Y0145329D01*
X0234615Y0146128D02*
X0203200Y0146128D01*
X0203200Y0146926D02*
X0234500Y0146926D01*
X0234500Y0147725D02*
X0203200Y0147725D01*
X0203200Y0148523D02*
X0234500Y0148523D01*
X0234801Y0149322D02*
X0203200Y0149322D01*
X0203200Y0150120D02*
X0235132Y0150120D01*
X0235640Y0150919D02*
X0203200Y0150919D01*
X0203200Y0151717D02*
X0236439Y0151717D01*
X0237737Y0152516D02*
X0211388Y0152516D01*
X0208612Y0152516D02*
X0203200Y0152516D01*
X0203200Y0153314D02*
X0207306Y0153314D01*
X0206576Y0154113D02*
X0203200Y0154113D01*
X0203200Y0154911D02*
X0206245Y0154911D01*
X0206019Y0155710D02*
X0203200Y0155710D01*
X0203200Y0156508D02*
X0206019Y0156508D01*
X0206129Y0157307D02*
X0203200Y0157307D01*
X0203200Y0158105D02*
X0206459Y0158105D01*
X0206800Y0158904D02*
X0203200Y0158904D01*
X0203200Y0159702D02*
X0206800Y0159702D01*
X0206800Y0160501D02*
X0203200Y0160501D01*
X0203200Y0161299D02*
X0206800Y0161299D01*
X0206800Y0162098D02*
X0203200Y0162098D01*
X0203200Y0162896D02*
X0206800Y0162896D01*
X0206800Y0163695D02*
X0203200Y0163695D01*
X0203200Y0164493D02*
X0206800Y0164493D01*
X0206800Y0165292D02*
X0203200Y0165292D01*
X0203200Y0166090D02*
X0206800Y0166090D01*
X0206800Y0166889D02*
X0203200Y0166889D01*
X0203200Y0167687D02*
X0206800Y0167687D01*
X0206800Y0168486D02*
X0203200Y0168486D01*
X0203200Y0169284D02*
X0206800Y0169284D01*
X0206800Y0170083D02*
X0203200Y0170083D01*
X0203200Y0170881D02*
X0206800Y0170881D01*
X0206800Y0171680D02*
X0203200Y0171680D01*
X0203200Y0172478D02*
X0206800Y0172478D01*
X0206800Y0173277D02*
X0203142Y0173277D01*
X0202811Y0174075D02*
X0206800Y0174075D01*
X0206800Y0174874D02*
X0202151Y0174874D01*
X0200703Y0175672D02*
X0206800Y0175672D01*
X0213200Y0175672D02*
X0217550Y0175672D01*
X0217550Y0176471D02*
X0213200Y0176471D01*
X0213200Y0177270D02*
X0217550Y0177270D01*
X0217550Y0178068D02*
X0213200Y0178068D01*
X0213200Y0178867D02*
X0217550Y0178867D01*
X0217587Y0179665D02*
X0213200Y0179665D01*
X0213200Y0180464D02*
X0217550Y0180464D01*
X0217550Y0181262D02*
X0213200Y0181262D01*
X0213200Y0182061D02*
X0217550Y0182061D01*
X0217550Y0182859D02*
X0213200Y0182859D01*
X0213200Y0183658D02*
X0217550Y0183658D01*
X0217550Y0184456D02*
X0213200Y0184456D01*
X0213200Y0185255D02*
X0217667Y0185255D01*
X0217550Y0186053D02*
X0213200Y0186053D01*
X0213200Y0186852D02*
X0217550Y0186852D01*
X0217550Y0187650D02*
X0213200Y0187650D01*
X0213200Y0188449D02*
X0217550Y0188449D01*
X0217550Y0189247D02*
X0213200Y0189247D01*
X0213200Y0190046D02*
X0217876Y0190046D01*
X0217550Y0190844D02*
X0213200Y0190844D01*
X0213200Y0191643D02*
X0217550Y0191643D01*
X0217550Y0192441D02*
X0213200Y0192441D01*
X0213200Y0193240D02*
X0217550Y0193240D01*
X0217550Y0194038D02*
X0213200Y0194038D01*
X0213200Y0194837D02*
X0217758Y0194837D01*
X0217550Y0195635D02*
X0213200Y0195635D01*
X0213200Y0196434D02*
X0217550Y0196434D01*
X0217550Y0197232D02*
X0213200Y0197232D01*
X0213200Y0198031D02*
X0217550Y0198031D01*
X0217550Y0198829D02*
X0213200Y0198829D01*
X0213200Y0201225D02*
X0217550Y0201225D01*
X0217550Y0202023D02*
X0213200Y0202023D01*
X0213200Y0202822D02*
X0217550Y0202822D01*
X0217550Y0203620D02*
X0213200Y0203620D01*
X0213200Y0204419D02*
X0217550Y0204419D01*
X0217704Y0205217D02*
X0213200Y0205217D01*
X0213200Y0206016D02*
X0217550Y0206016D01*
X0217550Y0206814D02*
X0213200Y0206814D01*
X0213200Y0207613D02*
X0217550Y0207613D01*
X0217550Y0208411D02*
X0213200Y0208411D01*
X0213200Y0209210D02*
X0217550Y0209210D01*
X0217930Y0210008D02*
X0213200Y0210008D01*
X0213200Y0210807D02*
X0245550Y0210807D01*
X0245550Y0211605D02*
X0213200Y0211605D01*
X0213200Y0212404D02*
X0245550Y0212404D01*
X0245550Y0213203D02*
X0213200Y0213203D01*
X0213200Y0214001D02*
X0245550Y0214001D01*
X0245550Y0210008D02*
X0229170Y0210008D01*
X0229550Y0209210D02*
X0245550Y0209210D01*
X0245550Y0208411D02*
X0229550Y0208411D01*
X0229550Y0207613D02*
X0245550Y0207613D01*
X0245550Y0206814D02*
X0229550Y0206814D01*
X0229550Y0206016D02*
X0245550Y0206016D01*
X0245550Y0205217D02*
X0229396Y0205217D01*
X0229550Y0204419D02*
X0245550Y0204419D01*
X0245550Y0203620D02*
X0229550Y0203620D01*
X0229550Y0202822D02*
X0245550Y0202822D01*
X0245550Y0202023D02*
X0229550Y0202023D01*
X0229550Y0201225D02*
X0245550Y0201225D01*
X0245550Y0198829D02*
X0229550Y0198829D01*
X0229550Y0198031D02*
X0245550Y0198031D01*
X0245550Y0197232D02*
X0229550Y0197232D01*
X0229550Y0196434D02*
X0245550Y0196434D01*
X0245606Y0195635D02*
X0229550Y0195635D01*
X0229550Y0199628D02*
X0229178Y0200000D01*
X0229550Y0200372D01*
X0240373Y0194837D02*
X0245937Y0194837D01*
X0246594Y0194038D02*
X0241144Y0194038D01*
X0241474Y0193240D02*
X0248036Y0193240D01*
X0250776Y0192441D02*
X0241550Y0192441D01*
X0241550Y0191643D02*
X0250776Y0191643D01*
X0250786Y0190844D02*
X0241550Y0190844D01*
X0241550Y0190046D02*
X0251585Y0190046D01*
X0228450Y0168486D02*
X0213200Y0168486D01*
X0213200Y0169284D02*
X0218637Y0169284D01*
X0217839Y0170083D02*
X0213200Y0170083D01*
X0213200Y0170881D02*
X0217550Y0170881D01*
X0217550Y0171680D02*
X0213200Y0171680D01*
X0213200Y0172478D02*
X0217550Y0172478D01*
X0217550Y0173277D02*
X0213200Y0173277D01*
X0213200Y0174075D02*
X0217550Y0174075D01*
X0217796Y0174874D02*
X0213200Y0174874D01*
X0213200Y0167687D02*
X0228450Y0167687D01*
X0228450Y0166889D02*
X0213200Y0166889D01*
X0213200Y0166090D02*
X0228450Y0166090D01*
X0228450Y0165292D02*
X0213200Y0165292D01*
X0213200Y0164493D02*
X0228450Y0164493D01*
X0228450Y0163695D02*
X0213200Y0163695D01*
X0213200Y0162896D02*
X0228450Y0162896D01*
X0228450Y0162098D02*
X0213200Y0162098D01*
X0213200Y0161299D02*
X0228450Y0161299D01*
X0228450Y0160501D02*
X0213200Y0160501D01*
X0213200Y0159702D02*
X0228450Y0159702D01*
X0228450Y0158904D02*
X0213200Y0158904D01*
X0213541Y0158105D02*
X0228486Y0158105D01*
X0228817Y0157307D02*
X0213871Y0157307D01*
X0213981Y0156508D02*
X0229532Y0156508D01*
X0196800Y0156508D02*
X0125700Y0156508D01*
X0125700Y0155710D02*
X0196800Y0155710D01*
X0196800Y0154911D02*
X0125700Y0154911D01*
X0125700Y0154113D02*
X0196800Y0154113D01*
X0196800Y0157307D02*
X0125700Y0157307D01*
X0125700Y0158105D02*
X0196800Y0158105D01*
X0196800Y0158904D02*
X0125700Y0158904D01*
X0125700Y0159702D02*
X0196800Y0159702D01*
X0196800Y0160501D02*
X0125700Y0160501D01*
X0125700Y0161299D02*
X0196800Y0161299D01*
X0196800Y0162098D02*
X0125700Y0162098D01*
X0125700Y0162896D02*
X0196800Y0162896D01*
X0196800Y0163695D02*
X0125700Y0163695D01*
X0125700Y0164493D02*
X0196800Y0164493D01*
X0196800Y0165292D02*
X0125700Y0165292D01*
X0125700Y0166090D02*
X0196800Y0166090D01*
X0196800Y0166889D02*
X0125700Y0166889D01*
X0125700Y0167687D02*
X0196800Y0167687D01*
X0177950Y0186852D02*
X0048200Y0186852D01*
X0048200Y0187650D02*
X0177950Y0187650D01*
X0177950Y0188449D02*
X0048200Y0188449D01*
X0048200Y0189247D02*
X0177950Y0189247D01*
X0189578Y0200000D02*
X0189950Y0200372D01*
X0189578Y0200000D02*
X0189950Y0199628D01*
X0206800Y0216397D02*
X0000000Y0216397D01*
X0000000Y0217195D02*
X0206800Y0217195D01*
X0206800Y0217994D02*
X0000000Y0217994D01*
X0000000Y0218792D02*
X0207072Y0218792D01*
X0207565Y0219591D02*
X0000000Y0219591D01*
X0000000Y0220389D02*
X0208613Y0220389D01*
X0250137Y0220389D02*
X0374016Y0220389D01*
X0374016Y0219591D02*
X0251185Y0219591D01*
X0251678Y0218792D02*
X0374016Y0218792D01*
X0374016Y0217994D02*
X0251950Y0217994D01*
X0340185Y0155710D02*
X0344300Y0155710D01*
X0344300Y0154911D02*
X0341334Y0154911D01*
X0374016Y0221188D02*
X0000000Y0221188D01*
X0000000Y0221986D02*
X0374016Y0221986D01*
X0374016Y0222785D02*
X0000000Y0222785D01*
X0000000Y0223583D02*
X0374016Y0223583D01*
X0374016Y0224382D02*
X0000000Y0224382D01*
X0000000Y0225180D02*
X0374016Y0225180D01*
X0374016Y0225979D02*
X0000000Y0225979D01*
X0000000Y0226777D02*
X0374016Y0226777D01*
X0374016Y0227576D02*
X0000000Y0227576D01*
X0000002Y0228374D02*
X0374014Y0228374D01*
X0373951Y0229173D02*
X0000065Y0229173D01*
X0000191Y0229971D02*
X0373824Y0229971D01*
X0373633Y0230770D02*
X0000383Y0230770D01*
X0000712Y0231568D02*
X0373304Y0231568D01*
X0372884Y0232367D02*
X0001131Y0232367D01*
X0001667Y0233165D02*
X0372349Y0233165D01*
X0371651Y0233964D02*
X0002364Y0233964D01*
X0003320Y0234762D02*
X0370695Y0234762D01*
X0369237Y0235561D02*
X0004779Y0235561D01*
X0125700Y0102209D02*
X0129497Y0102209D01*
X0128633Y0101411D02*
X0125700Y0101411D01*
X0222610Y0069470D02*
X0227390Y0069470D01*
X0226701Y0068672D02*
X0223299Y0068672D01*
X0223299Y0067873D02*
X0226701Y0067873D01*
X0226701Y0061485D02*
X0223299Y0061485D01*
X0222767Y0060687D02*
X0227233Y0060687D01*
D24*
X0250000Y0097500D03*
X0200000Y0097500D03*
X0172500Y0097500D03*
X0122500Y0097500D03*
X0095000Y0097500D03*
X0045000Y0097500D03*
X0210000Y0156250D03*
X0310000Y0136250D03*
X0320000Y0131250D03*
X0320000Y0141250D03*
X0320000Y0151250D03*
X0320000Y0161250D03*
X0320000Y0111250D03*
X0302500Y0075000D03*
X0263750Y0020000D03*
D25*
X0250000Y0065000D02*
X0238740Y0065000D01*
X0231260Y0065000D02*
X0218740Y0065000D01*
X0211260Y0065000D02*
X0200000Y0065000D01*
X0200000Y0097500D01*
X0172500Y0097500D02*
X0172500Y0065000D01*
X0161240Y0065000D01*
X0153760Y0065000D02*
X0141240Y0065000D01*
X0133760Y0065000D02*
X0122500Y0065000D01*
X0122500Y0097500D01*
X0095000Y0097500D02*
X0095000Y0065000D01*
X0083740Y0065000D01*
X0076260Y0065000D02*
X0063740Y0065000D01*
X0056260Y0065000D02*
X0045000Y0065000D01*
X0045000Y0097500D01*
X0223550Y0172500D02*
X0231250Y0172500D01*
X0231250Y0158750D01*
X0272500Y0158750D01*
X0272500Y0143350D01*
X0277500Y0143350D02*
X0277500Y0162500D01*
X0235000Y0162500D01*
X0235000Y0182500D01*
X0223550Y0182500D01*
X0223550Y0187500D01*
X0223550Y0192500D02*
X0238750Y0192500D01*
X0238750Y0166250D01*
X0282500Y0166250D01*
X0282500Y0143350D01*
X0287500Y0143350D02*
X0287500Y0136250D01*
X0310000Y0136250D01*
X0315000Y0141250D02*
X0320000Y0141250D01*
X0335000Y0141250D01*
X0335000Y0131250D02*
X0320000Y0131250D01*
X0320000Y0126250D01*
X0297500Y0126250D01*
X0297500Y0119150D01*
X0292500Y0119150D02*
X0292500Y0131250D01*
X0315000Y0131250D01*
X0315000Y0141250D01*
X0297500Y0143350D02*
X0297500Y0181250D01*
X0313760Y0181250D01*
X0321240Y0181250D02*
X0331260Y0181250D01*
X0331260Y0171250D02*
X0321240Y0171250D01*
X0292470Y0178750D02*
X0292470Y0143350D01*
X0292500Y0143350D01*
X0287500Y0119150D02*
X0287490Y0119150D01*
X0287490Y0107500D01*
X0287490Y0100719D01*
X0287492Y0100633D01*
X0287497Y0100547D01*
X0287507Y0100462D01*
X0287520Y0100377D01*
X0287537Y0100293D01*
X0287557Y0100209D01*
X0287581Y0100127D01*
X0287609Y0100046D01*
X0287640Y0099965D01*
X0287674Y0099887D01*
X0287712Y0099810D01*
X0287754Y0099735D01*
X0287798Y0099661D01*
X0287846Y0099590D01*
X0287897Y0099520D01*
X0287951Y0099453D01*
X0288007Y0099389D01*
X0288067Y0099327D01*
X0288129Y0099267D01*
X0288193Y0099211D01*
X0288260Y0099157D01*
X0288330Y0099106D01*
X0288401Y0099058D01*
X0288475Y0099014D01*
X0288550Y0098972D01*
X0288627Y0098934D01*
X0288705Y0098900D01*
X0288786Y0098869D01*
X0288867Y0098841D01*
X0288949Y0098817D01*
X0289033Y0098797D01*
X0289117Y0098780D01*
X0289202Y0098767D01*
X0289287Y0098757D01*
X0289373Y0098752D01*
X0289459Y0098750D01*
X0293750Y0098750D01*
X0293750Y0089990D01*
X0293750Y0082510D02*
X0302510Y0082510D01*
X0302510Y0082500D01*
X0302500Y0082500D01*
X0302500Y0075000D01*
X0309459Y0082500D02*
X0309459Y0098750D01*
X0298041Y0098750D02*
X0293750Y0098750D01*
X0309459Y0082500D02*
X0309990Y0082500D01*
X0250000Y0097500D02*
X0250000Y0065000D01*
X0223550Y0172500D02*
X0223550Y0177500D01*
X0223550Y0192500D02*
X0223550Y0197500D01*
X0270000Y0185000D02*
X0270000Y0183278D01*
X0270030Y0183278D01*
X0270000Y0185000D02*
X0291486Y0185000D01*
X0291486Y0198750D01*
M02*
