%
M48
M72
T01C0.0236
T02C0.0394
T03C0.0512
T04C0.1299
%
T01
X4500Y9750
X9500Y9750
X12250Y9750
X17250Y9750
X20000Y9750
X25000Y9750
X30250Y7500
X32000Y11125
X32000Y13125
X32000Y14125
X31000Y13625
X32000Y15125
X32000Y16125
X21000Y15625
X26375Y2000
T02
X24000Y7750
X24000Y9750
X21000Y9750
X21000Y7750
X16250Y7750
X16250Y9750
X13250Y9750
X13250Y7750
X8500Y7750
X8500Y9750
X5500Y9750
X5500Y7750
X5500Y14750
X8500Y14750
X13250Y14750
X16250Y14750
X21000Y14750
X24000Y14750
X33500Y15125
X33500Y14125
X33500Y13125
X33500Y12125
X33500Y11125
T03
X32250Y2000
X30250Y2000
X28250Y2000
X24500Y2000
X22500Y2000
X20500Y2000
X16750Y2000
X14750Y2000
X12750Y2000
X9000Y2000
X7000Y2000
X5000Y2000
T04
X1575Y1575
X1575Y22047
X35827Y22047
X35827Y1575
M30
