%
M48
M72
T01C0.0236
T02C0.0394
T03C0.0512
T04C0.1299
%
T01
X4250Y11000
X9500Y12000
X10250Y11000
X15500Y12000
X18250Y11000
X23500Y12000
X24500Y9500
X27250Y9500
X28500Y12750
X28500Y14750
X28500Y15750
X28500Y16750
X26250Y17250
X25250Y19250
X25750Y20250
X28203Y19291
X28750Y22250
X21750Y19250
X18898Y17323
X13000Y22500
X10500Y22500
X11417Y17323
X5512Y17323
T02
X5500Y16000
X8500Y16000
X11500Y16000
X14500Y16000
X19500Y16000
X22500Y16000
X22500Y11000
X22500Y9000
X19500Y9000
X19500Y11000
X14500Y11000
X14500Y9000
X11500Y9000
X11500Y11000
X8500Y11000
X8500Y9000
X5500Y9000
X5500Y11000
X29750Y12750
X29750Y13750
X29750Y14750
X29750Y15750
X29750Y16750
T03
X29000Y4500
X27000Y4500
X25000Y4500
X23000Y4500
X21000Y4500
X19000Y4500
X15000Y4500
X13000Y4500
X11000Y4500
X9000Y4500
X7000Y4500
X5000Y4500
T04
X1575Y1575
X1575Y22835
X32283Y22835
X32283Y1575
M30
